<?xml version="1.0" encoding="UTF-8" standalone="no"?>
<svg width="2155px" height="952px" viewBox="0 0 2155 952" version="1.1" xmlns="http://www.w3.org/2000/svg" xmlns:xlink="http://www.w3.org/1999/xlink" xmlns:sketch="http://www.bohemiancoding.com/sketch/ns">
    <!-- Generator: Sketch 3.4.1 (15681) - http://www.bohemiancoding.com/sketch -->
    <title>Esquire</title>
    <desc>Created with Sketch.</desc>
    <defs></defs>
    <g id="Page-1" stroke="none" stroke-width="1" fill="none" fill-rule="evenodd" sketch:type="MSPage">
        <g id="Esquire" sketch:type="MSArtboardGroup">
            <g id="T-Rex-Esquire" sketch:type="MSLayerGroup" transform="translate(30.000000, 107.000000)">
                <path d="M431.364469,675.084624 C455.149302,705.220321 483.809419,719.41793 500.150204,710.729381 C514.472226,703.114226 542.989641,690.665226 544.579395,657.96505 C545.804306,632.769425 523.659845,588.800336 512.299196,567.434063 C486.194113,518.337543 429.724517,474.504214 404.367315,487.986878 C379.010114,501.469541 372.697376,564.747871 398.802459,613.844391 C408.084804,631.301943 418.240622,658.456538 431.364469,675.084624 Z" id="Rectangle-3" fill="#8CB18E" sketch:type="MSShapeGroup" transform="translate(463.330110, 599.384436) rotate(-346.000000) translate(-463.330110, -599.384436) "></path>
                <path d="M461.753398,604.04763 C545.206317,608.475975 558.368335,551.021269 558.368335,415.987648 C558.368335,347.702964 514.92657,313.431224 492.757663,269.071891 C471.087343,225.710215 500.163133,189.398155 455.390839,189.398155 C412.803117,189.398155 423.390748,216.159583 413.490005,254.871955 C402.334049,298.492268 373.581421,358.222652 373.581421,429.764213 C373.581421,564.797834 378.300479,599.619285 461.753398,604.04763 Z" id="Oval-6" fill="#8CB18E" sketch:type="MSShapeGroup" transform="translate(465.974878, 396.841370) rotate(-344.000000) translate(-465.974878, -396.841370) "></path>
                <path d="M500.24446,617.885558 C548.290573,622.313903 555.868305,564.859197 555.868305,429.825576 C555.868305,361.540893 530.8577,327.269153 518.094458,282.90982 C505.618266,239.548144 522.357988,203.236083 496.581362,203.236083 C472.062454,203.236083 478.15804,229.997512 472.457913,268.709884 C466.035126,312.330197 449.481457,372.060581 449.481457,443.602142 C449.481457,578.635763 452.198347,613.457214 500.24446,617.885558 Z" id="Oval-6" fill="#CAFBCC" sketch:type="MSShapeGroup" transform="translate(502.674881, 410.679298) rotate(-344.000000) translate(-502.674881, -410.679298) "></path>
                <g id="Head" transform="translate(458.000000, 25.000000)" sketch:type="MSShapeGroup">
                    <g id="Lower-Teeth" transform="translate(190.126285, 152.855936) scale(1, -1) rotate(-9.000000) translate(-190.126285, -152.855936) translate(125.626285, 137.855936)" stroke="#979797" fill="#FFFFFF">
                        <polygon id="Triangle-2" transform="translate(116.037290, 11.592293) rotate(-186.000000) translate(-116.037290, -11.592293) " points="116.03729 1.092293 127.03729 22.092293 105.03729 22.092293 "></polygon>
                        <polygon id="Triangle-2" transform="translate(97.037290, 14.592293) rotate(-189.000000) translate(-97.037290, -14.592293) " points="97.0372897 4.092293 108.03729 25.092293 86.0372897 25.092293 "></polygon>
                        <polygon id="Triangle-2" transform="translate(78.037290, 16.592293) rotate(-190.000000) translate(-78.037290, -16.592293) " points="78.0372897 6.092293 89.0372897 27.092293 67.0372897 27.092293 "></polygon>
                        <polygon id="Triangle-2" transform="translate(59.506593, 17.629228) rotate(-189.000000) translate(-59.506593, -17.629228) " points="59.5065931 7.12922798 70.5065931 28.129228 48.5065931 28.129228 "></polygon>
                        <polygon id="Triangle-2" transform="translate(41.963585, 17.822597) rotate(-189.000000) translate(-41.963585, -17.822597) " points="41.9635848 7.32259742 52.9635848 28.3225974 30.9635848 28.3225974 "></polygon>
                        <polygon id="Triangle-2" transform="translate(26.527764, 17.654016) rotate(-188.000000) translate(-26.527764, -17.654016) " points="26.5277644 7.15401638 37.5277644 28.1540164 15.5277644 28.1540164 "></polygon>
                        <polygon id="Triangle-2" transform="translate(26.527764, 17.654016) rotate(-188.000000) translate(-26.527764, -17.654016) " points="26.5277644 7.15401638 37.5277644 28.1540164 15.5277644 28.1540164 "></polygon>
                        <polygon id="Triangle-2" transform="translate(12.390768, 17.776841) rotate(-186.000000) translate(-12.390768, -17.776841) " points="12.3907683 7.2768409 23.3907683 28.2768409 1.39076832 28.2768409 "></polygon>
                    </g>
                    <g id="Upper-Teeth" transform="translate(106.000000, 97.000000)" stroke="#979797" fill="#FFFFFF">
                        <polygon id="Triangle-2" transform="translate(179.037290, 15.592293) rotate(-186.000000) translate(-179.037290, -15.592293) " points="179.03729 5.092293 190.03729 26.092293 168.03729 26.092293 "></polygon>
                        <polygon id="Triangle-2" transform="translate(160.037290, 14.592293) rotate(-189.000000) translate(-160.037290, -14.592293) " points="160.03729 4.092293 171.03729 25.092293 149.03729 25.092293 "></polygon>
                        <polygon id="Triangle-2" transform="translate(141.037290, 21.592293) rotate(-190.000000) translate(-141.037290, -21.592293) " points="141.03729 11.092293 152.03729 32.092293 130.03729 32.092293 "></polygon>
                        <polygon id="Triangle-2" transform="translate(122.037290, 21.592293) rotate(-189.000000) translate(-122.037290, -21.592293) " points="122.03729 11.092293 133.03729 32.092293 111.03729 32.092293 "></polygon>
                        <polygon id="Triangle-2" transform="translate(103.037290, 27.592293) rotate(-189.000000) translate(-103.037290, -27.592293) " points="103.03729 17.092293 114.03729 38.092293 92.0372897 38.092293 "></polygon>
                        <polygon id="Triangle-2" transform="translate(83.037290, 27.592293) rotate(-188.000000) translate(-83.037290, -27.592293) " points="83.0372897 17.092293 94.0372897 38.092293 72.0372897 38.092293 "></polygon>
                        <polygon id="Triangle-2" transform="translate(47.037290, 31.592293) rotate(-190.000000) translate(-47.037290, -31.592293) " points="47.0372897 21.092293 58.0372897 42.092293 36.0372897 42.092293 "></polygon>
                        <polygon id="Triangle-2" transform="translate(63.037290, 29.592293) rotate(-189.000000) translate(-63.037290, -29.592293) " points="63.0372897 19.092293 74.0372897 40.092293 52.0372897 40.092293 "></polygon>
                        <polygon id="Triangle-2" transform="translate(30.037290, 31.592293) rotate(-189.000000) translate(-30.037290, -31.592293) " points="30.0372897 21.092293 41.0372897 42.092293 19.0372897 42.092293 "></polygon>
                        <polygon id="Triangle-2" transform="translate(13.037290, 32.592293) rotate(-190.000000) translate(-13.037290, -32.592293) " points="13.0372897 22.092293 24.0372897 43.092293 2.03728971 43.092293 "></polygon>
                        <polygon id="Triangle-2" transform="translate(198.936272, 13.286298) rotate(-186.000000) translate(-198.936272, -13.286298) " points="198.936272 2.00212561 210.757786 24.5704708 187.114758 24.5704708 "></polygon>
                    </g>
                    <path d="M262.785172,177.850571 C231.23875,197.255067 190.228572,210 150,210 C67.1572875,210 -5.68434189e-14,165.452333 -5.68434189e-14,110.5 C-5.68434189e-14,55.5476674 67.1572875,11 150,11 C193.893839,11 265.553776,18.5741717 298,36 C326.185765,51.1376717 319.311351,74.1712067 319.009914,99.3737492 L100.297132,130.752512 L262.78518,177.850566 Z" id="Oval-1" fill="#8CB18E"></path>
                    <ellipse id="Oval-2" fill="#8CB18E" cx="101.5" cy="41" rx="54.5" ry="41"></ellipse>
                    <path d="M138.334414,35.3582562 C138.494467,36.4698789 138.576726,37.6004446 138.576726,38.7463805 C138.576726,54.9229074 122.184643,68.0365734 101.963985,68.0365734 C81.7433259,68.0365734 65.3512434,54.9229074 65.3512434,38.7463805 C65.3512434,31.3449037 68.7828724,24.5846268 74.44273,19.4282701 L138.334414,35.3582562 Z" id="Oval-3" fill="#ECECEC" transform="translate(101.963985, 43.732422) rotate(-351.000000) translate(-101.963985, -43.732422) "></path>
                    <path d="M133.411855,34.6575903 C133.521863,35.4216385 133.578402,36.1987068 133.578402,36.9863394 C133.578402,48.1049023 122.311682,57.1182785 108.413478,57.1182785 C94.5152742,57.1182785 83.248554,48.1049023 83.248554,36.9863394 C83.248554,31.8991049 85.6072052,27.2525843 89.4973779,23.7084815 L133.411855,34.6575903 Z" id="Oval-3" fill="#454545" transform="translate(108.413478, 40.413380) rotate(-351.000000) translate(-108.413478, -40.413380) "></path>
                    <ellipse id="Oval-5" fill="#4A4A4A" transform="translate(273.619638, 66.068495) rotate(-58.000000) translate(-273.619638, -66.068495) " cx="273.619638" cy="66.068495" rx="7.5" ry="16.5"></ellipse>
                </g>
                <path d="M245.169953,576.39379 C307.688946,548.946603 358.443029,442 358.443029,442 L408,629.64416 C408,629.64416 54.0216371,660.072942 6.82452101,649.930015 C-40.3725951,639.787087 170.030693,609.381546 245.169953,576.39379 Z" id="Triangle-21" fill="#8CB18E" sketch:type="MSShapeGroup"></path>
                <path d="M452,326.772727 C452,326.772727 499.984538,322 525,322 C548.651205,322 598,326.772727 598,326.772727 L598,347.227273 C598,347.227273 548.885114,352 525,352 C500.218447,352 452,347.227273 452,347.227273 L452,326.772727 Z" id="Rectangle-3" fill="#4A4A4A" sketch:type="MSShapeGroup" transform="translate(525.000000, 337.000000) rotate(-12.000000) translate(-525.000000, -337.000000) "></path>
                <path d="M581,326 C580.07193,321.730879 581,313 581,313 L597,309 L597,333 L586,336 C586,336 581.738597,329.397545 581,326 Z" id="Rectangle-215" fill="#D8D8D8" sketch:type="MSShapeGroup"></path>
                <path d="M651.34752,348.790591 C646.362829,350.092869 640.98652,350.802755 635.381013,350.802755 C609.42363,350.802755 588.381013,335.580436 588.381013,316.802755 C588.381013,298.025073 609.42363,282.802755 635.381013,282.802755 C640.98652,282.802755 646.362829,283.512641 651.34752,284.814919 C629.20649,289.543089 613.381013,302.080121 613.381013,316.802755 C613.381013,331.525389 629.20649,344.062421 651.34752,348.790591 Z" id="Oval-8" fill="#8CB18E" sketch:type="MSShapeGroup" transform="translate(619.864266, 316.802755) rotate(-12.000000) translate(-619.864266, -316.802755) "></path>
                <path d="M339.811975,657.058061 C346.664884,694.832605 365.304891,720.82346 383.811975,720.82346 C400.032669,720.82346 431.056503,723.21976 447.811975,695.093562 C460.722137,673.422208 461.811975,624.203611 461.811975,600.00481 C461.811975,544.399562 432.530782,479.18616 403.811975,479.18616 C375.093168,479.18616 339.811975,532.093959 339.811975,587.699207 C339.811975,607.471108 336.03072,636.21506 339.811975,657.058061 Z" id="Oval-12" fill="#8CB18E" sketch:type="MSShapeGroup" transform="translate(399.971696, 600.030206) rotate(-351.000000) translate(-399.971696, -600.030206) "></path>
                <path d="M367.277856,712.08108 C367.277856,712.08108 478.084112,710.413595 494.597273,726.878304 C511.110433,743.343013 434.176751,778.783687 434.176751,778.783687 C434.176751,778.783687 364.822983,794.756006 340.615701,778.783683 C316.408419,762.811361 367.277856,712.08108 367.277856,712.08108 Z" id="Rectangle-5" fill="#8CB18E" sketch:type="MSShapeGroup" transform="translate(415.502067, 748.958133) rotate(-339.000000) translate(-415.502067, -748.958133) "></path>
                <path d="M505.358352,684.125018 C505.358352,684.125018 583.903498,674.704052 593.303917,690.378566 C602.704337,706.053081 539.802822,741.558661 539.802822,741.558661 C539.802822,741.558661 498.793117,763.443047 474.764557,747.588648 C450.735996,731.734248 505.358352,684.125018 505.358352,684.125018 Z" id="Rectangle-5" fill="#8CB18E" sketch:type="MSShapeGroup" transform="translate(531.459161, 717.334790) rotate(-339.000000) translate(-531.459161, -717.334790) "></path>
                <path d="M459.562469,745.974618 C471.219823,743.273524 487.868177,746.485173 500.562469,750.974618 C515.20151,756.15184 519.562469,772.974618 519.562469,772.974618 C519.562469,772.974618 499.599056,760.474618 483.562469,760.474618 C472.265723,760.474618 466.576905,764.712506 459.562469,760.474618 C452.548033,756.236729 447.905115,748.675712 459.562469,745.974618 Z" id="Triangle-22" fill="#D8D8D8" sketch:type="MSShapeGroup" transform="translate(486.008957, 758.979723) rotate(-353.000000) translate(-486.008957, -758.979723) "></path>
                <path d="M526.677677,722.243148 C536.753024,719.908616 551.142047,722.684416 562.11361,726.564603 C574.766003,731.03923 578.53514,745.579006 578.53514,745.579006 C578.53514,745.579006 561.280941,734.775368 547.420662,734.775368 C537.656985,734.775368 532.740191,738.438137 526.677677,734.775368 C520.615163,731.112599 516.60233,724.577679 526.677677,722.243148 Z" id="Triangle-22" fill="#D8D8D8" sketch:type="MSShapeGroup" transform="translate(549.535140, 733.483344) rotate(-351.000000) translate(-549.535140, -733.483344) "></path>
                <path d="M420.395215,760.178999 C432.052569,757.477905 448.700923,760.689554 461.395215,765.178999 C476.034257,770.356221 480.395215,787.178999 480.395215,787.178999 C480.395215,787.178999 460.431802,774.678999 444.395215,774.678999 C433.098469,774.678999 427.409651,778.916887 420.395215,774.678999 C413.380779,770.44111 408.737861,762.880093 420.395215,760.178999 Z" id="Triangle-22" fill="#D8D8D8" sketch:type="MSShapeGroup" transform="translate(446.841704, 773.184104) rotate(-347.000000) translate(-446.841704, -773.184104) "></path>
                <path d="M560.142537,707.855466 C570.217884,705.520934 584.606907,708.296734 595.57847,712.176921 C608.230862,716.651548 612,731.191325 612,731.191325 C612,731.191325 594.745801,720.387686 580.885522,720.387686 C571.121845,720.387686 566.205051,724.050455 560.142537,720.387686 C554.080022,716.724917 550.06719,710.189998 560.142537,707.855466 Z" id="Triangle-22" fill="#D8D8D8" sketch:type="MSShapeGroup" transform="translate(583.000000, 719.095662) rotate(-352.000000) translate(-583.000000, -719.095662) "></path>
                <path d="M298,533 C307.024579,517.554942 320.057254,504.791239 329,489 C336.999591,474.8742 356.26798,419.893909 359.000003,410.999998 C363.012661,397.937072 368.693218,387.945383 372.000003,379.999998 C384.811429,349.217314 386.353218,349.946933 395,334 C412.355498,301.991909 456.698593,226.82305 473.999996,201 C478.102489,194.876861 482.999996,196 482.999996,196 C482.999996,196 502.297936,212.654615 513.999996,218 C529.297936,224.987948 563.999996,233 563.999996,233 C563.999996,233 560.212451,332.34322 560.999996,432 C561.587345,506.323848 577.157724,586.983049 544.999996,633 C469.723729,740.718563 279,678.999998 279,678.999998 C279,678.999998 257.065325,603.057383 298,533 Z" id="Rectangle-203" fill="#4A4A4A" sketch:type="MSShapeGroup"></path>
                <path d="M468.927416,218.391047 C469.759644,217.061077 475.113539,215.552603 475.113539,215.552603 C475.113539,215.552603 501.830142,218.905073 513.596565,218.391047 C530.741201,217.642068 561.846714,211.763588 561.846714,211.763588 L576.340458,235.80379 L468.927416,225.438547 C468.927416,225.438547 467.697604,220.356391 468.927416,218.391047 Z" id="Rectangle-204" fill="#D8D8D8" sketch:type="MSShapeGroup" transform="translate(522.360645, 223.783689) rotate(-333.000000) translate(-522.360645, -223.783689) "></path>
                <rect id="Rectangle-205" fill="#D8D8D8" sketch:type="MSShapeGroup" transform="translate(576.267570, 260.000000) rotate(-38.000000) translate(-576.267570, -260.000000) " x="570.483742" y="226.288305" width="11.5676565" height="67.4233895"></rect>
                <g id="Wig" transform="translate(421.000000, 0.000000)" fill="#D8D8D8" sketch:type="MSShapeGroup">
                    <path d="M56.5,98 C83.2858104,98 105,93.9705627 105,89 C105,84.0294373 83.2858104,80 56.5,80 C29.7141896,80 8,84.0294373 8,89 C8,93.9705627 29.7141896,98 56.5,98 Z" id="Oval-220"></path>
                    <ellipse id="Oval-220-Copy-7" transform="translate(117.500000, 30.052293) rotate(-18.000000) translate(-117.500000, -30.052293) " cx="117.5" cy="30.052293" rx="48.5" ry="9"></ellipse>
                    <ellipse id="Oval-220-Copy" cx="56.5" cy="105" rx="48.5" ry="9"></ellipse>
                    <ellipse id="Oval-220-Copy-2" cx="56.5" cy="121" rx="48.5" ry="9"></ellipse>
                    <ellipse id="Oval-220-Copy-3" cx="56.5" cy="137" rx="48.5" ry="9"></ellipse>
                    <ellipse id="Oval-220-Copy-4" cx="56.5" cy="153" rx="48.5" ry="9"></ellipse>
                    <ellipse id="Oval-220-Copy-5" cx="56.5" cy="169" rx="48.5" ry="9"></ellipse>
                    <ellipse id="Oval-220-Copy-6" cx="56.5" cy="185" rx="48.5" ry="9"></ellipse>
                    <ellipse id="Oval-220" transform="translate(73.500000, 63.000000) rotate(-46.000000) translate(-73.500000, -63.000000) " cx="73.5" cy="63" rx="48.5" ry="9"></ellipse>
                    <ellipse id="Oval-220" transform="translate(57.500000, 61.000000) rotate(-40.000000) translate(-57.500000, -61.000000) " cx="57.5" cy="61" rx="48.5" ry="9"></ellipse>
                    <ellipse id="Oval-220" transform="translate(44.500000, 55.000000) rotate(-38.000000) translate(-44.500000, -55.000000) " cx="44.5" cy="55" rx="48.5" ry="9"></ellipse>
                    <ellipse id="Oval-220" transform="translate(105.500000, 21.000000) rotate(-14.000000) translate(-105.500000, -21.000000) " cx="105.5" cy="21" rx="48.5" ry="9"></ellipse>
                </g>
                <g id="Rectangle-3-+-Book-+-Oval-8" transform="translate(600.000000, 403.000000) rotate(-36.000000) translate(-600.000000, -403.000000) translate(471.000000, 296.000000)" sketch:type="MSShapeGroup">
                    <path d="M-2.60088358,41.1661842 C-2.60088358,41.1661842 45.3836544,36.3934569 70.3991164,36.3934569 C94.050321,36.3934569 143.399116,41.1661842 143.399116,41.1661842 L143.399116,61.6207296 C143.399116,61.6207296 94.28423,66.3934569 70.3991164,66.3934569 C45.6175633,66.3934569 -2.60088358,61.6207296 -2.60088358,61.6207296 L-2.60088358,41.1661842 Z" id="Rectangle-3" fill="#4A4A4A" transform="translate(70.399116, 51.393457) rotate(-329.000000) translate(-70.399116, -51.393457) "></path>
                    <g id="Book" transform="translate(181.000000, 158.000000) rotate(-270.000000) translate(-181.000000, -158.000000) translate(125.000000, 81.000000)">
                        <rect id="Rectangle-207" fill="#844E30" x="8" y="8" width="104" height="146"></rect>
                        <path d="M105,0 L105,8 L8,8 L2.13162821e-13,0 L105,0 Z" id="Rectangle-208" fill="#844F31"></path>
                        <path d="M2.13162821e-13,35 L8,43 L8,154 L2.13162821e-13,154 L2.13162821e-13,35 Z" id="Rectangle-209" fill="#844F31" transform="translate(4.000000, 94.500000) scale(-1, -1) translate(-4.000000, -94.500000) "></path>
                        <path d="M77,-27 L85,-19 L85,35 L77,35 L77,-27 Z" id="Rectangle-209" fill="#844F31" transform="translate(81.000000, 4.000000) scale(1, -1) rotate(-270.000000) translate(-81.000000, -4.000000) "></path>
                        <path d="M105,1 L105,7 L7,7 L1,1 L105,1 Z" id="Rectangle-208" fill="#CD9065"></path>
                        <path d="M77.5,-26.5 L83.5,-20.5 L83.5,34.5 L77.5,34.5 L77.5,-26.5 Z" id="Rectangle-209" fill="#CD9065" transform="translate(80.500000, 4.000000) scale(1, -1) rotate(-270.000000) translate(-80.500000, -4.000000) "></path>
                        <path d="M2.13162821e-13,0 L8,8 L8,119 L2.13162821e-13,119 L2.13162821e-13,0 Z" id="Rectangle-209" fill="#844F31"></path>
                    </g>
                    <path d="M117.946278,88.327807 C117.018208,84.0586856 117.946278,75.327807 117.946278,75.327807 L133.946278,68.5308373 L133.946278,93.5193131 L122.523524,99.4386475 C122.523524,99.4386475 118.684875,91.7253523 117.946278,88.327807 Z" id="Rectangle-215" fill="#D8D8D8" transform="translate(125.740040, 83.984742) rotate(-306.000000) translate(-125.740040, -83.984742) "></path>
                    <path d="M178.824737,102 C165.843372,81.8224326 144.015816,72.4756696 128.510027,81.070669 C112.086696,90.1742697 108.97462,115.958483 121.559009,138.661322 C124.276612,143.564009 127.503979,147.922075 131.059603,151.650428 C124.46077,129.993185 127.753561,110.073836 140.630267,102.936162 C146.55275,99.6532758 153.693883,99.5225617 161.126555,102 L178.824737,102 Z" id="Oval-8" fill="#8CB18E"></path>
                </g>
                <rect id="Rectangle-205" fill="#D8D8D8" sketch:type="MSShapeGroup" transform="translate(568.267570, 265.000000) rotate(-16.000000) translate(-568.267570, -265.000000) " x="562.483742" y="231.288305" width="11.5676565" height="67.4233895"></rect>
            </g>
            <g id="Robot-Esquire" sketch:type="MSLayerGroup" transform="translate(1151.000000, 5.000000)">
                <rect id="Rectangle-15" fill="#4D4D4D" sketch:type="MSShapeGroup" transform="translate(298.000000, 777.000000) rotate(-356.000000) translate(-298.000000, -777.000000) " x="280" y="716" width="36" height="122"></rect>
                <rect id="Rectangle-15-Copy" fill="#4D4D4D" sketch:type="MSShapeGroup" transform="translate(387.211298, 775.892976) scale(-1, 1) rotate(-356.000000) translate(-387.211298, -775.892976) " x="369.211298" y="714.892976" width="36" height="122"></rect>
                <path d="M339.5,346 L202,346 L259,720 L339.5,720 L420,720 L477,346 L339.5,346 Z" id="Rectangle-11" fill="#868686" sketch:type="MSShapeGroup"></path>
                <path d="M339.5,402 L256,402 L290.614545,629 L339.5,629 L388.385455,629 L423,402 L339.5,402 Z" id="Rectangle-11" fill="#AEAEAE" sketch:type="MSShapeGroup"></path>
                <path d="M331.234807,866 C331.235132,865.938246 331.235294,865.876461 331.235294,865.814645 C331.235294,842.16877 307.453713,823 278.117647,823 C248.781581,823 225,842.16877 225,865.814645 C225,865.876461 225.000163,865.938246 225.000487,866 L331.234807,866 Z" id="Oval-18" fill="#ADADAD" sketch:type="MSShapeGroup"></path>
                <path d="M462.234807,864.785953 C462.235132,864.724199 462.235294,864.662414 462.235294,864.600598 C462.235294,840.954722 438.453713,821.785953 409.117647,821.785953 C379.781581,821.785953 356,840.954722 356,864.600598 C356,864.662414 356.000163,864.724199 356.000487,864.785953 L462.234807,864.785953 Z" id="Oval-18-Copy" fill="#ADADAD" sketch:type="MSShapeGroup" transform="translate(409.117647, 843.285953) scale(-1, 1) translate(-409.117647, -843.285953) "></path>
                <rect id="Rectangle-17" fill="#2B2B2B" sketch:type="MSShapeGroup" x="296" y="424" width="88" height="49"></rect>
                <rect id="Rectangle-220" fill="#F1F1F1" sketch:type="MSShapeGroup" transform="translate(580.500000, 96.000000) rotate(-344.000000) translate(-580.500000, -96.000000) " x="525" y="13" width="111" height="166"></rect>
                <g id="Rectangle-20-+-Oval-8" transform="translate(493.224163, 273.406474) rotate(-156.000000) translate(-493.224163, -273.406474) translate(439.724163, 114.906474)" sketch:type="MSShapeGroup">
                    <rect id="Rectangle-20" fill="#4A4A4A" transform="translate(36.800641, 127.746556) rotate(-280.000000) translate(-36.800641, -127.746556) " x="-89.7596161" y="113.246556" width="253.120514" height="29"></rect>
                    <path d="M56.2936469,236.765358 C58.3333376,235.83025 61.9002772,233.838636 61.9002772,233.838636 C61.9002772,233.838636 68.8466637,242.579232 70.9025775,246.416532 C73.4765275,251.22073 75.7898684,259.763128 75.7898684,259.763128 C75.7898684,259.763128 72.7096551,262.295949 70.9025775,263.38451 C66.6569703,265.942011 58.3264704,269.981976 58.3264704,269.981976 L40.1684161,244.826184 C40.1684161,244.826184 50.8496038,239.261213 56.2936469,236.765358 Z" id="Rectangle-222" fill="#D8D8D8" transform="translate(57.979142, 251.910306) rotate(-73.000000) translate(-57.979142, -251.910306) "></path>
                    <path d="M97.1178399,309.784404 C92.1331486,311.086681 86.7568397,311.796567 81.1513327,311.796567 C66.702668,311.796567 50.8211772,312.205225 42.1995539,304.784482 C35.3322179,298.873676 34.1513327,286.122023 34.1513327,277.796567 C34.1513327,268.108033 33.2111026,255.19724 42.1995543,249.004216 C50.6319305,243.194326 68.5869229,243.796567 81.1513327,243.796567 C86.7568397,243.796567 92.1331486,244.506454 97.1178399,245.808731 C74.9768102,250.536901 59.1513327,263.073933 59.1513327,277.796567 C59.1513327,292.519201 74.9768102,305.056233 97.1178399,309.784404 Z" id="Oval-8" fill="#4D4D4D" transform="translate(65.620514, 277.789700) rotate(-284.000000) translate(-65.620514, -277.789700) "></path>
                </g>
                <g id="Rectangle-20-+-Oval-8" transform="translate(175.500000, 519.000000) rotate(-44.000000) translate(-175.500000, -519.000000) translate(26.000000, 422.000000)" sketch:type="MSShapeGroup">
                    <rect id="Rectangle-20" fill="#4A4A4A" transform="translate(179.553412, 72.219182) rotate(-28.000000) translate(-179.553412, -72.219182) " x="52.9931549" y="57.7191818" width="253.120514" height="29"></rect>
                    <path d="M65.3159559,115.796193 C67.3556466,114.861084 70.9225862,112.869471 70.9225862,112.869471 C70.9225862,112.869471 77.8689728,121.610067 79.9248865,125.447366 C82.4988365,130.251564 84.8121775,138.793963 84.8121775,138.793963 C84.8121775,138.793963 81.7319641,141.326784 79.9248865,142.415345 C75.6792794,144.972846 67.3487795,149.01281 67.3487795,149.01281 L49.1907251,123.857019 C49.1907251,123.857019 59.8719128,118.292048 65.3159559,115.796193 Z" id="Rectangle-222" fill="#D8D8D8"></path>
                    <path d="M76.9946515,180.005594 C72.0099602,181.307872 66.6336512,182.017758 61.0281443,182.017758 C46.5794796,182.017758 30.6979888,182.426416 22.0763655,175.005672 C15.2090295,169.094867 14.0281443,156.343214 14.0281443,148.017758 C14.0281443,138.329224 13.0879142,125.418431 22.0763659,119.225406 C30.5087421,113.415516 48.4637345,114.017758 61.0281443,114.017758 C66.6336512,114.017758 72.0099602,114.727644 76.9946515,116.029922 C54.8536218,120.758092 39.0281443,133.295124 39.0281443,148.017758 C39.0281443,162.740392 54.8536218,175.277424 76.9946515,180.005594 Z" id="Oval-8" fill="#4D4D4D" transform="translate(45.497326, 148.010890) scale(-1, 1) rotate(-328.000000) translate(-45.497326, -148.010890) "></path>
                </g>
                <path d="M202,345 L477,345 L492,768 L186,768 L202,345 Z" id="Rectangle-217" fill="#4A4A4A" sketch:type="MSShapeGroup"></path>
                <polygon id="Triangle-193" fill="#D8D8D8" sketch:type="MSShapeGroup" transform="translate(339.500000, 369.000000) scale(1, -1) translate(-339.500000, -369.000000) " points="339.5 345 394 393 285 393 "></polygon>
                <rect id="Rectangle-218" fill="#D8D8D8" sketch:type="MSShapeGroup" transform="translate(360.228527, 397.026507) rotate(-23.000000) translate(-360.228527, -397.026507) " x="349.878527" y="350.807546" width="20.7000008" height="92.437921"></rect>
                <rect id="Rectangle-218" fill="#D8D8D8" sketch:type="MSShapeGroup" transform="translate(319.185894, 398.218961) scale(-1, 1) rotate(-23.000000) translate(-319.185894, -398.218961) " x="308.835893" y="352.401828" width="20.7000008" height="91.6342658"></rect>
                <g id="Robot-Head" transform="translate(203.000000, 50.000000)" sketch:type="MSShapeGroup">
                    <rect id="Rectangle-7" fill="#9B9B9B" x="33" y="96" width="207" height="207"></rect>
                    <path d="M94.5,260.5 L178.5,260.5" id="Line" stroke="#000000" stroke-width="11" stroke-linecap="square"></path>
                    <rect id="Rectangle-8" fill="#4C4C4C" x="100" y="48" width="74" height="48"></rect>
                    <path d="M246.5,182.5 L273,0" id="Line" stroke="#2B2B2B" stroke-width="10" stroke-linecap="square"></path>
                    <path d="M0.5,188.5 L27,6" id="Line-Copy" stroke="#2B2B2B" stroke-width="10" stroke-linecap="square" transform="translate(13.500000, 97.500000) scale(-1, 1) translate(-13.500000, -97.500000) "></path>
                    <path d="M240,165.001048 C240,165.001048 245.72,164.602406 249.88,179.352144 C254.04,194.101882 254.04,193.304599 249.88,208.054337 C245.72,222.804075 240,224 240,224 L240,165.001048 Z" id="Rectangle-9" fill="#4D4D4D"></path>
                    <path d="M20,165.001048 C20,165.001048 25.72,164.602406 29.88,179.352144 C34.04,194.101882 34.04,193.304599 29.88,208.054337 C25.72,222.804075 20,224 20,224 L20,165.001048 Z" id="Rectangle-9-Copy" fill="#4D4D4D" transform="translate(26.500000, 194.500000) scale(-1, 1) translate(-26.500000, -194.500000) "></path>
                    <g id="Group" transform="translate(53.000000, 141.000000)">
                        <circle id="Oval-14" fill="#000000" cx="130" cy="37" r="37"></circle>
                        <path d="M130.5,48 C136.29899,48 141,43.2989899 141,37.5 C141,31.7010101 136.29899,27 130.5,27 C124.70101,27 120,31.7010101 120,37.5 C120,43.2989899 124.70101,48 130.5,48 Z" id="Oval-15-Copy" fill="#7F0000"></path>
                        <circle id="Oval-293" fill="#FD0000" cx="130.5" cy="37.5" r="5.5"></circle>
                        <circle id="Oval-14-Copy" fill="#000000" cx="37" cy="37" r="37"></circle>
                        <path d="M37.5,48 C43.2989899,48 48,43.2989899 48,37.5 C48,31.7010101 43.2989899,27 37.5,27 C31.7010101,27 27,31.7010101 27,37.5 C27,43.2989899 31.7010101,48 37.5,48 Z" id="Oval-15-Copy" fill="#7F0000"></path>
                        <circle id="Oval-293" fill="#FD0000" cx="37.5" cy="37.5" r="5.5"></circle>
                    </g>
                </g>
                <g id="Wig-2" transform="translate(195.000000, 120.000000)" fill="#D8D8D8" sketch:type="MSShapeGroup">
                    <ellipse id="Oval-244" cx="28.5" cy="32.5" rx="28.5" ry="7.5"></ellipse>
                    <ellipse id="Oval-244-Copy" cx="28.5" cy="45.5" rx="28.5" ry="7.5"></ellipse>
                    <ellipse id="Oval-244-Copy-2" cx="28.5" cy="58.5" rx="28.5" ry="7.5"></ellipse>
                    <ellipse id="Oval-244-Copy-3" cx="28.5" cy="71.5" rx="28.5" ry="7.5"></ellipse>
                    <ellipse id="Oval-244-Copy-4" cx="28.5" cy="84.5" rx="28.5" ry="7.5"></ellipse>
                    <ellipse id="Oval-244-Copy-5" cx="28.5" cy="97.5" rx="28.5" ry="7.5"></ellipse>
                    <ellipse id="Oval-244-Copy-6" cx="28.5" cy="110.5" rx="28.5" ry="7.5"></ellipse>
                    <ellipse id="Oval-244-Copy-7" cx="28.5" cy="123.5" rx="28.5" ry="7.5"></ellipse>
                    <ellipse id="Oval-244-Copy-13" cx="28.5" cy="136.5" rx="28.5" ry="7.5"></ellipse>
                    <ellipse id="Oval-244-Copy-8" cx="260.5" cy="32.5" rx="28.5" ry="7.5"></ellipse>
                    <ellipse id="Oval-244-Copy-9" cx="260.5" cy="45.5" rx="28.5" ry="7.5"></ellipse>
                    <ellipse id="Oval-244-Copy-10" cx="260.5" cy="58.5" rx="28.5" ry="7.5"></ellipse>
                    <ellipse id="Oval-244-Copy-11" cx="260.5" cy="71.5" rx="28.5" ry="7.5"></ellipse>
                    <ellipse id="Oval-244-Copy-12" cx="260.5" cy="84.5" rx="28.5" ry="7.5"></ellipse>
                    <ellipse id="Oval-244-Copy-14" cx="260.5" cy="97.5" rx="28.5" ry="7.5"></ellipse>
                    <ellipse id="Oval-244-Copy-15" cx="260.5" cy="110.5" rx="28.5" ry="7.5"></ellipse>
                    <ellipse id="Oval-244-Copy-16" cx="260.5" cy="123.5" rx="28.5" ry="7.5"></ellipse>
                    <ellipse id="Oval-244-Copy-17" cx="260.5" cy="136.5" rx="28.5" ry="7.5"></ellipse>
                    <ellipse id="Oval-244-Copy-18" cx="57.5" cy="20.5" rx="28.5" ry="7.5"></ellipse>
                    <ellipse id="Oval-244-Copy-19" cx="101.5" cy="20.5" rx="28.5" ry="7.5"></ellipse>
                    <ellipse id="Oval-244-Copy-20" cx="145.5" cy="20.5" rx="28.5" ry="7.5"></ellipse>
                    <ellipse id="Oval-244-Copy-21" cx="189.5" cy="20.5" rx="28.5" ry="7.5"></ellipse>
                    <ellipse id="Oval-244-Copy-22" cx="233.5" cy="20.5" rx="28.5" ry="7.5"></ellipse>
                    <ellipse id="Oval-244-Copy-23" cx="212.5" cy="7.5" rx="28.5" ry="7.5"></ellipse>
                    <ellipse id="Oval-244-Copy-24" cx="166.5" cy="7.5" rx="28.5" ry="7.5"></ellipse>
                    <ellipse id="Oval-244-Copy-25" cx="120.5" cy="7.5" rx="28.5" ry="7.5"></ellipse>
                    <ellipse id="Oval-244-Copy-26" cx="74.5" cy="7.5" rx="28.5" ry="7.5"></ellipse>
                </g>
                <rect id="Rectangle-220" fill="#F1F1F1" sketch:type="MSShapeGroup" transform="translate(575.569821, 99.958941) rotate(-344.000000) translate(-575.569821, -99.958941) " x="545.927737" y="23.8915955" width="59.2841689" height="152.134691"></rect>
                <text id="gfdsgdfhfbn" sketch:type="MSTextLayer" transform="translate(583.141404, 93.338886) rotate(-344.000000) translate(-583.141404, -93.338886) " font-family="Redacted Script" font-size="20" font-weight="260" fill="#4A4A4A">
                    <tspan x="539.141404" y="41.3388858">gfdsgdfhfbn</tspan>
                    <tspan x="539.141404" y="65.3388858">gfgfsgfsns</tspan>
                    <tspan x="539.141404" y="89.3388858">fsgfngfngds</tspan>
                    <tspan x="539.141404" y="113.338886">rwhhfgrnejh</tspan>
                    <tspan x="539.141404" y="137.338886">gdhcxvfrrf</tspan>
                    <tspan x="539.141404" y="161.338886">hghghghgfdsa</tspan>
                </text>
                <circle id="Oval-19" fill-opacity="0.049999997" fill="#3C0000" sketch:type="MSShapeGroup" cx="317.5" cy="503.5" r="14.5"></circle>
                <circle id="Oval-19-Copy" fill-opacity="0.049999997" fill="#3C0000" sketch:type="MSShapeGroup" cx="317.5" cy="541.5" r="14.5"></circle>
                <circle id="Oval-19-Copy-2" fill-opacity="0.049999997" fill="#3C0000" sketch:type="MSShapeGroup" cx="317.5" cy="579.5" r="14.5"></circle>
            </g>
        </g>
    </g>
</svg>