<?xml version="1.0" encoding="UTF-8" standalone="no"?>
<svg width="2482px" height="1012px" viewBox="0 0 2482 1012" version="1.1" xmlns="http://www.w3.org/2000/svg" xmlns:xlink="http://www.w3.org/1999/xlink" xmlns:sketch="http://www.bohemiancoding.com/sketch/ns">
    <!-- Generator: Sketch 3.4.1 (15681) - http://www.bohemiancoding.com/sketch -->
    <title>Original</title>
    <desc>Created with Sketch.</desc>
    <defs></defs>
    <g id="Page-1" stroke="none" stroke-width="1" fill="none" fill-rule="evenodd" sketch:type="MSPage">
        <g id="Original" sketch:type="MSArtboardGroup">
            <g id="T-Rex-Original" sketch:type="MSLayerGroup" transform="translate(93.000000, 91.000000)">
                <path d="M417.183823,331.626074 C417.183823,331.626074 464.674947,326.853347 489.433181,326.853347 C512.841185,326.853347 561.682538,331.626074 561.682538,331.626074 L561.682538,352.080619 C561.682538,352.080619 513.072689,356.853347 489.433181,356.853347 C464.906451,356.853347 417.183823,352.080619 417.183823,352.080619 L417.183823,331.626074 Z M443.447083,652.604746 C467.169697,682.773525 495.660579,697.061118 511.833335,688.461911 C526.008088,680.925062 554.243832,668.625828 555.68146,636.006538 C556.789159,610.873237 534.634802,566.909409 523.274153,545.543136 C497.169071,496.446616 440.965323,452.471933 415.868863,465.815957 C390.772404,479.159981 384.77999,542.267993 410.885073,591.364513 C420.167418,608.822065 430.357566,635.958406 443.447083,652.604746 Z" id="Rectangle-3" fill="#8CB18E" sketch:type="MSShapeGroup" transform="translate(478.014583, 508.958438) rotate(-346.000000) translate(-478.014583, -508.958438) "></path>
                <path d="M654.45711,406.594379 C649.523675,407.896657 644.20265,408.606543 638.654783,408.606543 C612.964314,408.606543 592.138073,393.384225 592.138073,374.606543 C592.138073,355.828862 612.964314,340.606543 638.654783,340.606543 C644.20265,340.606543 649.523675,341.316429 654.45711,342.618707 C632.543752,347.346877 616.881004,359.883909 616.881004,374.606543 C616.881004,389.329177 632.543752,401.866209 654.45711,406.594379 Z" id="Oval-8" fill="#8CB18E" sketch:type="MSShapeGroup" transform="translate(623.297592, 374.606543) rotate(-346.000000) translate(-623.297592, -374.606543) "></path>
                <path d="M457.005291,579.04763 C539.600083,583.475975 552.626758,526.021269 552.626758,390.987648 C552.626758,322.702964 509.631695,288.431224 487.690746,244.071891 C466.243257,200.710215 495.020067,164.398155 450.708157,164.398155 C408.558355,164.398155 419.037116,191.159583 409.23818,229.871955 C398.196938,273.492268 369.739967,333.222652 369.739967,404.764213 C369.739967,539.797834 374.4105,574.619285 457.005291,579.04763 Z" id="Oval-6" fill="#8CB18E" sketch:type="MSShapeGroup" transform="translate(461.183363, 371.841370) rotate(-344.000000) translate(-461.183363, -371.841370) "></path>
                <path d="M495.100558,592.885558 C542.652624,597.313903 550.152435,539.859197 550.152435,404.825576 C550.152435,336.540893 525.399009,302.269153 512.767009,257.90982 C500.419106,214.548144 516.986698,178.236083 491.475127,178.236083 C467.208341,178.236083 473.241248,204.997512 467.599734,243.709884 C461.242991,287.330197 444.85954,347.060581 444.85954,418.602142 C444.85954,553.635763 447.548493,588.457214 495.100558,592.885558 Z" id="Oval-6" fill="#CAFBCC" sketch:type="MSShapeGroup" transform="translate(497.505988, 385.679298) rotate(-344.000000) translate(-497.505988, -385.679298) "></path>
                <g id="Head" transform="translate(453.290488, 0.000000)" sketch:type="MSShapeGroup">
                    <g id="Lower-Teeth" transform="translate(188.171259, 152.855936) scale(1, -1) rotate(-9.000000) translate(-188.171259, -152.855936) translate(124.334498, 137.855936)" stroke="#979797" fill="#FFFFFF">
                        <polygon id="Triangle-2" transform="translate(114.844104, 11.592293) rotate(-186.000000) translate(-114.844104, -11.592293) " points="114.844104 1.092293 125.730994 22.092293 103.957215 22.092293 "></polygon>
                        <polygon id="Triangle-2" transform="translate(96.039477, 14.592293) rotate(-189.000000) translate(-96.039477, -14.592293) " points="96.039477 4.092293 106.926366 25.092293 85.1525875 25.092293 "></polygon>
                        <polygon id="Triangle-2" transform="translate(77.234850, 16.592293) rotate(-190.000000) translate(-77.234850, -16.592293) " points="77.2348497 6.092293 88.1217392 27.092293 66.3479603 27.092293 "></polygon>
                        <polygon id="Triangle-2" transform="translate(58.894700, 17.629228) rotate(-189.000000) translate(-58.894700, -17.629228) " points="58.8947001 7.12922798 69.7815896 28.129228 48.0078107 28.129228 "></polygon>
                        <polygon id="Triangle-2" transform="translate(41.532083, 17.822597) rotate(-189.000000) translate(-41.532083, -17.822597) " points="41.5320827 7.32259742 52.4189721 28.3225974 30.6451932 28.3225974 "></polygon>
                        <polygon id="Triangle-2" transform="translate(26.254985, 17.654016) rotate(-188.000000) translate(-26.254985, -17.654016) " points="26.2549853 7.15401638 37.1418748 28.1540164 15.3680959 28.1540164 "></polygon>
                        <polygon id="Triangle-2" transform="translate(26.254985, 17.654016) rotate(-188.000000) translate(-26.254985, -17.654016) " points="26.2549853 7.15401638 37.1418748 28.1540164 15.3680959 28.1540164 "></polygon>
                        <polygon id="Triangle-2" transform="translate(12.263357, 17.776841) rotate(-186.000000) translate(-12.263357, -17.776841) " points="12.2633568 7.2768409 23.1502463 28.2768409 1.37646736 28.2768409 "></polygon>
                    </g>
                    <g id="Upper-Teeth" transform="translate(104.910026, 97.000000)" stroke="#979797" fill="#FFFFFF">
                        <polygon id="Triangle-2" transform="translate(177.196289, 15.592293) rotate(-186.000000) translate(-177.196289, -15.592293) " points="177.196289 5.092293 188.083179 26.092293 166.3094 26.092293 "></polygon>
                        <polygon id="Triangle-2" transform="translate(158.391662, 14.592293) rotate(-189.000000) translate(-158.391662, -14.592293) " points="158.391662 4.092293 169.278552 25.092293 147.504773 25.092293 "></polygon>
                        <polygon id="Triangle-2" transform="translate(139.587035, 21.592293) rotate(-190.000000) translate(-139.587035, -21.592293) " points="139.587035 11.092293 150.473924 32.092293 128.700145 32.092293 "></polygon>
                        <polygon id="Triangle-2" transform="translate(120.782408, 21.592293) rotate(-189.000000) translate(-120.782408, -21.592293) " points="120.782408 11.092293 131.669297 32.092293 109.895518 32.092293 "></polygon>
                        <polygon id="Triangle-2" transform="translate(101.977780, 27.592293) rotate(-189.000000) translate(-101.977780, -27.592293) " points="101.97778 17.092293 112.86467 38.092293 91.0908908 38.092293 "></polygon>
                        <polygon id="Triangle-2" transform="translate(82.183436, 27.592293) rotate(-188.000000) translate(-82.183436, -27.592293) " points="82.1834358 17.092293 93.0703253 38.092293 71.2965464 38.092293 "></polygon>
                        <polygon id="Triangle-2" transform="translate(46.553616, 31.592293) rotate(-190.000000) translate(-46.553616, -31.592293) " points="46.5536158 21.092293 57.4405052 42.092293 35.6667263 42.092293 "></polygon>
                        <polygon id="Triangle-2" transform="translate(62.389091, 29.592293) rotate(-189.000000) translate(-62.389091, -29.592293) " points="62.3890914 19.092293 73.2759808 40.092293 51.5022019 40.092293 "></polygon>
                        <polygon id="Triangle-2" transform="translate(29.728423, 31.592293) rotate(-189.000000) translate(-29.728423, -31.592293) " points="29.728423 21.092293 40.6153124 42.092293 18.8415335 42.092293 "></polygon>
                        <polygon id="Triangle-2" transform="translate(12.903230, 32.592293) rotate(-190.000000) translate(-12.903230, -32.592293) " points="12.9032302 22.092293 23.7901196 43.092293 2.01634072 43.092293 "></polygon>
                        <polygon id="Triangle-2" transform="translate(196.890655, 13.286298) rotate(-186.000000) translate(-196.890655, -13.286298) " points="196.890655 2.00212561 208.590611 24.5704708 185.190699 24.5704708 "></polygon>
                    </g>
                    <path d="M260.449711,177.622092 C229.179166,197.154961 188.428552,210 148.457584,210 C66.4667242,210 -5.68434189e-14,165.452333 -5.68434189e-14,110.5 C-5.68434189e-14,55.5476674 66.4667242,11 148.457584,11 C191.900072,11 262.823146,18.5741717 294.935733,36 C323.02935,51.2449429 315.929774,74.4980516 315.724259,99.9098577 L97.4589986,130.752512 L260.449719,177.622086 Z" id="Oval-1" fill="#8CB18E"></path>
                    <ellipse id="Oval-2" fill="#8CB18E" cx="100.456298" cy="41" rx="53.9395887" ry="41"></ellipse>
                    <path d="M136.906855,35.3226726 C137.068612,36.4457496 137.151772,37.5882151 137.151772,38.7463805 C137.151772,54.9229074 120.928246,68.0365734 100.915512,68.0365734 C80.9027776,68.0365734 64.6792511,54.9229074 64.6792511,38.7463805 C64.6792511,31.3936045 68.0310455,24.6736182 73.5669641,19.5302628 L136.906855,35.3226726 Z" id="Oval-3" fill="#ECECEC" transform="translate(100.915512, 43.732422) rotate(-351.000000) translate(-100.915512, -43.732422) "></path>
                    <path d="M132.036507,34.6331327 C132.147687,35.4050538 132.204845,36.1903011 132.204845,36.9863394 C132.204845,48.1049023 121.053978,57.1182785 107.298686,57.1182785 C93.5433948,57.1182785 82.3925278,48.1049023 82.3925278,36.9863394 C82.3925278,31.9325783 84.6963064,27.3137505 88.5012924,23.7785838 L132.036507,34.6331327 Z" id="Oval-3" fill="#454545" transform="translate(107.298686, 40.413380) rotate(-351.000000) translate(-107.298686, -40.413380) "></path>
                    <ellipse id="Oval-5" fill="#4A4A4A" transform="translate(270.806069, 66.068495) rotate(-58.000000) translate(-270.806069, -66.068495) " cx="270.806069" cy="66.068495" rx="7.42287918" ry="16.5"></ellipse>
                </g>
                <path d="M242.648925,551.39379 C304.525049,523.946603 354.75724,417 354.75724,417 L403.804627,604.64416 C403.804627,604.64416 53.4661447,635.072942 6.75434599,624.930015 C-39.9574527,614.787087 168.282306,584.381546 242.648925,551.39379 Z" id="Triangle-21" fill="#8CB18E" sketch:type="MSShapeGroup"></path>
                <path d="M447.352185,301.772727 C447.352185,301.772727 494.843309,297 519.601542,297 C543.009547,297 591.8509,301.772727 591.8509,301.772727 L591.8509,322.227273 C591.8509,322.227273 543.241051,327 519.601542,327 C495.074812,327 447.352185,322.227273 447.352185,322.227273 L447.352185,301.772727 Z" id="Rectangle-3" fill="#8CB18E" sketch:type="MSShapeGroup" transform="translate(519.601542, 312.000000) rotate(-12.000000) translate(-519.601542, -312.000000) "></path>
                <path d="M644.649859,323.790591 C639.716424,325.092869 634.395399,325.802755 628.847532,325.802755 C603.157063,325.802755 582.330822,310.580436 582.330822,291.802755 C582.330822,273.025073 603.157063,257.802755 628.847532,257.802755 C634.395399,257.802755 639.716424,258.512641 644.649859,259.814919 C622.736501,264.543089 607.073753,277.080121 607.073753,291.802755 C607.073753,306.525389 622.736501,319.062421 644.649859,323.790591 Z" id="Oval-8" fill="#8CB18E" sketch:type="MSShapeGroup" transform="translate(613.490341, 291.802755) rotate(-12.000000) translate(-613.490341, -291.802755) "></path>
                <path d="M336.317764,632.058061 C343.100206,669.832605 361.548543,695.82346 379.865322,695.82346 C395.919222,695.82346 426.624045,698.21976 443.207224,670.093562 C455.984634,648.422208 457.063266,599.203611 457.063266,575.00481 C457.063266,519.399562 428.083165,454.18616 399.659667,454.18616 C371.236169,454.18616 336.317764,507.093959 336.317764,562.699207 C336.317764,582.471108 332.575391,611.21506 336.317764,632.058061 Z" id="Oval-12" fill="#8CB18E" sketch:type="MSShapeGroup" transform="translate(395.858876, 575.030206) rotate(-351.000000) translate(-395.858876, -575.030206) "></path>
                <path d="M363.50122,687.08108 C363.50122,687.08108 473.16808,685.413595 489.511439,701.878304 C505.854799,718.343013 429.712208,753.783687 429.712208,753.783687 C429.712208,753.783687 361.07159,769.756006 337.113226,753.783683 C313.154862,737.811361 363.50122,687.08108 363.50122,687.08108 Z" id="Rectangle-5" fill="#8CB18E" sketch:type="MSShapeGroup" transform="translate(411.229552, 723.958133) rotate(-339.000000) translate(-411.229552, -723.958133) "></path>
                <path d="M500.161865,659.125018 C500.161865,659.125018 577.899349,649.704052 587.203106,665.378566 C596.506863,681.053081 534.25215,716.558661 534.25215,716.558661 C534.25215,716.558661 493.664139,738.443047 469.882659,722.588648 C446.101179,706.734248 500.161865,659.125018 500.161865,659.125018 Z" id="Rectangle-5" fill="#8CB18E" sketch:type="MSShapeGroup" transform="translate(525.994286, 692.334790) rotate(-339.000000) translate(-525.994286, -692.334790) "></path>
                <path d="M454.836891,720.974618 C466.374375,718.273524 482.851538,721.485173 495.415297,725.974618 C509.903808,731.15184 514.219924,747.974618 514.219924,747.974618 C514.219924,747.974618 494.461791,735.474618 478.590104,735.474618 C467.40952,735.474618 461.779199,739.712506 454.836891,735.474618 C447.894583,731.236729 443.299407,723.675712 454.836891,720.974618 Z" id="Triangle-22" fill="#D8D8D8" sketch:type="MSShapeGroup" transform="translate(481.011436, 733.979723) rotate(-353.000000) translate(-481.011436, -733.979723) "></path>
                <path d="M521.261968,697.243148 C531.233713,694.908616 545.474777,697.684416 556.333522,701.564603 C568.855812,706.03923 572.586193,720.579006 572.586193,720.579006 C572.586193,720.579006 555.509414,709.775368 541.791658,709.775368 C532.128379,709.775368 527.262143,713.438137 521.261968,709.775368 C515.261793,706.112599 511.290224,699.577679 521.261968,697.243148 Z" id="Triangle-22" fill="#D8D8D8" sketch:type="MSShapeGroup" transform="translate(543.884393, 708.483344) rotate(-351.000000) translate(-543.884393, -708.483344) "></path>
                <path d="M416.072385,735.178999 C427.609869,732.477905 444.087032,735.689554 456.650791,740.178999 C471.139303,745.356221 475.455419,762.178999 475.455419,762.178999 C475.455419,762.178999 455.697285,749.678999 439.825599,749.678999 C428.645014,749.678999 423.014693,753.916887 416.072385,749.678999 C409.130077,745.44111 404.534901,737.880093 416.072385,735.178999 Z" id="Triangle-22" fill="#D8D8D8" sketch:type="MSShapeGroup" transform="translate(442.246930, 748.184104) rotate(-347.000000) translate(-442.246930, -748.184104) "></path>
                <path d="M554.382716,682.855466 C564.354461,680.520934 578.595525,683.296734 589.45427,687.176921 C601.97656,691.651548 605.706941,706.191325 605.706941,706.191325 C605.706941,706.191325 588.630162,695.387686 574.912406,695.387686 C565.249127,695.387686 560.382891,699.050455 554.382716,695.387686 C548.382541,691.724917 544.410972,685.189998 554.382716,682.855466 Z" id="Triangle-22" fill="#D8D8D8" sketch:type="MSShapeGroup" transform="translate(577.005141, 694.095662) rotate(-352.000000) translate(-577.005141, -694.095662) "></path>
            </g>
            <g id="Robot-Original" sketch:type="MSLayerGroup" transform="translate(1499.000000, 45.000000)">
                <rect id="Rectangle-20" fill="#4D4D4D" sketch:type="MSShapeGroup" transform="translate(179.553412, 392.219182) rotate(-28.000000) translate(-179.553412, -392.219182) " x="52.9931549" y="377.719182" width="253.120514" height="29"></rect>
                <rect id="Rectangle-20" fill="#4D4D4D" sketch:type="MSShapeGroup" transform="translate(523.800641, 446.746556) rotate(-280.000000) translate(-523.800641, -446.746556) " x="397.240384" y="432.246556" width="253.120514" height="29"></rect>
                <rect id="Rectangle-15" fill="#4D4D4D" sketch:type="MSShapeGroup" transform="translate(340.000000, 727.000000) rotate(-356.000000) translate(-340.000000, -727.000000) " x="322" y="666" width="36" height="122"></rect>
                <rect id="Rectangle-15-Copy" fill="#4D4D4D" sketch:type="MSShapeGroup" transform="translate(429.211298, 725.892976) scale(-1, 1) rotate(-356.000000) translate(-429.211298, -725.892976) " x="411.211298" y="664.892976" width="36" height="122"></rect>
                <path d="M381.5,296 L244,296 L301,670 L381.5,670 L462,670 L519,296 L381.5,296 Z" id="Rectangle-11" fill="#868686" sketch:type="MSShapeGroup"></path>
                <path d="M381.5,352 L298,352 L332.614545,579 L381.5,579 L430.385455,579 L465,352 L381.5,352 Z" id="Rectangle-11" fill="#AEAEAE" sketch:type="MSShapeGroup"></path>
                <path d="M373.234807,816 C373.235132,815.938246 373.235294,815.876461 373.235294,815.814645 C373.235294,792.16877 349.453713,773 320.117647,773 C290.781581,773 267,792.16877 267,815.814645 C267,815.876461 267.000163,815.938246 267.000487,816 L373.234807,816 Z" id="Oval-18" fill="#ADADAD" sketch:type="MSShapeGroup"></path>
                <path d="M504.234807,814.785953 C504.235132,814.724199 504.235294,814.662414 504.235294,814.600598 C504.235294,790.954722 480.453713,771.785953 451.117647,771.785953 C421.781581,771.785953 398,790.954722 398,814.600598 C398,814.662414 398.000163,814.724199 398.000487,814.785953 L504.234807,814.785953 Z" id="Oval-18-Copy" fill="#ADADAD" sketch:type="MSShapeGroup" transform="translate(451.117647, 793.285953) scale(-1, 1) translate(-451.117647, -793.285953) "></path>
                <circle id="Oval-19" fill="#3C0000" sketch:type="MSShapeGroup" cx="359.5" cy="453.5" r="14.5"></circle>
                <circle id="Oval-19-Copy" fill="#3C0000" sketch:type="MSShapeGroup" cx="359.5" cy="491.5" r="14.5"></circle>
                <circle id="Oval-19-Copy-2" fill="#3C0000" sketch:type="MSShapeGroup" cx="359.5" cy="529.5" r="14.5"></circle>
                <rect id="Rectangle-17" fill="#2B2B2B" sketch:type="MSShapeGroup" x="338" y="374" width="88" height="49"></rect>
                <path d="M584.11784,628.784404 C579.133149,630.086681 573.75684,630.796567 568.151333,630.796567 C553.702668,630.796567 537.821177,631.205225 529.199554,623.784482 C522.332218,617.873676 521.151333,605.122023 521.151333,596.796567 C521.151333,587.108033 520.211103,574.19724 529.199554,568.004216 C537.631931,562.194326 555.586923,562.796567 568.151333,562.796567 C573.75684,562.796567 579.133149,563.506454 584.11784,564.808731 C561.97681,569.536901 546.151333,582.073933 546.151333,596.796567 C546.151333,611.519201 561.97681,624.056233 584.11784,628.784404 Z" id="Oval-8" fill="#4D4D4D" sketch:type="MSShapeGroup" transform="translate(552.620514, 596.789700) rotate(-284.000000) translate(-552.620514, -596.789700) "></path>
                <path d="M76.9946515,500.005594 C72.0099602,501.307872 66.6336512,502.017758 61.0281443,502.017758 C46.5794796,502.017758 30.6979888,502.426416 22.0763655,495.005672 C15.2090295,489.094867 14.0281443,476.343214 14.0281443,468.017758 C14.0281443,458.329224 13.0879142,445.418431 22.0763659,439.225406 C30.5087421,433.415516 48.4637345,434.017758 61.0281443,434.017758 C66.6336512,434.017758 72.0099602,434.727644 76.9946515,436.029922 C54.8536218,440.758092 39.0281443,453.295124 39.0281443,468.017758 C39.0281443,482.740392 54.8536218,495.277424 76.9946515,500.005594 Z" id="Oval-8" fill="#4D4D4D" sketch:type="MSShapeGroup" transform="translate(45.497326, 468.010890) scale(-1, 1) rotate(-328.000000) translate(-45.497326, -468.010890) "></path>
                <g id="Robot-Head" transform="translate(245.000000, 0.000000)" sketch:type="MSShapeGroup">
                    <rect id="Rectangle-7" fill="#9B9B9B" x="33" y="96" width="207" height="207"></rect>
                    <circle id="Oval-14" fill="#000000" cx="183" cy="178" r="37"></circle>
                    <circle id="Oval-14-Copy" fill="#000000" cx="90" cy="178" r="37"></circle>
                    <path d="M94.5,260.5 L178.5,260.5" id="Line" stroke="#000000" stroke-width="11" stroke-linecap="square"></path>
                    <rect id="Rectangle-8" fill="#4C4C4C" x="100" y="48" width="74" height="48"></rect>
                    <path d="M246.5,182.5 L273,0" id="Line" stroke="#2B2B2B" stroke-width="10" stroke-linecap="square"></path>
                    <path d="M0.5,188.5 L27,6" id="Line-Copy" stroke="#2B2B2B" stroke-width="10" stroke-linecap="square" transform="translate(13.500000, 97.500000) scale(-1, 1) translate(-13.500000, -97.500000) "></path>
                    <path d="M240,165.001048 C240,165.001048 245.72,164.602406 249.88,179.352144 C254.04,194.101882 254.04,193.304599 249.88,208.054337 C245.72,222.804075 240,224 240,224 L240,165.001048 Z" id="Rectangle-9" fill="#4D4D4D"></path>
                    <path d="M20,165.001048 C20,165.001048 25.72,164.602406 29.88,179.352144 C34.04,194.101882 34.04,193.304599 29.88,208.054337 C25.72,222.804075 20,224 20,224 L20,165.001048 Z" id="Rectangle-9-Copy" fill="#4D4D4D" transform="translate(26.500000, 194.500000) scale(-1, 1) translate(-26.500000, -194.500000) "></path>
                    <g id="Group" transform="translate(80.000000, 168.000000)">
                        <path d="M103.5,21 C109.29899,21 114,16.2989899 114,10.5 C114,4.70101013 109.29899,0 103.5,0 C97.7010101,0 93,4.70101013 93,10.5 C93,16.2989899 97.7010101,21 103.5,21 Z" id="Oval-15-Copy" fill="#7F0000"></path>
                        <circle id="Oval-293" fill="#FD0000" cx="103.5" cy="10.5" r="5.5"></circle>
                        <path d="M10.5,21 C16.2989899,21 21,16.2989899 21,10.5 C21,4.70101013 16.2989899,0 10.5,0 C4.70101013,0 0,4.70101013 0,10.5 C0,16.2989899 4.70101013,21 10.5,21 Z" id="Oval-15-Copy" fill="#7F0000"></path>
                        <circle id="Oval-293" fill="#FD0000" cx="10.5" cy="10.5" r="5.5"></circle>
                    </g>
                </g>
            </g>
        </g>
    </g>
</svg>