<?xml version="1.0" encoding="UTF-8" standalone="no"?>
<svg width="2196px" height="894px" viewBox="0 0 2196 894" version="1.1" xmlns="http://www.w3.org/2000/svg" xmlns:xlink="http://www.w3.org/1999/xlink" xmlns:sketch="http://www.bohemiancoding.com/sketch/ns">
    <!-- Generator: Sketch 3.4.1 (15681) - http://www.bohemiancoding.com/sketch -->
    <title>Politician</title>
    <desc>Created with Sketch.</desc>
    <defs></defs>
    <g id="Page-1" stroke="none" stroke-width="1" fill="none" fill-rule="evenodd" sketch:type="MSPage">
        <g id="Politician" sketch:type="MSArtboardGroup">
            <g id="T-Rex-Politician" sketch:type="MSLayerGroup" transform="translate(24.000000, 77.000000)">
                <path d="M421.518201,331.626074 C421.518201,331.626074 469.502739,326.853347 494.518201,326.853347 C518.169405,326.853347 567.518201,331.626074 567.518201,331.626074 L567.518201,352.080619 C567.518201,352.080619 518.403314,356.853347 494.518201,356.853347 C469.736648,356.853347 421.518201,352.080619 421.518201,352.080619 L421.518201,331.626074 Z M447.776164,652.895165 C471.560998,683.030862 500.221115,697.228471 516.5619,688.539922 C530.883922,680.924767 559.401337,668.475767 560.991091,635.775591 C562.216002,610.579966 540.071541,566.610877 528.710892,545.244604 C502.605809,496.148084 446.136213,452.314755 420.779011,465.797419 C395.42181,479.280082 389.109072,542.558412 415.214155,591.654932 C424.4965,609.112484 434.652318,636.267079 447.776164,652.895165 Z" id="Rectangle-3" fill="#8CB18E" sketch:type="MSShapeGroup" transform="translate(482.980968, 508.958438) rotate(-346.000000) translate(-482.980968, -508.958438) "></path>
                <path d="M661.256664,406.594379 C656.271973,407.896657 650.895664,408.606543 645.290157,408.606543 C619.332774,408.606543 598.290157,393.384225 598.290157,374.606543 C598.290157,355.828862 619.332774,340.606543 645.290157,340.606543 C650.895664,340.606543 656.271973,341.316429 661.256664,342.618707 C639.115635,347.346877 623.290157,359.883909 623.290157,374.606543 C623.290157,389.329177 639.115635,401.866209 661.256664,406.594379 Z" id="Oval-8" fill="#8CB18E" sketch:type="MSShapeGroup" transform="translate(629.773411, 374.606543) rotate(-346.000000) translate(-629.773411, -374.606543) "></path>
                <path d="M461.753398,579.04763 C545.206317,583.475975 558.368335,526.021269 558.368335,390.987648 C558.368335,322.702964 514.92657,288.431224 492.757663,244.071891 C471.087343,200.710215 500.163133,164.398155 455.390839,164.398155 C412.803117,164.398155 423.390748,191.159583 413.490005,229.871955 C402.334049,273.492268 373.581421,333.222652 373.581421,404.764213 C373.581421,539.797834 378.300479,574.619285 461.753398,579.04763 Z" id="Oval-6" fill="#8CB18E" sketch:type="MSShapeGroup" transform="translate(465.974878, 371.841370) rotate(-344.000000) translate(-465.974878, -371.841370) "></path>
                <path d="M500.24446,592.885558 C548.290573,597.313903 555.868305,539.859197 555.868305,404.825576 C555.868305,336.540893 530.8577,302.269153 518.094458,257.90982 C505.618266,214.548144 522.357988,178.236083 496.581362,178.236083 C472.062454,178.236083 478.15804,204.997512 472.457913,243.709884 C466.035126,287.330197 449.481457,347.060581 449.481457,418.602142 C449.481457,553.635763 452.198347,588.457214 500.24446,592.885558 Z" id="Oval-6" fill="#CAFBCC" sketch:type="MSShapeGroup" transform="translate(502.674881, 385.679298) rotate(-344.000000) translate(-502.674881, -385.679298) "></path>
                <g id="Head" transform="translate(458.000000, 0.000000)" sketch:type="MSShapeGroup">
                    <g id="Lower-Teeth" transform="translate(190.126285, 152.855936) scale(1, -1) rotate(-9.000000) translate(-190.126285, -152.855936) translate(125.626285, 137.855936)" stroke="#979797" fill="#FFFFFF">
                        <polygon id="Triangle-2" transform="translate(116.037290, 11.592293) rotate(-186.000000) translate(-116.037290, -11.592293) " points="116.03729 1.092293 127.03729 22.092293 105.03729 22.092293 "></polygon>
                        <polygon id="Triangle-2" transform="translate(97.037290, 14.592293) rotate(-189.000000) translate(-97.037290, -14.592293) " points="97.0372897 4.092293 108.03729 25.092293 86.0372897 25.092293 "></polygon>
                        <polygon id="Triangle-2" transform="translate(78.037290, 16.592293) rotate(-190.000000) translate(-78.037290, -16.592293) " points="78.0372897 6.092293 89.0372897 27.092293 67.0372897 27.092293 "></polygon>
                        <polygon id="Triangle-2" transform="translate(59.506593, 17.629228) rotate(-189.000000) translate(-59.506593, -17.629228) " points="59.5065931 7.12922798 70.5065931 28.129228 48.5065931 28.129228 "></polygon>
                        <polygon id="Triangle-2" transform="translate(41.963585, 17.822597) rotate(-189.000000) translate(-41.963585, -17.822597) " points="41.9635848 7.32259742 52.9635848 28.3225974 30.9635848 28.3225974 "></polygon>
                        <polygon id="Triangle-2" transform="translate(26.527764, 17.654016) rotate(-188.000000) translate(-26.527764, -17.654016) " points="26.5277644 7.15401638 37.5277644 28.1540164 15.5277644 28.1540164 "></polygon>
                        <polygon id="Triangle-2" transform="translate(26.527764, 17.654016) rotate(-188.000000) translate(-26.527764, -17.654016) " points="26.5277644 7.15401638 37.5277644 28.1540164 15.5277644 28.1540164 "></polygon>
                        <polygon id="Triangle-2" transform="translate(12.390768, 17.776841) rotate(-186.000000) translate(-12.390768, -17.776841) " points="12.3907683 7.2768409 23.3907683 28.2768409 1.39076832 28.2768409 "></polygon>
                    </g>
                    <g id="Upper-Teeth" transform="translate(106.000000, 97.000000)" stroke="#979797" fill="#FFFFFF">
                        <polygon id="Triangle-2" transform="translate(179.037290, 15.592293) rotate(-186.000000) translate(-179.037290, -15.592293) " points="179.03729 5.092293 190.03729 26.092293 168.03729 26.092293 "></polygon>
                        <polygon id="Triangle-2" transform="translate(160.037290, 14.592293) rotate(-189.000000) translate(-160.037290, -14.592293) " points="160.03729 4.092293 171.03729 25.092293 149.03729 25.092293 "></polygon>
                        <polygon id="Triangle-2" transform="translate(141.037290, 21.592293) rotate(-190.000000) translate(-141.037290, -21.592293) " points="141.03729 11.092293 152.03729 32.092293 130.03729 32.092293 "></polygon>
                        <polygon id="Triangle-2" transform="translate(122.037290, 21.592293) rotate(-189.000000) translate(-122.037290, -21.592293) " points="122.03729 11.092293 133.03729 32.092293 111.03729 32.092293 "></polygon>
                        <polygon id="Triangle-2" transform="translate(103.037290, 27.592293) rotate(-189.000000) translate(-103.037290, -27.592293) " points="103.03729 17.092293 114.03729 38.092293 92.0372897 38.092293 "></polygon>
                        <polygon id="Triangle-2" transform="translate(83.037290, 27.592293) rotate(-188.000000) translate(-83.037290, -27.592293) " points="83.0372897 17.092293 94.0372897 38.092293 72.0372897 38.092293 "></polygon>
                        <polygon id="Triangle-2" transform="translate(47.037290, 31.592293) rotate(-190.000000) translate(-47.037290, -31.592293) " points="47.0372897 21.092293 58.0372897 42.092293 36.0372897 42.092293 "></polygon>
                        <polygon id="Triangle-2" transform="translate(63.037290, 29.592293) rotate(-189.000000) translate(-63.037290, -29.592293) " points="63.0372897 19.092293 74.0372897 40.092293 52.0372897 40.092293 "></polygon>
                        <polygon id="Triangle-2" transform="translate(30.037290, 31.592293) rotate(-189.000000) translate(-30.037290, -31.592293) " points="30.0372897 21.092293 41.0372897 42.092293 19.0372897 42.092293 "></polygon>
                        <polygon id="Triangle-2" transform="translate(13.037290, 32.592293) rotate(-190.000000) translate(-13.037290, -32.592293) " points="13.0372897 22.092293 24.0372897 43.092293 2.03728971 43.092293 "></polygon>
                        <polygon id="Triangle-2" transform="translate(198.936272, 13.286298) rotate(-186.000000) translate(-198.936272, -13.286298) " points="198.936272 2.00212561 210.757786 24.5704708 187.114758 24.5704708 "></polygon>
                    </g>
                    <path d="M262.785172,177.850571 C231.23875,197.255067 190.228572,210 150,210 C67.1572875,210 -5.68434189e-14,165.452333 -5.68434189e-14,110.5 C-5.68434189e-14,55.5476674 67.1572875,11 150,11 C193.893839,11 265.553776,18.5741717 298,36 C326.185765,51.1376717 319.311351,74.1712067 319.009914,99.3737492 L100.297132,130.752512 L262.78518,177.850566 Z" id="Oval-1" fill="#8CB18E"></path>
                    <ellipse id="Oval-2" fill="#8CB18E" cx="101.5" cy="41" rx="54.5" ry="41"></ellipse>
                    <path d="M138.334414,35.3582562 C138.494467,36.4698789 138.576726,37.6004446 138.576726,38.7463805 C138.576726,54.9229074 122.184643,68.0365734 101.963985,68.0365734 C81.7433259,68.0365734 65.3512434,54.9229074 65.3512434,38.7463805 C65.3512434,31.3449037 68.7828724,24.5846268 74.44273,19.4282701 L138.334414,35.3582562 Z" id="Oval-3" fill="#ECECEC" transform="translate(101.963985, 43.732422) rotate(-351.000000) translate(-101.963985, -43.732422) "></path>
                    <path d="M133.411855,34.6575903 C133.521863,35.4216385 133.578402,36.1987068 133.578402,36.9863394 C133.578402,48.1049023 122.311682,57.1182785 108.413478,57.1182785 C94.5152742,57.1182785 83.248554,48.1049023 83.248554,36.9863394 C83.248554,31.8991049 85.6072052,27.2525843 89.4973779,23.7084815 L133.411855,34.6575903 Z" id="Oval-3" fill="#454545" transform="translate(108.413478, 40.413380) rotate(-351.000000) translate(-108.413478, -40.413380) "></path>
                    <ellipse id="Oval-5" fill="#4A4A4A" transform="translate(273.619638, 66.068495) rotate(-58.000000) translate(-273.619638, -66.068495) " cx="273.619638" cy="66.068495" rx="7.5" ry="16.5"></ellipse>
                </g>
                <path d="M245.169953,551.39379 C307.688946,523.946603 358.443029,417 358.443029,417 L408,604.64416 C408,604.64416 54.0216371,635.072942 6.82452101,624.930015 C-40.3725951,614.787087 170.030693,584.381546 245.169953,551.39379 Z" id="Triangle-21" fill="#8CB18E" sketch:type="MSShapeGroup"></path>
                <path d="M351.382678,247.167598 C351.382678,247.167598 399.367216,242.394871 424.382678,242.394871 C448.033882,242.394871 497.382678,247.167598 497.382678,247.167598 L497.382678,267.622144 C497.382678,267.622144 448.267791,272.394871 424.382678,272.394871 C399.601125,272.394871 351.382678,267.622144 351.382678,267.622144 L351.382678,247.167598 Z" id="Rectangle-3" fill="#8CB18E" sketch:type="MSShapeGroup" transform="translate(424.382678, 257.394871) rotate(-105.000000) translate(-424.382678, -257.394871) "></path>
                <path d="M431.561291,192.638494 C426.5766,193.940771 421.200291,194.650658 415.594784,194.650658 C389.637401,194.650658 368.594784,179.428339 368.594784,160.650658 C368.594784,141.872976 389.637401,126.650658 415.594784,126.650658 C421.200291,126.650658 426.5766,127.360544 431.561291,128.662822 C409.420262,133.390992 393.594784,145.928024 393.594784,160.650658 C393.594784,175.373292 409.420262,187.910324 431.561291,192.638494 Z" id="Oval-8" fill="#8CB18E" sketch:type="MSShapeGroup" transform="translate(400.078038, 160.650658) rotate(-92.000000) translate(-400.078038, -160.650658) "></path>
                <path d="M339.811975,632.058061 C346.664884,669.832605 365.304891,695.82346 383.811975,695.82346 C400.032669,695.82346 431.056503,698.21976 447.811975,670.093562 C460.722137,648.422208 461.811975,599.203611 461.811975,575.00481 C461.811975,519.399562 432.530782,454.18616 403.811975,454.18616 C375.093168,454.18616 339.811975,507.093959 339.811975,562.699207 C339.811975,582.471108 336.03072,611.21506 339.811975,632.058061 Z" id="Oval-12" fill="#8CB18E" sketch:type="MSShapeGroup" transform="translate(399.971696, 575.030206) rotate(-351.000000) translate(-399.971696, -575.030206) "></path>
                <path d="M367.277856,687.08108 C367.277856,687.08108 478.084112,685.413595 494.597273,701.878304 C511.110433,718.343013 434.176751,753.783687 434.176751,753.783687 C434.176751,753.783687 364.822983,769.756006 340.615701,753.783683 C316.408419,737.811361 367.277856,687.08108 367.277856,687.08108 Z" id="Rectangle-5" fill="#8CB18E" sketch:type="MSShapeGroup" transform="translate(415.502067, 723.958133) rotate(-339.000000) translate(-415.502067, -723.958133) "></path>
                <path d="M505.358352,659.125018 C505.358352,659.125018 583.903498,649.704052 593.303917,665.378566 C602.704337,681.053081 539.802822,716.558661 539.802822,716.558661 C539.802822,716.558661 498.793117,738.443047 474.764557,722.588648 C450.735996,706.734248 505.358352,659.125018 505.358352,659.125018 Z" id="Rectangle-5" fill="#8CB18E" sketch:type="MSShapeGroup" transform="translate(531.459161, 692.334790) rotate(-339.000000) translate(-531.459161, -692.334790) "></path>
                <path d="M459.562469,720.974618 C471.219823,718.273524 487.868177,721.485173 500.562469,725.974618 C515.20151,731.15184 519.562469,747.974618 519.562469,747.974618 C519.562469,747.974618 499.599056,735.474618 483.562469,735.474618 C472.265723,735.474618 466.576905,739.712506 459.562469,735.474618 C452.548033,731.236729 447.905115,723.675712 459.562469,720.974618 Z" id="Triangle-22" fill="#D8D8D8" sketch:type="MSShapeGroup" transform="translate(486.008957, 733.979723) rotate(-353.000000) translate(-486.008957, -733.979723) "></path>
                <path d="M526.677677,697.243148 C536.753024,694.908616 551.142047,697.684416 562.11361,701.564603 C574.766003,706.03923 578.53514,720.579006 578.53514,720.579006 C578.53514,720.579006 561.280941,709.775368 547.420662,709.775368 C537.656985,709.775368 532.740191,713.438137 526.677677,709.775368 C520.615163,706.112599 516.60233,699.577679 526.677677,697.243148 Z" id="Triangle-22" fill="#D8D8D8" sketch:type="MSShapeGroup" transform="translate(549.535140, 708.483344) rotate(-351.000000) translate(-549.535140, -708.483344) "></path>
                <path d="M420.395215,735.178999 C432.052569,732.477905 448.700923,735.689554 461.395215,740.178999 C476.034257,745.356221 480.395215,762.178999 480.395215,762.178999 C480.395215,762.178999 460.431802,749.678999 444.395215,749.678999 C433.098469,749.678999 427.409651,753.916887 420.395215,749.678999 C413.380779,745.44111 408.737861,737.880093 420.395215,735.178999 Z" id="Triangle-22" fill="#D8D8D8" sketch:type="MSShapeGroup" transform="translate(446.841704, 748.184104) rotate(-347.000000) translate(-446.841704, -748.184104) "></path>
                <path d="M560.142537,682.855466 C570.217884,680.520934 584.606907,683.296734 595.57847,687.176921 C608.230862,691.651548 612,706.191325 612,706.191325 C612,706.191325 594.745801,695.387686 580.885522,695.387686 C571.121845,695.387686 566.205051,699.050455 560.142537,695.387686 C554.080022,691.724917 550.06719,685.189998 560.142537,682.855466 Z" id="Triangle-22" fill="#D8D8D8" sketch:type="MSShapeGroup" transform="translate(583.000000, 694.095662) rotate(-352.000000) translate(-583.000000, -694.095662) "></path>
                <circle id="Oval-50" stroke="#979797" fill="#EEDBDB" sketch:type="MSShapeGroup" cx="483" cy="178" r="9"></circle>
                <circle id="Oval-50-Copy" stroke="#979797" fill="#EEDBDB" sketch:type="MSShapeGroup" cx="497" cy="193" r="9"></circle>
                <circle id="Oval-50-Copy-2" stroke="#979797" fill="#EEDBDB" sketch:type="MSShapeGroup" cx="514" cy="207" r="9"></circle>
                <circle id="Oval-50-Copy-3" stroke="#979797" fill="#EEDBDB" sketch:type="MSShapeGroup" cx="534" cy="219" r="9"></circle>
                <circle id="Oval-50-Copy-4" stroke="#979797" fill="#EEDBDB" sketch:type="MSShapeGroup" cx="556" cy="222" r="9"></circle>
                <circle id="Oval-50-Copy-5" stroke="#979797" fill="#EEDBDB" sketch:type="MSShapeGroup" cx="499" cy="82" r="9"></circle>
                <g id="Button" transform="translate(483.321082, 274.234389) rotate(-16.000000) translate(-483.321082, -274.234389) translate(445.821082, 236.734389)">
                    <circle id="Oval-56" fill="#FFFFFF" sketch:type="MSShapeGroup" cx="37.2625181" cy="37.2625181" r="37.2625181"></circle>
                    <path d="M72.2844199,74.8416787 C67.169066,60.3690114 53.3665442,50 37.1422099,50 C20.9178757,50 7.11535387,60.3690114 2,74.8416787 L72.2844199,74.8416787 Z" id="Oval-56" fill="#34347D" sketch:type="MSShapeGroup" transform="translate(37.142210, 62.420839) scale(1, -1) translate(-37.142210, -62.420839) "></path>
                    <path d="M72.2844199,24.8416787 C67.169066,10.3690114 53.3665442,1.13686838e-13 37.1422099,1.13686838e-13 C20.9178757,1.13686838e-13 7.11535387,10.3690114 2,24.8416787 L72.2844199,24.8416787 Z" id="Oval-56" fill="#D94545" sketch:type="MSShapeGroup"></path>
                    <text id="DINOSAUR" sketch:type="MSTextLayer" font-family="Lato" font-size="11.767111" font-weight="686" fill="#34357D">
                        <tspan x="5" y="41">DINOSAUR</tspan>
                    </text>
                    <text id="Vote" sketch:type="MSTextLayer" font-family="Lato" font-size="16.3023517" font-weight="260" fill="#FFFFFF">
                        <tspan x="20" y="19">Vote</tspan>
                    </text>
                    <text id="2016" sketch:type="MSTextLayer" font-family="Lato" font-size="15.6894813" font-weight="686" fill="#FFFFFF">
                        <tspan x="19" y="66">2016</tspan>
                    </text>
                </g>
                <g id="Podium-2" transform="translate(695.000000, 322.000000)" sketch:type="MSShapeGroup">
                    <path d="M21,113 L101,113 L86,436 L21,436 L21,113 Z" id="Rectangle-67" fill="#6B2C08" transform="translate(61.000000, 274.500000) scale(-1, 1) translate(-61.000000, -274.500000) "></path>
                    <path d="M94,113 L174,113 L159,436 L94,436 L94,113 Z" id="Rectangle-67" fill="#6B2C08"></path>
                    <path d="M0,23.6865672 L195,0 L195,120 L0,120 L0,23.6865672 Z" id="Rectangle-66" fill="#6B2C08"></path>
                    <rect id="Rectangle-273" fill="#4C1F05" x="22" y="120" width="151" height="2"></rect>
                </g>
            </g>
            <g id="Robot-Politician" sketch:type="MSLayerGroup" transform="translate(1282.000000, 18.000000)">
                <rect id="Rectangle-20" fill="#1B1C30" sketch:type="MSShapeGroup" transform="translate(183.560257, 339.500000) rotate(-180.000000) translate(-183.560257, -339.500000) " x="57" y="325" width="253.120514" height="29"></rect>
                <rect id="Rectangle-20" fill="#1B1C30" sketch:type="MSShapeGroup" transform="translate(607.801833, 266.746079) rotate(-217.000000) translate(-607.801833, -266.746079) " x="481.241576" y="252.246079" width="253.120514" height="29"></rect>
                <rect id="Rectangle-15" fill="#1B1C30" sketch:type="MSShapeGroup" transform="translate(360.000000, 727.000000) rotate(-356.000000) translate(-360.000000, -727.000000) " x="342" y="666" width="36" height="122"></rect>
                <rect id="Rectangle-15-Copy" fill="#1B1C30" sketch:type="MSShapeGroup" transform="translate(449.211298, 725.892976) scale(-1, 1) rotate(-356.000000) translate(-449.211298, -725.892976) " x="431.211298" y="664.892976" width="36" height="122"></rect>
                <path d="M401.5,296 L264,296 L321,670 L401.5,670 L482,670 L539,296 L401.5,296 Z" id="Rectangle-11" fill="#1A1B2F" sketch:type="MSShapeGroup"></path>
                <rect id="Rectangle-43" fill="#D8D8D8" sketch:type="MSShapeGroup" x="393" y="303" width="16" height="176"></rect>
                <path d="M348,303 L401,303 L400,493 L348,303 Z M462,303 L401.196364,303 L400,494 L462,303 Z" id="Rectangle-11" fill="#EBEBEB" sketch:type="MSShapeGroup"></path>
                <path d="M393.234807,816 C393.235132,815.938246 393.235294,815.876461 393.235294,815.814645 C393.235294,792.16877 369.453713,773 340.117647,773 C310.781581,773 287,792.16877 287,815.814645 C287,815.876461 287.000163,815.938246 287.000487,816 L393.234807,816 Z" id="Oval-18" fill="#ADADAD" sketch:type="MSShapeGroup"></path>
                <path d="M524.234807,814.785953 C524.235132,814.724199 524.235294,814.662414 524.235294,814.600598 C524.235294,790.954722 500.453713,771.785953 471.117647,771.785953 C441.781581,771.785953 418,790.954722 418,814.600598 C418,814.662414 418.000163,814.724199 418.000487,814.785953 L524.234807,814.785953 Z" id="Oval-18-Copy" fill="#ADADAD" sketch:type="MSShapeGroup" transform="translate(471.117647, 793.285953) scale(-1, 1) translate(-471.117647, -793.285953) "></path>
                <path d="M761.436864,204.67331 C756.452173,205.975587 751.075864,206.685474 745.470357,206.685474 C731.021692,206.685474 715.140202,207.094131 706.518578,199.673388 C699.651242,193.762583 698.470357,181.010929 698.470357,172.685474 C698.470357,162.99694 697.530127,150.086146 706.518579,143.893122 C714.950955,138.083232 732.905947,138.685474 745.470357,138.685474 C751.075864,138.685474 756.452173,139.39536 761.436864,140.697637 C739.295835,145.425807 723.470357,157.96284 723.470357,172.685474 C723.470357,187.408107 739.295835,199.94514 761.436864,204.67331 Z" id="Oval-8" fill="#4D4D4D" sketch:type="MSShapeGroup" transform="translate(729.939538, 172.678606) rotate(-39.000000) translate(-729.939538, -172.678606) "></path>
                <path d="M64.4112253,370.550118 C59.426534,371.852396 54.0502251,372.562282 48.4447181,372.562282 C33.9960534,372.562282 18.1145626,372.97094 9.49293932,365.550197 C2.62560331,359.639391 1.44471814,346.887738 1.44471814,338.562282 C1.44471814,328.873748 0.504488044,315.962955 9.49293973,309.76993 C17.9253159,303.960041 35.8803083,304.562282 48.4447181,304.562282 C54.0502251,304.562282 59.426534,305.272168 64.4112253,306.574446 C42.2701956,311.302616 26.4447181,323.839648 26.4447181,338.562282 C26.4447181,353.284916 42.2701956,365.821948 64.4112253,370.550118 Z" id="Oval-8" fill="#4D4D4D" sketch:type="MSShapeGroup" transform="translate(32.913900, 338.555414) scale(-1, 1) rotate(-359.000000) translate(-32.913900, -338.555414) "></path>
                <g id="Robot-Head" transform="translate(265.000000, 0.000000)" sketch:type="MSShapeGroup">
                    <rect id="Rectangle-7" fill="#9B9B9B" x="33" y="96" width="207" height="207"></rect>
                    <circle id="Oval-14" fill="#000000" cx="183" cy="178" r="37"></circle>
                    <circle id="Oval-14-Copy" fill="#000000" cx="90" cy="178" r="37"></circle>
                    <path d="M94.5,260.5 L178.5,260.5" id="Line" stroke="#000000" stroke-width="11" stroke-linecap="square"></path>
                    <rect id="Rectangle-8" fill="#4C4C4C" x="100" y="48" width="74" height="48"></rect>
                    <path d="M246.5,182.5 L273,0" id="Line" stroke="#2B2B2B" stroke-width="10" stroke-linecap="square"></path>
                    <path d="M0.5,188.5 L27,6" id="Line-Copy" stroke="#2B2B2B" stroke-width="10" stroke-linecap="square" transform="translate(13.500000, 97.500000) scale(-1, 1) translate(-13.500000, -97.500000) "></path>
                    <path d="M240,165.001048 C240,165.001048 245.72,164.602406 249.88,179.352144 C254.04,194.101882 254.04,193.304599 249.88,208.054337 C245.72,222.804075 240,224 240,224 L240,165.001048 Z" id="Rectangle-9" fill="#4D4D4D"></path>
                    <path d="M20,165.001048 C20,165.001048 25.72,164.602406 29.88,179.352144 C34.04,194.101882 34.04,193.304599 29.88,208.054337 C25.72,222.804075 20,224 20,224 L20,165.001048 Z" id="Rectangle-9-Copy" fill="#4D4D4D" transform="translate(26.500000, 194.500000) scale(-1, 1) translate(-26.500000, -194.500000) "></path>
                    <g id="Group" transform="translate(79.000000, 167.000000)">
                        <path d="M103.5,21 C109.29899,21 114,16.2989899 114,10.5 C114,4.70101013 109.29899,0 103.5,0 C97.7010101,0 93,4.70101013 93,10.5 C93,16.2989899 97.7010101,21 103.5,21 Z" id="Oval-15-Copy" fill="#7F0000"></path>
                        <circle id="Oval-293" fill="#FD0000" cx="103.5" cy="11.5" r="5.5"></circle>
                        <path d="M10.5,22 C16.2989899,22 21,17.2989899 21,11.5 C21,5.70101013 16.2989899,1 10.5,1 C4.70101013,1 0,5.70101013 0,11.5 C0,17.2989899 4.70101013,22 10.5,22 Z" id="Oval-15-Copy" fill="#7F0000"></path>
                        <circle id="Oval-293" fill="#FD0000" cx="10.5" cy="11.5" r="5.5"></circle>
                    </g>
                </g>
                <path d="M394.62885,344.923192 C386.939149,339.500925 380.605014,326.832656 380.605014,326.832656 L401.111111,306.326559 L421.617208,326.832656 C421.617208,326.832656 414.542508,340.982056 406.269835,345.773947 C407.962871,347.571331 410.545785,350.319641 412.096886,352 C424.096886,364.999999 404.596886,485 404.596886,485 L401,492.193772 L401,493 L400.596886,493 L400.096886,494 L400.096886,493 L400,493 L400,494 L399.5,493 L399,493 L399,492 L395.5,485 C395.5,485 376,364.999999 388,352 C389.824505,350.023453 393.076624,346.569292 394.62885,344.923192 Z" id="Rectangle-42" fill="#EB0000" sketch:type="MSShapeGroup"></path>
                <path d="M331.996044,333.205978 L305,374.000001 L397,494.000001 L350,306.000001 L300,306 L299,341.000001 L331.996044,333.205978 Z" id="Triangle-51" fill="#10101C" sketch:type="MSShapeGroup"></path>
                <path d="M336.05656,329.955473 L309,373.000001 L400,495.000001 L353,303.000001 L303,303 L302,338.000001 L336.05656,329.955473 Z" id="Triangle-51" fill="#1B1C30" sketch:type="MSShapeGroup"></path>
                <path d="M435.996044,333.205978 L409,374.000001 L501,494.000001 L454,306.000001 L404,306 L403,341.000001 L435.996044,333.205978 Z" id="Triangle-51" fill="#10101C" sketch:type="MSShapeGroup" transform="translate(452.000000, 400.000000) scale(-1, 1) translate(-452.000000, -400.000000) "></path>
                <path d="M434.05656,329.955473 L407,373.000001 L498,495.000001 L451,303.000001 L401,303 L400,338.000001 L434.05656,329.955473 Z" id="Triangle-51" fill="#1B1C30" sketch:type="MSShapeGroup" transform="translate(449.000000, 399.000000) scale(-1, 1) translate(-449.000000, -399.000000) "></path>
                <g id="Flag" transform="translate(460.335782, 371.374425) rotate(-340.000000) translate(-460.335782, -371.374425) translate(440.835782, 358.374425)" sketch:type="MSShapeGroup">
                    <rect id="Rectangle-47" fill="#EB0000" x="0" y="-5.68434189e-14" width="38.2435654" height="25.4957102"></rect>
                    <rect id="Rectangle-49" fill="#FFFFFF" x="1.13686838e-13" y="15.2974261" width="38.2435654" height="5.09914205"></rect>
                    <rect id="Rectangle-49" fill="#FFFFFF" x="0" y="5.09914205" width="38.2435654" height="5.09914205"></rect>
                    <rect id="Rectangle-48" fill="#000098" x="0" y="-5.68434189e-14" width="19.1217827" height="10.1982841"></rect>
                </g>
                <g id="Podium" transform="translate(137.500000, 605.000000) scale(-1, 1) translate(-137.500000, -605.000000) translate(40.000000, 387.000000)" fill="#6B2C08" sketch:type="MSShapeGroup">
                    <path d="M21,113 L101,113 L86,436 L21,436 L21,113 Z" id="Rectangle-67" transform="translate(61.000000, 274.500000) scale(-1, 1) translate(-61.000000, -274.500000) "></path>
                    <path d="M94,113 L174,113 L159,436 L94,436 L94,113 Z" id="Rectangle-67"></path>
                    <path d="M0,23.6865672 L195,0 L195,120 L0,120 L0,23.6865672 Z" id="Rectangle-66"></path>
                </g>
                <rect id="Rectangle-273" fill="#4C1F05" sketch:type="MSShapeGroup" x="62" y="507" width="151" height="2"></rect>
            </g>
        </g>
    </g>
</svg>