<?xml version="1.0" encoding="UTF-8" standalone="no"?>
<svg width="2196px" height="894px" viewBox="0 0 2196 894" version="1.1" xmlns="http://www.w3.org/2000/svg" xmlns:xlink="http://www.w3.org/1999/xlink" xmlns:sketch="http://www.bohemiancoding.com/sketch/ns">
    <!-- Generator: Sketch 3.4.2 (15857) - http://www.bohemiancoding.com/sketch -->
    <title>Politician</title>
    <desc>Created with Sketch.</desc>
    <defs></defs>
    <g id="Page-1" stroke="none" stroke-width="1" fill="none" fill-rule="evenodd" sketch:type="MSPage">
        <g id="Politician" sketch:type="MSArtboardGroup">
            <g id="T-Rex-Politician" sketch:type="MSLayerGroup" transform="translate(24.000000, 77.000000)">
                <path d="M421.518201,331.626074 C421.518201,331.626074 469.502739,326.853347 494.518201,326.853347 C518.169405,326.853347 567.518201,331.626074 567.518201,331.626074 L567.518201,352.080619 C567.518201,352.080619 518.403314,356.853347 494.518201,356.853347 C469.736648,356.853347 421.518201,352.080619 421.518201,352.080619 L421.518201,331.626074 Z M447.776164,652.895165 C471.560998,683.030862 500.221115,697.228471 516.5619,688.539922 C530.883922,680.924767 559.401337,668.475767 560.991091,635.775591 C562.216002,610.579966 540.071541,566.610877 528.710892,545.244604 C502.605809,496.148084 446.136213,452.314755 420.779011,465.797419 C395.42181,479.280082 389.109072,542.558412 415.214155,591.654932 C424.4965,609.112484 434.652318,636.267079 447.776164,652.895165 Z" id="Rectangle-3" fill="#8CB18E" sketch:type="MSShapeGroup" transform="translate(482.980968, 508.958438) rotate(-346.000000) translate(-482.980968, -508.958438) "></path>
                <path d="M661.256664,406.594379 C656.271973,407.896657 650.895664,408.606543 645.290157,408.606543 C619.332774,408.606543 598.290157,393.384225 598.290157,374.606543 C598.290157,355.828862 619.332774,340.606543 645.290157,340.606543 C650.895664,340.606543 656.271973,341.316429 661.256664,342.618707 C639.115635,347.346877 623.290157,359.883909 623.290157,374.606543 C623.290157,389.329177 639.115635,401.866209 661.256664,406.594379 Z" id="Oval-8" fill="#8CB18E" sketch:type="MSShapeGroup" transform="translate(629.773411, 374.606543) rotate(-346.000000) translate(-629.773411, -374.606543) "></path>
                <path d="M461.753398,579.04763 C545.206317,583.475975 558.368335,526.021269 558.368335,390.987648 C558.368335,322.702964 514.92657,288.431224 492.757663,244.071891 C471.087343,200.710215 500.163133,164.398155 455.390839,164.398155 C412.803117,164.398155 423.390748,191.159583 413.490005,229.871955 C402.334049,273.492268 373.581421,333.222652 373.581421,404.764213 C373.581421,539.797834 378.300479,574.619285 461.753398,579.04763 Z" id="Oval-6" fill="#8CB18E" sketch:type="MSShapeGroup" transform="translate(465.974878, 371.841370) rotate(-344.000000) translate(-465.974878, -371.841370) "></path>
                <path d="M500.24446,592.885558 C548.290573,597.313903 555.868305,539.859197 555.868305,404.825576 C555.868305,336.540893 530.8577,302.269153 518.094458,257.90982 C505.618266,214.548144 522.357988,178.236083 496.581362,178.236083 C472.062454,178.236083 478.15804,204.997512 472.457913,243.709884 C466.035126,287.330197 449.481457,347.060581 449.481457,418.602142 C449.481457,553.635763 452.198347,588.457214 500.24446,592.885558 Z" id="Oval-6" fill="#CAFBCC" sketch:type="MSShapeGroup" transform="translate(502.674881, 385.679298) rotate(-344.000000) translate(-502.674881, -385.679298) "></path>
                <g id="Head" transform="translate(458.000000, 0.000000)" sketch:type="MSShapeGroup">
                    <g id="Lower-Teeth" transform="translate(190.126285, 152.855936) scale(1, -1) rotate(-9.000000) translate(-190.126285, -152.855936) translate(125.626285, 137.855936)" stroke="#979797" fill="#FFFFFF">
                        <polygon id="Triangle-2" transform="translate(116.037290, 11.592293) rotate(-186.000000) translate(-116.037290, -11.592293) " points="116.03729 1.092293 127.03729 22.092293 105.03729 22.092293 "></polygon>
                        <polygon id="Triangle-2" transform="translate(97.037290, 14.592293) rotate(-189.000000) translate(-97.037290, -14.592293) " points="97.0372897 4.092293 108.03729 25.092293 86.0372897 25.092293 "></polygon>
                        <polygon id="Triangle-2" transform="translate(78.037290, 16.592293) rotate(-190.000000) translate(-78.037290, -16.592293) " points="78.0372897 6.092293 89.0372897 27.092293 67.0372897 27.092293 "></polygon>
                        <polygon id="Triangle-2" transform="translate(59.506593, 17.629228) rotate(-189.000000) translate(-59.506593, -17.629228) " points="59.5065931 7.12922798 70.5065931 28.129228 48.5065931 28.129228 "></polygon>
                        <polygon id="Triangle-2" transform="translate(41.963585, 17.822597) rotate(-189.000000) translate(-41.963585, -17.822597) " points="41.9635848 7.32259742 52.9635848 28.3225974 30.9635848 28.3225974 "></polygon>
                        <polygon id="Triangle-2" transform="translate(26.527764, 17.654016) rotate(-188.000000) translate(-26.527764, -17.654016) " points="26.5277644 7.15401638 37.5277644 28.1540164 15.5277644 28.1540164 "></polygon>
                        <polygon id="Triangle-2" transform="translate(26.527764, 17.654016) rotate(-188.000000) translate(-26.527764, -17.654016) " points="26.5277644 7.15401638 37.5277644 28.1540164 15.5277644 28.1540164 "></polygon>
                        <polygon id="Triangle-2" transform="translate(12.390768, 17.776841) rotate(-186.000000) translate(-12.390768, -17.776841) " points="12.3907683 7.2768409 23.3907683 28.2768409 1.39076832 28.2768409 "></polygon>
                    </g>
                    <g id="Upper-Teeth" transform="translate(106.000000, 97.000000)" stroke="#979797" fill="#FFFFFF">
                        <polygon id="Triangle-2" transform="translate(179.037290, 15.592293) rotate(-186.000000) translate(-179.037290, -15.592293) " points="179.03729 5.092293 190.03729 26.092293 168.03729 26.092293 "></polygon>
                        <polygon id="Triangle-2" transform="translate(160.037290, 14.592293) rotate(-189.000000) translate(-160.037290, -14.592293) " points="160.03729 4.092293 171.03729 25.092293 149.03729 25.092293 "></polygon>
                        <polygon id="Triangle-2" transform="translate(141.037290, 21.592293) rotate(-190.000000) translate(-141.037290, -21.592293) " points="141.03729 11.092293 152.03729 32.092293 130.03729 32.092293 "></polygon>
                        <polygon id="Triangle-2" transform="translate(122.037290, 21.592293) rotate(-189.000000) translate(-122.037290, -21.592293) " points="122.03729 11.092293 133.03729 32.092293 111.03729 32.092293 "></polygon>
                        <polygon id="Triangle-2" transform="translate(103.037290, 27.592293) rotate(-189.000000) translate(-103.037290, -27.592293) " points="103.03729 17.092293 114.03729 38.092293 92.0372897 38.092293 "></polygon>
                        <polygon id="Triangle-2" transform="translate(83.037290, 27.592293) rotate(-188.000000) translate(-83.037290, -27.592293) " points="83.0372897 17.092293 94.0372897 38.092293 72.0372897 38.092293 "></polygon>
                        <polygon id="Triangle-2" transform="translate(47.037290, 31.592293) rotate(-190.000000) translate(-47.037290, -31.592293) " points="47.0372897 21.092293 58.0372897 42.092293 36.0372897 42.092293 "></polygon>
                        <polygon id="Triangle-2" transform="translate(63.037290, 29.592293) rotate(-189.000000) translate(-63.037290, -29.592293) " points="63.0372897 19.092293 74.0372897 40.092293 52.0372897 40.092293 "></polygon>
                        <polygon id="Triangle-2" transform="translate(30.037290, 31.592293) rotate(-189.000000) translate(-30.037290, -31.592293) " points="30.0372897 21.092293 41.0372897 42.092293 19.0372897 42.092293 "></polygon>
                        <polygon id="Triangle-2" transform="translate(13.037290, 32.592293) rotate(-190.000000) translate(-13.037290, -32.592293) " points="13.0372897 22.092293 24.0372897 43.092293 2.03728971 43.092293 "></polygon>
                        <polygon id="Triangle-2" transform="translate(198.936272, 13.286298) rotate(-186.000000) translate(-198.936272, -13.286298) " points="198.936272 2.00212561 210.757786 24.5704708 187.114758 24.5704708 "></polygon>
                    </g>
                    <path d="M262.785172,177.850571 C231.23875,197.255067 190.228572,210 150,210 C67.1572875,210 -5.68434189e-14,165.452333 -5.68434189e-14,110.5 C-5.68434189e-14,55.5476674 67.1572875,11 150,11 C193.893839,11 265.553776,18.5741717 298,36 C326.185765,51.1376717 319.311351,74.1712067 319.009914,99.3737492 L100.297132,130.752512 L262.78518,177.850566 Z" id="Oval-1" fill="#8CB18E"></path>
                    <ellipse id="Oval-2" fill="#8CB18E" cx="101.5" cy="41" rx="54.5" ry="41"></ellipse>
                    <path d="M138.334414,35.3582562 C138.494467,36.4698789 138.576726,37.6004446 138.576726,38.7463805 C138.576726,54.9229074 122.184643,68.0365734 101.963985,68.0365734 C81.7433259,68.0365734 65.3512434,54.9229074 65.3512434,38.7463805 C65.3512434,31.3449037 68.7828724,24.5846268 74.44273,19.4282701 L138.334414,35.3582562 Z" id="Oval-3" fill="#ECECEC" transform="translate(101.963985, 43.732422) rotate(-351.000000) translate(-101.963985, -43.732422) "></path>
                    <path d="M133.411855,34.6575903 C133.521863,35.4216385 133.578402,36.1987068 133.578402,36.9863394 C133.578402,48.1049023 122.311682,57.1182785 108.413478,57.1182785 C94.5152742,57.1182785 83.248554,48.1049023 83.248554,36.9863394 C83.248554,31.8991049 85.6072052,27.2525843 89.4973779,23.7084815 L133.411855,34.6575903 Z" id="Oval-3" fill="#454545" transform="translate(108.413478, 40.413380) rotate(-351.000000) translate(-108.413478, -40.413380) "></path>
                    <ellipse id="Oval-5" fill="#4A4A4A" transform="translate(273.619638, 66.068495) rotate(-58.000000) translate(-273.619638, -66.068495) " cx="273.619638" cy="66.068495" rx="7.5" ry="16.5"></ellipse>
                </g>
                <path d="M245.169953,551.39379 C307.688946,523.946603 358.443029,417 358.443029,417 L408,604.64416 C408,604.64416 54.0216371,635.072942 6.82452101,624.930015 C-40.3725951,614.787087 170.030693,584.381546 245.169953,551.39379 Z" id="Triangle-21" fill="#8CB18E" sketch:type="MSShapeGroup"></path>
                <path d="M351.382678,247.167598 C351.382678,247.167598 399.367216,242.394871 424.382678,242.394871 C448.033882,242.394871 497.382678,247.167598 497.382678,247.167598 L497.382678,267.622144 C497.382678,267.622144 448.267791,272.394871 424.382678,272.394871 C399.601125,272.394871 351.382678,267.622144 351.382678,267.622144 L351.382678,247.167598 Z" id="Rectangle-3" fill="#8CB18E" sketch:type="MSShapeGroup" transform="translate(424.382678, 257.394871) rotate(-105.000000) translate(-424.382678, -257.394871) "></path>
                <path d="M431.561291,192.638494 C426.5766,193.940771 421.200291,194.650658 415.594784,194.650658 C389.637401,194.650658 368.594784,179.428339 368.594784,160.650658 C368.594784,141.872976 389.637401,126.650658 415.594784,126.650658 C421.200291,126.650658 426.5766,127.360544 431.561291,128.662822 C409.420262,133.390992 393.594784,145.928024 393.594784,160.650658 C393.594784,175.373292 409.420262,187.910324 431.561291,192.638494 Z" id="Oval-8" fill="#8CB18E" sketch:type="MSShapeGroup" transform="translate(400.078038, 160.650658) rotate(-92.000000) translate(-400.078038, -160.650658) "></path>
                <path d="M339.811975,632.058061 C346.664884,669.832605 365.304891,695.82346 383.811975,695.82346 C400.032669,695.82346 431.056503,698.21976 447.811975,670.093562 C460.722137,648.422208 461.811975,599.203611 461.811975,575.00481 C461.811975,519.399562 432.530782,454.18616 403.811975,454.18616 C375.093168,454.18616 339.811975,507.093959 339.811975,562.699207 C339.811975,582.471108 336.03072,611.21506 339.811975,632.058061 Z" id="Oval-12" fill="#8CB18E" sketch:type="MSShapeGroup" transform="translate(399.971696, 575.030206) rotate(-351.000000) translate(-399.971696, -575.030206) "></path>
                <path d="M367.277856,687.08108 C367.277856,687.08108 478.084112,685.413595 494.597273,701.878304 C511.110433,718.343013 434.176751,753.783687 434.176751,753.783687 C434.176751,753.783687 364.822983,769.756006 340.615701,753.783683 C316.408419,737.811361 367.277856,687.08108 367.277856,687.08108 Z" id="Rectangle-5" fill="#8CB18E" sketch:type="MSShapeGroup" transform="translate(415.502067, 723.958133) rotate(-339.000000) translate(-415.502067, -723.958133) "></path>
                <path d="M505.358352,659.125018 C505.358352,659.125018 583.903498,649.704052 593.303917,665.378566 C602.704337,681.053081 539.802822,716.558661 539.802822,716.558661 C539.802822,716.558661 498.793117,738.443047 474.764557,722.588648 C450.735996,706.734248 505.358352,659.125018 505.358352,659.125018 Z" id="Rectangle-5" fill="#8CB18E" sketch:type="MSShapeGroup" transform="translate(531.459161, 692.334790) rotate(-339.000000) translate(-531.459161, -692.334790) "></path>
                <path d="M459.562469,720.974618 C471.219823,718.273524 487.868177,721.485173 500.562469,725.974618 C515.20151,731.15184 519.562469,747.974618 519.562469,747.974618 C519.562469,747.974618 499.599056,735.474618 483.562469,735.474618 C472.265723,735.474618 466.576905,739.712506 459.562469,735.474618 C452.548033,731.236729 447.905115,723.675712 459.562469,720.974618 Z" id="Triangle-22" fill="#D8D8D8" sketch:type="MSShapeGroup" transform="translate(486.008957, 733.979723) rotate(-353.000000) translate(-486.008957, -733.979723) "></path>
                <path d="M526.677677,697.243148 C536.753024,694.908616 551.142047,697.684416 562.11361,701.564603 C574.766003,706.03923 578.53514,720.579006 578.53514,720.579006 C578.53514,720.579006 561.280941,709.775368 547.420662,709.775368 C537.656985,709.775368 532.740191,713.438137 526.677677,709.775368 C520.615163,706.112599 516.60233,699.577679 526.677677,697.243148 Z" id="Triangle-22" fill="#D8D8D8" sketch:type="MSShapeGroup" transform="translate(549.535140, 708.483344) rotate(-351.000000) translate(-549.535140, -708.483344) "></path>
                <path d="M420.395215,735.178999 C432.052569,732.477905 448.700923,735.689554 461.395215,740.178999 C476.034257,745.356221 480.395215,762.178999 480.395215,762.178999 C480.395215,762.178999 460.431802,749.678999 444.395215,749.678999 C433.098469,749.678999 427.409651,753.916887 420.395215,749.678999 C413.380779,745.44111 408.737861,737.880093 420.395215,735.178999 Z" id="Triangle-22" fill="#D8D8D8" sketch:type="MSShapeGroup" transform="translate(446.841704, 748.184104) rotate(-347.000000) translate(-446.841704, -748.184104) "></path>
                <path d="M560.142537,682.855466 C570.217884,680.520934 584.606907,683.296734 595.57847,687.176921 C608.230862,691.651548 612,706.191325 612,706.191325 C612,706.191325 594.745801,695.387686 580.885522,695.387686 C571.121845,695.387686 566.205051,699.050455 560.142537,695.387686 C554.080022,691.724917 550.06719,685.189998 560.142537,682.855466 Z" id="Triangle-22" fill="#D8D8D8" sketch:type="MSShapeGroup" transform="translate(583.000000, 694.095662) rotate(-352.000000) translate(-583.000000, -694.095662) "></path>
                <circle id="Oval-50" stroke="#979797" fill="#EEDBDB" sketch:type="MSShapeGroup" cx="483" cy="178" r="9"></circle>
                <circle id="Oval-50-Copy" stroke="#979797" fill="#EEDBDB" sketch:type="MSShapeGroup" cx="497" cy="193" r="9"></circle>
                <circle id="Oval-50-Copy-2" stroke="#979797" fill="#EEDBDB" sketch:type="MSShapeGroup" cx="514" cy="207" r="9"></circle>
                <circle id="Oval-50-Copy-3" stroke="#979797" fill="#EEDBDB" sketch:type="MSShapeGroup" cx="534" cy="219" r="9"></circle>
                <circle id="Oval-50-Copy-4" stroke="#979797" fill="#EEDBDB" sketch:type="MSShapeGroup" cx="556" cy="222" r="9"></circle>
                <circle id="Oval-50-Copy-5" stroke="#979797" fill="#EEDBDB" sketch:type="MSShapeGroup" cx="499" cy="82" r="9"></circle>
                <g id="Button" transform="translate(483.321082, 274.234389) rotate(-16.000000) translate(-483.321082, -274.234389) translate(445.821082, 236.734389)" sketch:type="MSShapeGroup">
                    <circle id="Oval-56" fill="#FFFFFF" cx="37.2625181" cy="37.2625181" r="37.2625181"></circle>
                    <path d="M72.2844199,74.8416787 C67.169066,60.3690114 53.3665442,50 37.1422099,50 C20.9178757,50 7.11535387,60.3690114 2,74.8416787 L72.2844199,74.8416787 Z" id="Oval-56" fill="#34347D" transform="translate(37.142210, 62.420839) scale(1, -1) translate(-37.142210, -62.420839) "></path>
                    <path d="M72.2844199,24.8416787 C67.169066,10.3690114 53.3665442,0 37.1422099,0 C20.9178757,0 7.11535387,10.3690114 2,24.8416787 L72.2844199,24.8416787 Z" id="Oval-56" fill="#D94545"></path>
                    <path d="M13.484087,36.710888 C13.484087,37.3306257 13.3772035,37.9023054 13.1634332,38.4259445 C12.949663,38.9495835 12.6486241,39.4026128 12.2603075,39.7850458 C11.8719909,40.1674788 11.4042529,40.465576 10.8570795,40.6793462 C10.3099061,40.8931165 9.70292536,41 9.03611907,41 L5.70602666,41 L5.70602666,32.4276596 L9.03611907,32.4276596 C9.70292536,32.4276596 10.3099061,32.5355238 10.8570795,32.7512552 C11.4042529,32.9669866 11.8719909,33.2650838 12.2603075,33.6455556 C12.6486241,34.0260275 12.949663,34.4780761 13.1634332,35.0017152 C13.3772035,35.5253542 13.484087,36.0950728 13.484087,36.710888 L13.484087,36.710888 Z M11.4483768,36.710888 C11.4483768,36.2872699 11.3934642,35.9048426 11.2836373,35.5635947 C11.1738103,35.2223468 11.0159365,34.9330749 10.810011,34.6957703 C10.6040856,34.4584657 10.3520758,34.2760773 10.0539742,34.1485996 C9.75587253,34.021122 9.41659089,33.9573841 9.03611907,33.9573841 L7.70643553,33.9573841 L7.70643553,39.4702756 L9.03611907,39.4702756 C9.41659089,39.4702756 9.75587253,39.4065377 10.0539742,39.27906 C10.3520758,39.1515823 10.6040856,38.9691939 10.810011,38.7318894 C11.0159365,38.4945848 11.1738103,38.2053128 11.2836373,37.8640649 C11.3934642,37.522817 11.4483768,37.1384285 11.4483768,36.710888 L11.4483768,36.710888 Z M16.6141385,41 L14.6137297,41 L14.6137297,32.4276596 L16.6141385,32.4276596 L16.6141385,41 Z M19.2499714,32.4276596 C19.336264,32.4276596 19.4088271,32.431582 19.467663,32.4394268 C19.5264988,32.4472715 19.5794503,32.4619803 19.626519,32.4835534 C19.6735876,32.5051266 19.7186944,32.5355246 19.7618407,32.5747485 C19.804987,32.6139724 19.8540162,32.6669239 19.9089296,32.7336045 L23.98035,37.8817156 C23.9646605,37.7169752 23.9528935,37.5571402 23.9450487,37.4022058 C23.9372039,37.2472714 23.9332816,37.1011646 23.9332816,36.9638809 L23.9332816,32.4276596 L25.6865811,32.4276596 L25.6865811,41 L24.6510753,41 C24.4981021,41 24.3686652,40.976466 24.2627607,40.9293973 C24.1568562,40.8823287 24.0548755,40.7960374 23.9568158,40.6705209 L19.9148132,35.5635947 C19.9265803,35.7126455 19.9363862,35.8587524 19.944231,36.0019196 C19.9520757,36.1450868 19.9559981,36.2794267 19.9559981,36.4049432 L19.9559981,41 L18.2026985,41 L18.2026985,32.4276596 L19.2499714,32.4276596 Z M35.5591872,36.710888 C35.5591872,37.3306257 35.4523037,37.9072083 35.2385335,38.4406534 C35.0247632,38.9740984 34.7237243,39.437914 34.3354077,39.8321142 C33.9470911,40.2263144 33.4793531,40.535198 32.9321797,40.7587742 C32.3850063,40.9823505 31.7780256,41.0941369 31.1112193,41.0941369 C30.444413,41.0941369 29.8364517,40.9823505 29.2873171,40.7587742 C28.7381825,40.535198 28.2684833,40.2263144 27.8782055,39.8321142 C27.4879277,39.437914 27.1859082,38.9740984 26.972138,38.4406534 C26.7583677,37.9072083 26.6514842,37.3306257 26.6514842,36.710888 C26.6514842,36.0911504 26.7583677,35.5145678 26.972138,34.9811227 C27.1859082,34.4476777 27.4879277,33.9848426 27.8782055,33.5926036 C28.2684833,33.2003646 28.7381825,32.8924616 29.2873171,32.6688854 C29.8364517,32.4453092 30.444413,32.3335228 31.1112193,32.3335228 C31.7780256,32.3335228 32.3850063,32.4462898 32.9321797,32.6718272 C33.4793531,32.8973646 33.9470911,33.2062482 34.3354077,33.5984872 C34.7237243,33.9907262 35.0247632,34.4535613 35.2385335,34.9870063 C35.4523037,35.5204513 35.5591872,36.0950728 35.5591872,36.710888 L35.5591872,36.710888 Z M33.523477,36.710888 C33.523477,36.2872699 33.4685644,35.9058232 33.3587375,35.5665365 C33.2489106,35.2272498 33.0910367,34.939939 32.8851113,34.7045956 C32.6791858,34.4692522 32.427176,34.288825 32.1290744,34.1633085 C31.8309727,34.037792 31.4916911,33.9750347 31.1112193,33.9750347 C30.7268251,33.9750347 30.3846017,34.037792 30.0845388,34.1633085 C29.784476,34.288825 29.5314857,34.4692522 29.3255602,34.7045956 C29.1196347,34.939939 28.9617609,35.2272498 28.851934,35.5665365 C28.742107,35.9058232 28.6871944,36.2872699 28.6871944,36.710888 C28.6871944,37.1384285 28.742107,37.5218364 28.851934,37.8611231 C28.9617609,38.2004099 29.1196347,38.4877206 29.3255602,38.723064 C29.5314857,38.9584074 29.784476,39.1378541 30.0845388,39.2614094 C30.3846017,39.3849646 30.7268251,39.4467414 31.1112193,39.4467414 C31.4916911,39.4467414 31.8309727,39.3849646 32.1290744,39.2614094 C32.427176,39.1378541 32.6791858,38.9584074 32.8851113,38.723064 C33.0910367,38.4877206 33.2489106,38.2004099 33.3587375,37.8611231 C33.4685644,37.5218364 33.523477,37.1384285 33.523477,36.710888 L33.523477,36.710888 Z M41.2897703,34.1691921 C41.2309344,34.2633294 41.1691577,34.3339314 41.1044383,34.3810001 C41.0397188,34.4280688 40.9563693,34.4516027 40.8543872,34.4516027 C40.7641722,34.4516027 40.6670945,34.4231658 40.5631512,34.3662912 C40.4592078,34.3094165 40.3415379,34.2456786 40.2101378,34.1750756 C40.0787378,34.1044726 39.9287086,34.0407347 39.7600458,33.9838601 C39.5913831,33.9269854 39.3991889,33.8985485 39.1834574,33.8985485 C38.8108304,33.8985485 38.5333254,33.9779757 38.3509343,34.1368325 C38.1685432,34.2956893 38.077349,34.5104369 38.077349,34.7810818 C38.077349,34.953667 38.1322616,35.0968321 38.2420885,35.2105814 C38.3519155,35.3243307 38.4960611,35.422389 38.6745299,35.5047592 C38.8529986,35.5871294 39.0569598,35.6626342 39.2864196,35.7312761 C39.5158794,35.7999179 39.7502387,35.8764033 39.9895045,35.9607347 C40.2287703,36.0450661 40.4631296,36.144105 40.6925894,36.2578543 C40.9220492,36.3716036 41.1260104,36.5167298 41.3044792,36.6932374 C41.4829479,36.8697449 41.6270936,37.0844926 41.7369205,37.3374867 C41.8467474,37.5904809 41.90166,37.8954421 41.90166,38.2523796 C41.90166,38.648541 41.8330193,39.0192013 41.6957356,39.3643716 C41.558452,39.7095419 41.3593937,40.0105808 41.0985547,40.2674973 C40.8377158,40.5244139 40.5160846,40.7264139 40.1336516,40.8735036 C39.7512186,41.0205932 39.3168204,41.0941369 38.8304441,41.0941369 C38.5637216,41.0941369 38.2921001,41.0666806 38.0155716,41.0117671 C37.7390432,40.9568537 37.4713441,40.8793876 37.2124663,40.7793667 C36.9535886,40.6793457 36.7104041,40.5606952 36.4829054,40.4234116 C36.2554068,40.2861279 36.0573291,40.133157 35.8886663,39.9644942 L36.4770219,39.0348925 C36.5201682,38.9642894 36.5809643,38.9074156 36.6594121,38.8642694 C36.7378599,38.8211231 36.82219,38.7995502 36.912405,38.7995502 C37.0300767,38.7995502 37.1487272,38.8368124 37.2683601,38.9113378 C37.387993,38.9858632 37.5233134,39.0682322 37.6743254,39.1584471 C37.8253374,39.2486621 37.9989006,39.3310311 38.1950201,39.4055565 C38.3911396,39.4800819 38.6225571,39.517344 38.8892796,39.517344 C39.2501395,39.517344 39.5305862,39.4379168 39.7306281,39.27906 C39.93067,39.1202032 40.0306894,38.8681935 40.0306894,38.5230231 C40.0306894,38.3229813 39.9757768,38.1602045 39.8659498,38.034688 C39.7561229,37.9091716 39.6119773,37.8052298 39.4335085,37.7228596 C39.2550398,37.6404894 39.0520591,37.5679263 38.8245605,37.505168 C38.5970619,37.4424098 38.3636832,37.3727884 38.1244174,37.2963018 C37.8851516,37.2198152 37.6517729,37.1256793 37.4242743,37.0138912 C37.1967757,36.902103 36.9937951,36.7550156 36.8153263,36.5726245 C36.6368576,36.3902334 36.4927119,36.1627382 36.382885,35.8901321 C36.2730581,35.617526 36.2181454,35.2811861 36.2181454,34.8811023 C36.2181454,34.5594663 36.2828639,34.2456798 36.4123028,33.9397334 C36.5417416,33.633787 36.7319747,33.361185 36.9830077,33.1219192 C37.2340406,32.8826534 37.5419436,32.6914398 37.9067259,32.5482725 C38.2715081,32.4051053 38.6892364,32.3335228 39.1599232,32.3335228 C39.4227233,32.3335228 39.6786554,32.354115 39.9277272,32.3953001 C40.1767989,32.4364852 40.4131194,32.4972813 40.6366956,32.5776903 C40.8602718,32.6580993 41.069136,32.7541964 41.2632943,32.8659845 C41.4574526,32.9777726 41.6310157,33.1042678 41.7839889,33.2454739 L41.2897703,34.1691921 Z M50.8681986,41 L49.3267071,41 C49.1541219,41 49.0119374,40.9597961 48.9001493,40.8793871 C48.7883612,40.7989781 48.7108952,40.6960169 48.6677489,40.5705004 L48.1617631,39.0760774 L44.9022733,39.0760774 L44.3962876,40.5705004 C44.3570637,40.6803274 44.2805782,40.7793662 44.1668289,40.86762 C44.0530796,40.9558738 43.9138369,41 43.7490965,41 L42.1958378,41 L45.5141631,32.4276596 L47.5498733,32.4276596 L50.8681986,41 Z M45.3611907,37.7228596 L47.7028458,37.7228596 L46.9144493,35.3753209 C46.8634583,35.2262701 46.8036427,35.0507458 46.7350009,34.8487427 C46.6663591,34.6467397 46.5986988,34.4280697 46.5320182,34.1927263 C46.46926,34.4319921 46.4045415,34.6536038 46.3378609,34.8575681 C46.2711803,35.0615323 46.208423,35.2380372 46.1495871,35.3870881 L45.3611907,37.7228596 Z M54.833715,39.4290907 C55.1004375,39.4290907 55.3387192,39.3849645 55.548567,39.2967107 C55.7584149,39.2084569 55.9359004,39.0819617 56.0810288,38.9172214 C56.2261572,38.752481 56.3369631,38.5514615 56.4134497,38.3141569 C56.4899363,38.0768523 56.528179,37.8071921 56.528179,37.505168 L56.528179,32.4276596 L58.5168208,32.4276596 L58.5168208,37.505168 C58.5168208,38.0307683 58.4315101,38.513215 58.2608861,38.9525227 C58.0902621,39.3918304 57.846097,39.7703353 57.5283834,40.0880489 C57.2106699,40.4057625 56.8243202,40.6528693 56.369323,40.8293769 C55.9143258,41.0058844 55.4024616,41.0941369 54.833715,41.0941369 C54.2610461,41.0941369 53.7472207,41.0058844 53.2922235,40.8293769 C52.8372262,40.6528693 52.4508766,40.4057625 52.133163,40.0880489 C51.8154495,39.7703353 51.5722649,39.3918304 51.4036022,38.9525227 C51.2349394,38.513215 51.1506093,38.0307683 51.1506093,37.505168 L51.1506093,32.4276596 L53.139251,32.4276596 L53.139251,37.4992845 C53.139251,37.8013085 53.1774938,38.0709688 53.2539804,38.3082734 C53.330467,38.545578 53.4412728,38.747578 53.5864013,38.9142796 C53.7315297,39.0809812 53.9090152,39.2084569 54.118863,39.2967107 C54.3287109,39.3849645 54.5669925,39.4290907 54.833715,39.4290907 L54.833715,39.4290907 Z M61.7998447,37.8287636 L61.7998447,41 L59.811203,41 L59.811203,32.4276596 L62.6000083,32.4276596 C63.2197459,32.4276596 63.74828,32.4913975 64.1856265,32.6188752 C64.622973,32.7463529 64.9799051,32.9238384 65.2564336,33.151337 C65.5329621,33.3788356 65.7339815,33.6475153 65.859498,33.9573841 C65.9850145,34.2672529 66.0477718,34.6045734 66.0477718,34.9693556 C66.0477718,35.2478453 66.0105096,35.5106415 65.9359842,35.7577521 C65.8614588,36.0048626 65.750653,36.2333384 65.6035633,36.4431863 C65.4564737,36.6530341 65.2760465,36.8403254 65.0622762,37.0050658 C64.848506,37.1698062 64.6023797,37.3051266 64.32389,37.4110311 C64.4572513,37.4777118 64.5817853,37.5600807 64.6974958,37.6581405 C64.8132063,37.7562002 64.9142063,37.8758313 65.0004989,38.0170374 L66.8244011,41 L65.0240331,41 C64.69063,41 64.4513678,40.8744854 64.3062394,40.6234524 L62.8824189,38.1347085 C62.8196607,38.0248816 62.746117,37.9464349 62.6617856,37.8993663 C62.5774542,37.8522976 62.4588037,37.8287636 62.3058305,37.8287636 L61.7998447,37.8287636 Z M61.7998447,36.4578952 L62.6000083,36.4578952 C62.8706532,36.4578952 63.1010901,36.4235748 63.291326,36.3549329 C63.481562,36.2862911 63.6374746,36.1911746 63.7590687,36.0695805 C63.8806628,35.9479864 63.9689152,35.8058019 64.0238287,35.6430227 C64.0787422,35.4802435 64.1061985,35.3047192 64.1061985,35.1164445 C64.1061985,34.7398951 63.9836256,34.4457202 63.7384763,34.2339112 C63.4933269,34.0221021 63.1138414,33.9161992 62.6000083,33.9161992 L61.7998447,33.9161992 L61.7998447,36.4578952 Z" id="DINOSAUR" fill="#34357D"></path>
                    <path d="M23.7225339,54.444697 C24.287358,54.444697 24.7959536,54.527066 25.2483359,54.6918063 C25.7007182,54.8565467 26.0864141,55.0853494 26.4054352,55.3782212 C26.7244562,55.6710929 26.9689482,56.0201804 27.1389184,56.425494 C27.3088887,56.8308077 27.3938725,57.276646 27.3938725,57.7630223 C27.3938725,58.1814106 27.3350375,58.5684139 27.2173658,58.9240439 C27.0996941,59.2796739 26.9388786,59.6183019 26.7349143,59.9399378 C26.53095,60.2615738 26.2943027,60.5727454 26.0249653,60.873462 C25.7556278,61.1741785 25.4692976,61.4788129 25.1659662,61.7873743 L22.9302151,64.0780385 C23.217857,63.9943609 23.5015723,63.9276813 23.7813694,63.8779977 C24.0611666,63.828314 24.3239628,63.8034726 24.5697659,63.8034726 L26.7035353,63.8034726 C26.965028,63.8034726 27.1716041,63.875382 27.3232698,64.019203 C27.4749356,64.1630239 27.5507673,64.3526033 27.5507673,64.5879467 L27.5507673,66 L19.5177529,66 L19.5177529,65.2155259 C19.5177529,65.0638602 19.5491315,64.9017372 19.6118898,64.729152 C19.674648,64.5565669 19.7844733,64.3996736 19.9413689,64.2584676 L23.23616,60.9401423 C23.518572,60.6577302 23.7643714,60.3883968 23.9735656,60.132134 C24.1827597,59.8758712 24.3553423,59.6235345 24.4913185,59.3751165 C24.6272946,59.1266985 24.7292753,58.8782842 24.7972633,58.6298662 C24.8652514,58.3814481 24.899245,58.1186519 24.899245,57.8414697 C24.899245,57.3864725 24.7907271,57.037385 24.5736882,56.7941968 C24.3566493,56.5510087 24.0258661,56.4294164 23.5813285,56.4294164 C23.3982837,56.4294164 23.2309309,56.4555653 23.0792651,56.5078638 C22.9275994,56.5601623 22.7916253,56.6307643 22.6713386,56.7196718 C22.551052,56.8085793 22.4477639,56.9131748 22.3614714,57.0334614 C22.2751788,57.1537481 22.2058843,57.2844924 22.1535857,57.4256985 C22.0699081,57.6610419 21.9640052,57.8310095 21.8358737,57.9356066 C21.7077423,58.0402037 21.5338523,58.0925014 21.3141985,58.0925014 C21.2619,58.0925014 21.2056799,58.0898865 21.1455366,58.0846567 C21.0853933,58.0794268 21.0239434,58.0715822 20.9611852,58.0611225 L19.6746477,57.833625 C19.7583253,57.263571 19.9191409,56.7667424 20.1570992,56.3431243 C20.3950576,55.9195061 20.6905398,55.5664963 21.0435549,55.2840843 C21.39657,55.0016722 21.8005701,54.7911738 22.2555674,54.6525826 C22.7105646,54.5139915 23.1995485,54.444697 23.7225339,54.444697 L23.7225339,54.444697 Z M36.8860087,60.2811841 C36.8860087,61.280086 36.7787983,62.1456138 36.5643743,62.8777932 C36.3499503,63.6099727 36.0531606,64.2166266 35.6739963,64.6977731 C35.2948319,65.1789196 34.8450713,65.5371591 34.3247009,65.7725025 C33.8043305,66.0078459 33.2408222,66.1255159 32.6341593,66.1255159 C32.0274963,66.1255159 31.4666029,66.0078459 30.9514624,65.7725025 C30.4363218,65.5371591 29.9904835,65.1789196 29.6139341,64.6977731 C29.2373847,64.2166266 28.9432098,63.6099727 28.7314008,62.8777932 C28.5195917,62.1456138 28.4136888,61.280086 28.4136888,60.2811841 C28.4136888,59.2822821 28.5195917,58.4167544 28.7314008,57.6845749 C28.9432098,56.9523954 29.2373847,56.3457416 29.6139341,55.8645951 C29.9904835,55.3834486 30.4363218,55.0265164 30.9514624,54.793788 C31.4666029,54.5610595 32.0274963,54.444697 32.6341593,54.444697 C33.2408222,54.444697 33.8043305,54.5610595 34.3247009,54.793788 C34.8450713,55.0265164 35.2948319,55.3834486 35.6739963,55.8645951 C36.0531606,56.3457416 36.3499503,56.9523954 36.5643743,57.6845749 C36.7787983,58.4167544 36.8860087,59.2822821 36.8860087,60.2811841 L36.8860087,60.2811841 Z M34.3756917,60.2811841 C34.3756917,59.4914762 34.3260088,58.8442916 34.2266416,58.3396107 C34.1272744,57.8349299 33.9952226,57.4387745 33.8304822,57.1511325 C33.6657418,56.8634906 33.4787774,56.6660666 33.2695833,56.5588546 C33.0603891,56.4516426 32.8485832,56.3980374 32.6341593,56.3980374 C32.4197353,56.3980374 32.2092368,56.4516426 32.0026576,56.5588546 C31.7960784,56.6660666 31.6130363,56.8634906 31.4535258,57.1511325 C31.2940153,57.4387745 31.1658858,57.8349299 31.0691335,58.3396107 C30.9723812,58.8442916 30.9240058,59.4914762 30.9240058,60.2811841 C30.9240058,61.0761218 30.9723812,61.7246138 31.0691335,62.2266797 C31.1658858,62.7287457 31.2940153,63.1249011 31.4535258,63.415158 C31.6130363,63.7054148 31.7960784,63.9041463 32.0026576,64.0113582 C32.2092368,64.1185702 32.4197353,64.1721754 32.6341593,64.1721754 C32.8485832,64.1721754 33.0603891,64.1185702 33.2695833,64.0113582 C33.4787774,63.9041463 33.6657418,63.7054148 33.8304822,63.415158 C33.9952226,63.1249011 34.1272744,62.7287457 34.2266416,62.2266797 C34.3260088,61.7246138 34.3756917,61.0761218 34.3756917,60.2811841 L34.3756917,60.2811841 Z M39.176673,64.2427781 L41.3732004,64.2427781 L41.3732004,58.4768937 C41.3732004,58.1944816 41.381045,57.8989994 41.3967346,57.590438 L40.1023524,58.6651675 C40.0186747,58.7331556 39.9349983,58.781531 39.8513207,58.8102952 C39.767643,58.8390594 39.6865815,58.8534413 39.6081337,58.8534413 C39.4721575,58.8534413 39.3505653,58.8233701 39.2433533,58.7632267 C39.1361413,58.7030834 39.0563872,58.6390187 39.0040887,58.5710306 L38.2353041,57.5512143 L41.7968163,54.5623681 L43.80507,54.5623681 L43.80507,64.2427781 L45.6878077,64.2427781 L45.6878077,66 L39.176673,66 L39.176673,64.2427781 Z M51.6968791,58.7593044 C52.1100375,58.7593044 52.5179599,58.8272914 52.9206586,58.9632676 C53.3233573,59.0992438 53.6842118,59.3084348 54.0032328,59.5908469 C54.3222539,59.873259 54.5798203,60.2301911 54.7759398,60.661654 C54.9720593,61.0931169 55.0701175,61.6017125 55.0701175,62.187456 C55.0701175,62.7209011 54.9707518,63.2268818 54.7720174,63.7054134 C54.573283,64.1839449 54.2921826,64.6023269 53.9287078,64.9605719 C53.565233,65.3188168 53.1272393,65.6025321 52.6147137,65.8117262 C52.1021881,66.0209204 51.5347575,66.1255159 50.912405,66.1255159 C50.2743629,66.1255159 49.7017026,66.0248427 49.1944068,65.8234933 C48.687111,65.622144 48.256962,65.3410436 47.9039469,64.9801837 C47.5509319,64.6193238 47.2815985,64.1878674 47.0959387,63.6858015 C46.9102789,63.1837356 46.8174504,62.6319944 46.8174504,62.0305612 C46.8174504,61.4605072 46.9272756,60.8930767 47.1469295,60.3282525 C47.3665833,59.7634284 47.6908293,59.1881531 48.1196773,58.6024096 L50.6927523,55.1271895 C50.807809,54.9702939 50.9803916,54.838242 51.2105051,54.73103 C51.4406187,54.6238181 51.7021074,54.5702129 51.9949792,54.5702129 L54.1601276,54.5702129 L50.7711997,58.618099 C50.7189011,58.6756274 50.6679108,58.7344624 50.6182272,58.7946057 C50.5685436,58.854749 50.5201682,58.913584 50.4730995,58.9711124 C50.6561444,58.9031243 50.8483386,58.8508265 51.049688,58.8142176 C51.2510373,58.7776086 51.4667655,58.7593044 51.6968791,58.7593044 L51.6968791,58.7593044 Z M49.1551831,62.3600403 C49.1551831,62.6424524 49.1891766,62.8960965 49.2571647,63.1209802 C49.3251528,63.3458639 49.4297483,63.5393655 49.5709543,63.701491 C49.7121604,63.8636164 49.8899727,63.9878236 50.1043967,64.0741162 C50.3188207,64.1604087 50.5724648,64.2035544 50.8653365,64.2035544 C51.1163695,64.2035544 51.3504019,64.1564864 51.5674408,64.0623491 C51.7844797,63.9682117 51.9714442,63.8387748 52.1283398,63.6740344 C52.2852354,63.509294 52.4094425,63.3157924 52.500965,63.0935236 C52.5924874,62.8712548 52.6382479,62.6293777 52.6382479,62.3678851 C52.6382479,62.0750133 52.5951023,61.8135246 52.5088097,61.583411 C52.4225171,61.3532975 52.3009249,61.1597958 52.1440293,61.0029002 C51.9871337,60.8460046 51.7975543,60.7257198 51.5752856,60.6420421 C51.3530168,60.5583645 51.10591,60.5165263 50.8339576,60.5165263 C50.5881545,60.5165263 50.3632742,60.5596719 50.1593099,60.6459645 C49.9553456,60.7322571 49.7788407,60.8564642 49.6297899,61.0185897 C49.4807391,61.1807151 49.3643766,61.3742168 49.2806989,61.5991005 C49.1970213,61.8239842 49.1551831,62.0776283 49.1551831,62.3600403 L49.1551831,62.3600403 Z" id="2016" fill="#FFFFFF"></path>
                </g>
                <g id="Podium-2" transform="translate(695.000000, 322.000000)" sketch:type="MSShapeGroup">
                    <path d="M21,113 L101,113 L86,436 L21,436 L21,113 Z" id="Rectangle-67" fill="#6B2C08" transform="translate(61.000000, 274.500000) scale(-1, 1) translate(-61.000000, -274.500000) "></path>
                    <path d="M94,113 L174,113 L159,436 L94,436 L94,113 Z" id="Rectangle-67" fill="#6B2C08"></path>
                    <path d="M0,23.6865672 L195,0 L195,120 L0,120 L0,23.6865672 Z" id="Rectangle-66" fill="#6B2C08"></path>
                    <rect id="Rectangle-273" fill="#4C1F05" x="22" y="120" width="151" height="2"></rect>
                </g>
            </g>
            <g id="Robot-Politician" sketch:type="MSLayerGroup" transform="translate(1282.000000, 18.000000)">
                <rect id="Rectangle-20" fill="#1B1C30" sketch:type="MSShapeGroup" transform="translate(183.560257, 339.500000) rotate(-180.000000) translate(-183.560257, -339.500000) " x="57" y="325" width="253.120514" height="29"></rect>
                <rect id="Rectangle-20" fill="#1B1C30" sketch:type="MSShapeGroup" transform="translate(607.801833, 266.746079) rotate(-217.000000) translate(-607.801833, -266.746079) " x="481.241576" y="252.246079" width="253.120514" height="29"></rect>
                <rect id="Rectangle-15" fill="#1B1C30" sketch:type="MSShapeGroup" transform="translate(360.000000, 727.000000) rotate(-356.000000) translate(-360.000000, -727.000000) " x="342" y="666" width="36" height="122"></rect>
                <rect id="Rectangle-15-Copy" fill="#1B1C30" sketch:type="MSShapeGroup" transform="translate(449.211298, 725.892976) scale(-1, 1) rotate(-356.000000) translate(-449.211298, -725.892976) " x="431.211298" y="664.892976" width="36" height="122"></rect>
                <path d="M401.5,296 L264,296 L321,670 L401.5,670 L482,670 L539,296 L401.5,296 Z" id="Rectangle-11" fill="#1A1B2F" sketch:type="MSShapeGroup"></path>
                <rect id="Rectangle-43" fill="#D8D8D8" sketch:type="MSShapeGroup" x="393" y="303" width="16" height="176"></rect>
                <path d="M348,303 L401,303 L400,493 L348,303 Z M462,303 L401.196364,303 L400,494 L462,303 Z" id="Rectangle-11" fill="#EBEBEB" sketch:type="MSShapeGroup"></path>
                <path d="M393.234807,816 C393.235132,815.938246 393.235294,815.876461 393.235294,815.814645 C393.235294,792.16877 369.453713,773 340.117647,773 C310.781581,773 287,792.16877 287,815.814645 C287,815.876461 287.000163,815.938246 287.000487,816 L393.234807,816 Z" id="Oval-18" fill="#ADADAD" sketch:type="MSShapeGroup"></path>
                <path d="M524.234807,814.785953 C524.235132,814.724199 524.235294,814.662414 524.235294,814.600598 C524.235294,790.954722 500.453713,771.785953 471.117647,771.785953 C441.781581,771.785953 418,790.954722 418,814.600598 C418,814.662414 418.000163,814.724199 418.000487,814.785953 L524.234807,814.785953 Z" id="Oval-18-Copy" fill="#ADADAD" sketch:type="MSShapeGroup" transform="translate(471.117647, 793.285953) scale(-1, 1) translate(-471.117647, -793.285953) "></path>
                <path d="M761.436864,204.67331 C756.452173,205.975587 751.075864,206.685474 745.470357,206.685474 C731.021692,206.685474 715.140202,207.094131 706.518578,199.673388 C699.651242,193.762583 698.470357,181.010929 698.470357,172.685474 C698.470357,162.99694 697.530127,150.086146 706.518579,143.893122 C714.950955,138.083232 732.905947,138.685474 745.470357,138.685474 C751.075864,138.685474 756.452173,139.39536 761.436864,140.697637 C739.295835,145.425807 723.470357,157.96284 723.470357,172.685474 C723.470357,187.408107 739.295835,199.94514 761.436864,204.67331 Z" id="Oval-8" fill="#4D4D4D" sketch:type="MSShapeGroup" transform="translate(729.939538, 172.678606) rotate(-39.000000) translate(-729.939538, -172.678606) "></path>
                <path d="M64.4112253,370.550118 C59.426534,371.852396 54.0502251,372.562282 48.4447181,372.562282 C33.9960534,372.562282 18.1145626,372.97094 9.49293932,365.550197 C2.62560331,359.639391 1.44471814,346.887738 1.44471814,338.562282 C1.44471814,328.873748 0.504488044,315.962955 9.49293973,309.76993 C17.9253159,303.960041 35.8803083,304.562282 48.4447181,304.562282 C54.0502251,304.562282 59.426534,305.272168 64.4112253,306.574446 C42.2701956,311.302616 26.4447181,323.839648 26.4447181,338.562282 C26.4447181,353.284916 42.2701956,365.821948 64.4112253,370.550118 Z" id="Oval-8" fill="#4D4D4D" sketch:type="MSShapeGroup" transform="translate(32.913900, 338.555414) scale(-1, 1) rotate(-359.000000) translate(-32.913900, -338.555414) "></path>
                <g id="Robot-Head" transform="translate(265.000000, 0.000000)" sketch:type="MSShapeGroup">
                    <rect id="Rectangle-7" fill="#9B9B9B" x="33" y="96" width="207" height="207"></rect>
                    <circle id="Oval-14" fill="#000000" cx="183" cy="178" r="37"></circle>
                    <circle id="Oval-14-Copy" fill="#000000" cx="90" cy="178" r="37"></circle>
                    <path d="M94.5,260.5 L178.5,260.5" id="Line" stroke="#000000" stroke-width="11" stroke-linecap="square"></path>
                    <rect id="Rectangle-8" fill="#4C4C4C" x="100" y="48" width="74" height="48"></rect>
                    <path d="M246.5,182.5 L273,0" id="Line" stroke="#2B2B2B" stroke-width="10" stroke-linecap="square"></path>
                    <path d="M0.5,188.5 L27,6" id="Line-Copy" stroke="#2B2B2B" stroke-width="10" stroke-linecap="square" transform="translate(13.500000, 97.500000) scale(-1, 1) translate(-13.500000, -97.500000) "></path>
                    <path d="M240,165.001048 C240,165.001048 245.72,164.602406 249.88,179.352144 C254.04,194.101882 254.04,193.304599 249.88,208.054337 C245.72,222.804075 240,224 240,224 L240,165.001048 Z" id="Rectangle-9" fill="#4D4D4D"></path>
                    <path d="M20,165.001048 C20,165.001048 25.72,164.602406 29.88,179.352144 C34.04,194.101882 34.04,193.304599 29.88,208.054337 C25.72,222.804075 20,224 20,224 L20,165.001048 Z" id="Rectangle-9-Copy" fill="#4D4D4D" transform="translate(26.500000, 194.500000) scale(-1, 1) translate(-26.500000, -194.500000) "></path>
                    <g id="Group" transform="translate(79.000000, 167.000000)">
                        <path d="M103.5,21 C109.29899,21 114,16.2989899 114,10.5 C114,4.70101013 109.29899,0 103.5,0 C97.7010101,0 93,4.70101013 93,10.5 C93,16.2989899 97.7010101,21 103.5,21 Z" id="Oval-15-Copy" fill="#7F0000"></path>
                        <circle id="Oval-293" fill="#FD0000" cx="103.5" cy="11.5" r="5.5"></circle>
                        <path d="M10.5,22 C16.2989899,22 21,17.2989899 21,11.5 C21,5.70101013 16.2989899,1 10.5,1 C4.70101013,1 0,5.70101013 0,11.5 C0,17.2989899 4.70101013,22 10.5,22 Z" id="Oval-15-Copy" fill="#7F0000"></path>
                        <circle id="Oval-293" fill="#FD0000" cx="10.5" cy="11.5" r="5.5"></circle>
                    </g>
                </g>
                <path d="M394.62885,344.923192 C386.939149,339.500925 380.605014,326.832656 380.605014,326.832656 L401.111111,306.326559 L421.617208,326.832656 C421.617208,326.832656 414.542508,340.982056 406.269835,345.773947 C407.962871,347.571331 410.545785,350.319641 412.096886,352 C424.096886,364.999999 404.596886,485 404.596886,485 L401,492.193772 L401,493 L400.596886,493 L400.096886,494 L400.096886,493 L400,493 L400,494 L399.5,493 L399,493 L399,492 L395.5,485 C395.5,485 376,364.999999 388,352 C389.824505,350.023453 393.076624,346.569292 394.62885,344.923192 Z" id="Rectangle-42" fill="#EB0000" sketch:type="MSShapeGroup"></path>
                <path d="M331.996044,333.205978 L305,374.000001 L397,494.000001 L350,306.000001 L300,306 L299,341.000001 L331.996044,333.205978 Z" id="Triangle-51" fill="#10101C" sketch:type="MSShapeGroup"></path>
                <path d="M336.05656,329.955473 L309,373.000001 L400,495.000001 L353,303.000001 L303,303 L302,338.000001 L336.05656,329.955473 Z" id="Triangle-51" fill="#1B1C30" sketch:type="MSShapeGroup"></path>
                <path d="M435.996044,333.205978 L409,374.000001 L501,494.000001 L454,306.000001 L404,306 L403,341.000001 L435.996044,333.205978 Z" id="Triangle-51" fill="#10101C" sketch:type="MSShapeGroup" transform="translate(452.000000, 400.000000) scale(-1, 1) translate(-452.000000, -400.000000) "></path>
                <path d="M434.05656,329.955473 L407,373.000001 L498,495.000001 L451,303.000001 L401,303 L400,338.000001 L434.05656,329.955473 Z" id="Triangle-51" fill="#1B1C30" sketch:type="MSShapeGroup" transform="translate(449.000000, 399.000000) scale(-1, 1) translate(-449.000000, -399.000000) "></path>
                <g id="Flag" transform="translate(460.335782, 371.374425) rotate(-340.000000) translate(-460.335782, -371.374425) translate(440.835782, 358.374425)" sketch:type="MSShapeGroup">
                    <rect id="Rectangle-47" fill="#EB0000" x="0" y="-5.68434189e-14" width="38.2435654" height="25.4957102"></rect>
                    <rect id="Rectangle-49" fill="#FFFFFF" x="1.13686838e-13" y="15.2974261" width="38.2435654" height="5.09914205"></rect>
                    <rect id="Rectangle-49" fill="#FFFFFF" x="0" y="5.09914205" width="38.2435654" height="5.09914205"></rect>
                    <rect id="Rectangle-48" fill="#000098" x="0" y="-5.68434189e-14" width="19.1217827" height="10.1982841"></rect>
                </g>
                <g id="Podium" transform="translate(137.500000, 605.000000) scale(-1, 1) translate(-137.500000, -605.000000) translate(40.000000, 387.000000)" fill="#6B2C08" sketch:type="MSShapeGroup">
                    <path d="M21,113 L101,113 L86,436 L21,436 L21,113 Z" id="Rectangle-67" transform="translate(61.000000, 274.500000) scale(-1, 1) translate(-61.000000, -274.500000) "></path>
                    <path d="M94,113 L174,113 L159,436 L94,436 L94,113 Z" id="Rectangle-67"></path>
                    <path d="M0,23.6865672 L195,0 L195,120 L0,120 L0,23.6865672 Z" id="Rectangle-66"></path>
                </g>
                <rect id="Rectangle-273" fill="#4C1F05" sketch:type="MSShapeGroup" x="62" y="507" width="151" height="2"></rect>
            </g>
            <path d="M481.036,322.986 L482.989,322.986 C483.199001,322.986 483.369999,323.036999 483.502,323.139 C483.634001,323.241001 483.733,323.372999 483.799,323.535 L486.859,331.473 C486.961001,331.731001 487.0585,332.014498 487.1515,332.3235 C487.2445,332.632502 487.333,332.957998 487.417,333.3 C487.555001,332.609997 487.725999,332.001003 487.93,331.473 L490.981,323.535 C491.035,323.396999 491.130999,323.271001 491.269,323.157 C491.407001,323.042999 491.577999,322.986 491.782,322.986 L493.735,322.986 L488.479,336 L486.292,336 L481.036,322.986 Z M497.803,326.622 C498.493003,326.622 499.118497,326.732999 499.6795,326.955 C500.240503,327.177001 500.718998,327.491998 501.115,327.9 C501.511002,328.308002 501.816999,328.805997 502.033,329.394 C502.249001,329.982003 502.357,330.638996 502.357,331.365 C502.357,332.097004 502.249001,332.756997 502.033,333.345 C501.816999,333.933003 501.511002,334.433998 501.115,334.848 C500.718998,335.262002 500.240503,335.579999 499.6795,335.802 C499.118497,336.024001 498.493003,336.135 497.803,336.135 C497.112997,336.135 496.486003,336.024001 495.922,335.802 C495.357997,335.579999 494.876502,335.262002 494.4775,334.848 C494.078498,334.433998 493.769501,333.933003 493.5505,333.345 C493.331499,332.756997 493.222,332.097004 493.222,331.365 C493.222,330.638996 493.331499,329.982003 493.5505,329.394 C493.769501,328.805997 494.078498,328.308002 494.4775,327.9 C494.876502,327.491998 495.357997,327.177001 495.922,326.955 C496.486003,326.732999 497.112997,326.622 497.803,326.622 L497.803,326.622 Z M497.803,334.425 C498.571004,334.425 499.139498,334.167003 499.5085,333.651 C499.877502,333.134997 500.062,332.379005 500.062,331.383 C500.062,330.386995 499.877502,329.628003 499.5085,329.106 C499.139498,328.583997 498.571004,328.323 497.803,328.323 C497.022996,328.323 496.447002,328.585497 496.075,329.1105 C495.702998,329.635503 495.517,330.392995 495.517,331.383 C495.517,332.373005 495.702998,333.127497 496.075,333.6465 C496.447002,334.165503 497.022996,334.425 497.803,334.425 L497.803,334.425 Z M507.127,336.144 C506.328996,336.144 505.714002,335.917502 505.282,335.4645 C504.849998,335.011498 504.634,334.386004 504.634,333.588 L504.634,328.431 L503.698,328.431 C503.577999,328.431 503.4745,328.392 503.3875,328.314 C503.3005,328.236 503.257,328.119001 503.257,327.963 L503.257,327.081 L504.742,326.838 L505.21,324.318 C505.234,324.197999 505.2895,324.105 505.3765,324.039 C505.4635,323.973 505.572999,323.94 505.705,323.94 L506.857,323.94 L506.857,326.847 L509.287,326.847 L509.287,328.431 L506.857,328.431 L506.857,333.435 C506.857,333.723001 506.928999,333.947999 507.073,334.11 C507.217001,334.272001 507.408999,334.353 507.649,334.353 C507.787001,334.353 507.9025,334.3365 507.9955,334.3035 C508.0885,334.2705 508.1695,334.236 508.2385,334.2 C508.3075,334.164 508.369,334.1295 508.423,334.0965 C508.477,334.0635 508.531,334.047 508.585,334.047 C508.651,334.047 508.705,334.0635 508.747,334.0965 C508.789,334.1295 508.834,334.179 508.882,334.245 L509.548,335.325 C509.223998,335.595001 508.852002,335.798999 508.432,335.937 C508.011998,336.075001 507.577002,336.144 507.127,336.144 L507.127,336.144 Z M514.876,326.622 C515.458003,326.622 515.993498,326.714999 516.4825,326.901 C516.971502,327.087001 517.392998,327.358498 517.747,327.7155 C518.101002,328.072502 518.376999,328.510497 518.575,329.0295 C518.773001,329.548503 518.872,330.140997 518.872,330.807 C518.872,330.975001 518.8645,331.114499 518.8495,331.2255 C518.8345,331.336501 518.8075,331.4235 518.7685,331.4865 C518.7295,331.5495 518.677,331.5945 518.611,331.6215 C518.545,331.6485 518.461001,331.662 518.359,331.662 L512.653,331.662 C512.719,332.610005 512.973998,333.305998 513.418,333.75 C513.862002,334.194002 514.449996,334.416 515.182,334.416 C515.542002,334.416 515.852499,334.374 516.1135,334.29 C516.374501,334.206 516.602499,334.113001 516.7975,334.011 C516.992501,333.908999 517.163499,333.816 517.3105,333.732 C517.457501,333.648 517.599999,333.606 517.738,333.606 C517.828,333.606 517.906,333.624 517.972,333.66 C518.038,333.696 518.095,333.747 518.143,333.813 L518.791,334.623 C518.544999,334.911001 518.269002,335.152499 517.963,335.3475 C517.656998,335.542501 517.337502,335.698499 517.0045,335.8155 C516.671498,335.932501 516.332502,336.015 515.9875,336.063 C515.642498,336.111 515.308002,336.135 514.984,336.135 C514.341997,336.135 513.745003,336.028501 513.193,335.8155 C512.640997,335.602499 512.161002,335.287502 511.753,334.8705 C511.344998,334.453498 511.024001,333.937503 510.79,333.3225 C510.555999,332.707497 510.439,331.995004 510.439,331.185 C510.439,330.554997 510.540999,329.962503 510.745,329.4075 C510.949001,328.852497 511.241498,328.369502 511.6225,327.9585 C512.003502,327.547498 512.468497,327.222001 513.0175,326.982 C513.566503,326.741999 514.185997,326.622 514.876,326.622 L514.876,326.622 Z M514.921,328.215 C514.272997,328.215 513.766002,328.397998 513.4,328.764 C513.033998,329.130002 512.800001,329.648997 512.698,330.321 L516.874,330.321 C516.874,330.032999 516.835,329.761501 516.757,329.5065 C516.679,329.251499 516.559001,329.028001 516.397,328.836 C516.234999,328.643999 516.031001,328.492501 515.785,328.3815 C515.538999,328.270499 515.251002,328.215 514.921,328.215 L514.921,328.215 Z" id="Vote" fill="#FFFFFF" sketch:type="MSShapeGroup" transform="translate(500.264500, 329.565000) rotate(-17.000000) translate(-500.264500, -329.565000) "></path>
        </g>
    </g>
</svg>