<?xml version="1.0" encoding="UTF-8" standalone="no"?>
<svg width="2155px" height="908px" viewBox="0 0 2155 908" version="1.1" xmlns="http://www.w3.org/2000/svg" xmlns:xlink="http://www.w3.org/1999/xlink" xmlns:sketch="http://www.bohemiancoding.com/sketch/ns">
    <!-- Generator: Sketch 3.4.1 (15681) - http://www.bohemiancoding.com/sketch -->
    <title>Boxing</title>
    <desc>Created with Sketch.</desc>
    <defs></defs>
    <g id="Page-1" stroke="none" stroke-width="1" fill="none" fill-rule="evenodd" sketch:type="MSPage">
        <g id="Boxing" sketch:type="MSArtboardGroup">
            <g id="Robot-Boxer" sketch:type="MSLayerGroup" transform="translate(1139.000000, 17.000000)">
                <g id="Rectangle-20-+-Oval-8" transform="translate(179.963210, 331.329215) rotate(-324.000000) translate(-179.963210, -331.329215) translate(30.463210, 232.546127)" fill="#4D4D4D" sketch:type="MSShapeGroup">
                    <rect id="Rectangle-20" transform="translate(179.553412, 73.546740) rotate(-28.000000) translate(-179.553412, -73.546740) " x="52.9931549" y="58.7801962" width="253.120514" height="29.5330882"></rect>
                    <path d="M76.9946515,183.314521 C72.0099602,184.640737 66.6336512,185.363673 61.0281443,185.363673 C46.5794796,185.363673 30.6979888,185.779842 22.0763655,178.222688 C15.2090295,172.203229 14.0281443,159.21717 14.0281443,150.738673 C14.0281443,140.872041 13.0879142,127.723917 22.0763659,121.41705 C30.5087421,115.500361 48.4637345,116.113673 61.0281443,116.113673 C66.6336512,116.113673 72.0099602,116.836608 76.9946515,118.162825 C54.8536218,122.97791 39.0281443,135.745402 39.0281443,150.738673 C39.0281443,165.731943 54.8536218,178.499436 76.9946515,183.314521 Z" id="Oval-8" transform="translate(45.497326, 150.731679) scale(-1, 1) rotate(-328.000000) translate(-45.497326, -150.731679) "></path>
                </g>
                <rect id="Rectangle-15" fill="#4D4D4D" sketch:type="MSShapeGroup" transform="translate(380.000000, 740.363971) rotate(-356.000000) translate(-380.000000, -740.363971) " x="362" y="678.242647" width="36" height="124.242647"></rect>
                <rect id="Rectangle-15-Copy" fill="#4D4D4D" sketch:type="MSShapeGroup" transform="translate(469.211298, 739.236597) scale(-1, 1) rotate(-356.000000) translate(-469.211298, -739.236597) " x="451.211298" y="677.115274" width="36" height="124.242647"></rect>
                <path d="M421.5,301.441176 L284,301.441176 L341,682.316176 L421.5,682.316176 L502,682.316176 L559,301.441176 L421.5,301.441176 Z" id="Rectangle-11" fill="#868686" sketch:type="MSShapeGroup"></path>
                <path d="M421.5,358.470588 L338,358.470588 L372.614545,589.643382 L421.5,589.643382 L470.385455,589.643382 L505,358.470588 L421.5,358.470588 Z" id="Rectangle-11" fill="#AEAEAE" sketch:type="MSShapeGroup"></path>
                <path d="M413.234807,831 C413.235132,830.937111 413.235294,830.87419 413.235294,830.811238 C413.235294,806.730695 389.453713,787.209559 360.117647,787.209559 C330.781581,787.209559 307,806.730695 307,830.811238 C307,830.87419 307.000163,830.937111 307.000487,831 L413.234807,831 Z" id="Oval-18" fill="#ADADAD" sketch:type="MSShapeGroup"></path>
                <path d="M544.234807,829.763636 C544.235132,829.700746 544.235294,829.637826 544.235294,829.574874 C544.235294,805.494331 520.453713,785.973195 491.117647,785.973195 C461.781581,785.973195 438,805.494331 438,829.574874 C438,829.637826 438.000163,829.700746 438.000487,829.763636 L544.234807,829.763636 Z" id="Oval-18-Copy" fill="#ADADAD" sketch:type="MSShapeGroup" transform="translate(491.117647, 807.868415) scale(-1, 1) translate(-491.117647, -807.868415) "></path>
                <ellipse id="Oval-19" fill="#3C0000" sketch:type="MSShapeGroup" cx="399.5" cy="461.836397" rx="14.5" ry="14.7665441"></ellipse>
                <ellipse id="Oval-19-Copy" fill="#3C0000" sketch:type="MSShapeGroup" cx="399.5" cy="500.534926" rx="14.5" ry="14.7665441"></ellipse>
                <ellipse id="Oval-19-Copy-2" fill="#3C0000" sketch:type="MSShapeGroup" cx="399.5" cy="539.233456" rx="14.5" ry="14.7665441"></ellipse>
                <rect id="Rectangle-17" fill="#2B2B2B" sketch:type="MSShapeGroup" x="378" y="380.875" width="88" height="49.9007353"></rect>
                <g id="Rectangle-20-+-Oval-8" transform="translate(372.031441, 401.520751) rotate(-277.000000) translate(-372.031441, -401.520751) translate(316.031441, 224.831413)" fill="#4D4D4D" sketch:type="MSShapeGroup">
                    <rect id="Rectangle-20" transform="translate(41.180681, 156.981653) rotate(-280.000000) translate(-41.180681, -156.981653) " x="-112.274399" y="142.215109" width="306.910159" height="29.5330882"></rect>
                    <path d="M102.11784,346.03044 C97.1331486,347.356657 91.7568397,348.079593 86.1513327,348.079593 C71.702668,348.079593 55.8211772,348.495762 47.1995539,340.938608 C40.3322179,334.919148 39.1513327,321.93309 39.1513327,313.454593 C39.1513327,303.58796 38.2111026,290.439837 47.1995543,284.13297 C55.6319305,278.21628 73.5869229,278.829593 86.1513327,278.829593 C91.7568397,278.829593 97.1331486,279.552528 102.11784,280.878745 C79.9768102,285.69383 64.1513327,298.461322 64.1513327,313.454593 C64.1513327,328.447863 79.9768102,341.215355 102.11784,346.03044 Z" id="Oval-8" transform="translate(70.620514, 313.447598) rotate(-284.000000) translate(-70.620514, -313.447598) "></path>
                </g>
                <g id="Robot-Head" transform="translate(285.000000, 0.000000)" sketch:type="MSShapeGroup">
                    <rect id="Rectangle-7" fill="#9B9B9B" x="33" y="97.7647059" width="207" height="210.805147"></rect>
                    <ellipse id="Oval-14" fill="#000000" cx="183" cy="181.272059" rx="37" ry="37.6801471"></ellipse>
                    <ellipse id="Oval-14-Copy" fill="#000000" cx="90" cy="181.272059" rx="37" ry="37.6801471"></ellipse>
                    <path d="M94.5,265.288603 L178.5,265.288603" id="Line" stroke="#000000" stroke-width="11" stroke-linecap="square"></path>
                    <rect id="Rectangle-8" fill="#4C4C4C" x="100" y="48.8823529" width="74" height="48.8823529"></rect>
                    <path d="M246.5,185.854779 L273,0" id="Line" stroke="#2B2B2B" stroke-width="10" stroke-linecap="square"></path>
                    <path d="M0.5,191.965074 L27,6.11029412" id="Line-Copy" stroke="#2B2B2B" stroke-width="10" stroke-linecap="square" transform="translate(13.500000, 99.292279) scale(-1, 1) translate(-13.500000, -99.292279) "></path>
                    <path d="M240,168.034156 C240,168.034156 245.72,167.628186 249.88,182.649058 C254.04,197.669931 254.04,196.857992 249.88,211.878865 C245.72,226.899738 240,228.117647 240,228.117647 L240,168.034156 Z" id="Rectangle-9" fill="#4D4D4D"></path>
                    <path d="M20,168.034156 C20,168.034156 25.72,167.628186 29.88,182.649058 C34.04,197.669931 34.04,196.857992 29.88,211.878865 C25.72,226.899738 20,228.117647 20,228.117647 L20,168.034156 Z" id="Rectangle-9-Copy" fill="#4D4D4D" transform="translate(26.500000, 198.075368) scale(-1, 1) translate(-26.500000, -198.075368) "></path>
                    <g id="Group" transform="translate(80.000000, 171.088235)">
                        <path d="M103.5,21.3860294 C109.29899,21.3860294 114,16.5986037 114,10.6930147 C114,4.78742575 109.29899,0 103.5,0 C97.7010101,0 93,4.78742575 93,10.6930147 C93,16.5986037 97.7010101,21.3860294 103.5,21.3860294 Z" id="Oval-15-Copy" fill="#7F0000"></path>
                        <ellipse id="Oval-293" fill="#FD0000" cx="103.5" cy="10.6930147" rx="5.5" ry="5.60110294"></ellipse>
                        <path d="M10.5,21.3860294 C16.2989899,21.3860294 21,16.5986037 21,10.6930147 C21,4.78742575 16.2989899,0 10.5,0 C4.70101013,0 0,4.78742575 0,10.6930147 C0,16.5986037 4.70101013,21.3860294 10.5,21.3860294 Z" id="Oval-15-Copy" fill="#7F0000"></path>
                        <ellipse id="Oval-293" fill="#FD0000" cx="10.5" cy="10.6930147" rx="5.5" ry="5.60110294"></ellipse>
                    </g>
                </g>
                <g id="Rectangle-176-+-Oval-160" transform="translate(80.040359, 312.479396) rotate(-160.000000) translate(-80.040359, -312.479396) translate(20.040359, 264.106234)" fill="#C83B37" sketch:type="MSShapeGroup">
                    <rect id="Rectangle-176" transform="translate(19.601684, 60.571739) rotate(-12.000000) translate(-19.601684, -60.571739) " x="4.10168416" y="42.1866934" width="31" height="36.7700913" rx="4"></rect>
                    <path d="M82.7000766,92.3192018 C114.163128,92.3192018 116.048647,72.5289538 116.048647,48.1164457 C116.048647,23.7039376 114.163128,3.91368962 82.7000766,3.91368962 C51.2370246,3.91368962 25.7311816,23.7039376 25.7311816,48.1164457 C25.7311816,72.5289538 51.2370246,92.3192018 82.7000766,92.3192018 Z" id="Oval-160" transform="translate(70.889914, 48.116446) rotate(-5.000000) translate(-70.889914, -48.116446) "></path>
                </g>
                <g id="Rectangle-176-+-Oval-160" transform="translate(247.911580, 433.371177) rotate(-185.000000) translate(-247.911580, -433.371177) translate(187.911580, 384.998015)" fill="#C83B37" sketch:type="MSShapeGroup">
                    <rect id="Rectangle-176" transform="translate(19.601684, 60.571739) rotate(-12.000000) translate(-19.601684, -60.571739) " x="4.10168416" y="42.1866934" width="31" height="36.7700913" rx="4"></rect>
                    <path d="M82.7000766,92.3192018 C114.163128,92.3192018 116.048647,72.5289538 116.048647,48.1164457 C116.048647,23.7039376 114.163128,3.91368962 82.7000766,3.91368962 C51.2370246,3.91368962 25.7311816,23.7039376 25.7311816,48.1164457 C25.7311816,72.5289538 51.2370246,92.3192018 82.7000766,92.3192018 Z" id="Oval-160" transform="translate(70.889914, 48.116446) rotate(-5.000000) translate(-70.889914, -48.116446) "></path>
                </g>
                <path d="M325,579.459559 L518,579.459559 L525,718.977941 L443,718.977941 L421.5,692.5 L405,718.977941 L318,718.977941 L325,579.459559 Z" id="Rectangle-180" fill="#FFBA13" sketch:type="MSShapeGroup"></path>
                <path d="M325,579.459559 L518,579.459559 L520,614.084559 L323,614.084559 L325,579.459559 Z" id="Rectangle-181" fill="#4A4A4A" sketch:type="MSShapeGroup"></path>
            </g>
            <g id="T-Rex-Boxer" sketch:type="MSLayerGroup" transform="translate(242.000000, 70.000000)">
                <path d="M479.518201,331.626074 C479.518201,331.626074 527.502739,326.853347 552.518201,326.853347 C576.169405,326.853347 625.518201,331.626074 625.518201,331.626074 L625.518201,352.080619 C625.518201,352.080619 576.403314,356.853347 552.518201,356.853347 C527.736648,356.853347 479.518201,352.080619 479.518201,352.080619 L479.518201,331.626074 Z M505.776164,652.895165 C529.560998,683.030862 558.221115,697.228471 574.5619,688.539922 C588.883922,680.924767 617.401337,668.475767 618.991091,635.775591 C620.216002,610.579966 598.071541,566.610877 586.710892,545.244604 C560.605809,496.148084 504.136213,452.314755 478.779011,465.797419 C453.42181,479.280082 447.109072,542.558412 473.214155,591.654932 C482.4965,609.112484 492.652318,636.267079 505.776164,652.895165 Z" id="Rectangle-3" fill="#8CB18E" sketch:type="MSShapeGroup" transform="translate(540.980968, 508.958438) rotate(-346.000000) translate(-540.980968, -508.958438) "></path>
                <path d="M719.256664,406.594379 C714.271973,407.896657 708.895664,408.606543 703.290157,408.606543 C677.332774,408.606543 656.290157,393.384225 656.290157,374.606543 C656.290157,355.828862 677.332774,340.606543 703.290157,340.606543 C708.895664,340.606543 714.271973,341.316429 719.256664,342.618707 C697.115635,347.346877 681.290157,359.883909 681.290157,374.606543 C681.290157,389.329177 697.115635,401.866209 719.256664,406.594379 Z" id="Oval-8" fill="#8CB18E" sketch:type="MSShapeGroup" transform="translate(687.773411, 374.606543) rotate(-346.000000) translate(-687.773411, -374.606543) "></path>
                <path d="M519.753398,579.04763 C603.206317,583.475975 616.368335,526.021269 616.368335,390.987648 C616.368335,322.702964 572.92657,288.431224 550.757663,244.071891 C529.087343,200.710215 558.163133,164.398155 513.390839,164.398155 C470.803117,164.398155 481.390748,191.159583 471.490005,229.871955 C460.334049,273.492268 431.581421,333.222652 431.581421,404.764213 C431.581421,539.797834 436.300479,574.619285 519.753398,579.04763 Z" id="Oval-6" fill="#8CB18E" sketch:type="MSShapeGroup" transform="translate(523.974878, 371.841370) rotate(-344.000000) translate(-523.974878, -371.841370) "></path>
                <path d="M558.24446,592.885558 C606.290573,597.313903 613.868305,539.859197 613.868305,404.825576 C613.868305,336.540893 588.8577,302.269153 576.094458,257.90982 C563.618266,214.548144 580.357988,178.236083 554.581362,178.236083 C530.062454,178.236083 536.15804,204.997512 530.457913,243.709884 C524.035126,287.330197 507.481457,347.060581 507.481457,418.602142 C507.481457,553.635763 510.198347,588.457214 558.24446,592.885558 Z" id="Oval-6" fill="#CAFBCC" sketch:type="MSShapeGroup" transform="translate(560.674881, 385.679298) rotate(-344.000000) translate(-560.674881, -385.679298) "></path>
                <g id="Head" transform="translate(516.000000, 0.000000)" sketch:type="MSShapeGroup">
                    <g id="Lower-Teeth" transform="translate(190.126285, 152.855936) scale(1, -1) rotate(-9.000000) translate(-190.126285, -152.855936) translate(125.626285, 137.855936)" stroke="#979797" fill="#FFFFFF">
                        <polygon id="Triangle-2" transform="translate(116.037290, 11.592293) rotate(-186.000000) translate(-116.037290, -11.592293) " points="116.03729 1.092293 127.03729 22.092293 105.03729 22.092293 "></polygon>
                        <polygon id="Triangle-2" transform="translate(97.037290, 14.592293) rotate(-189.000000) translate(-97.037290, -14.592293) " points="97.0372897 4.092293 108.03729 25.092293 86.0372897 25.092293 "></polygon>
                        <polygon id="Triangle-2" transform="translate(78.037290, 16.592293) rotate(-190.000000) translate(-78.037290, -16.592293) " points="78.0372897 6.092293 89.0372897 27.092293 67.0372897 27.092293 "></polygon>
                        <polygon id="Triangle-2" transform="translate(59.506593, 17.629228) rotate(-189.000000) translate(-59.506593, -17.629228) " points="59.5065931 7.12922798 70.5065931 28.129228 48.5065931 28.129228 "></polygon>
                        <polygon id="Triangle-2" transform="translate(41.963585, 17.822597) rotate(-189.000000) translate(-41.963585, -17.822597) " points="41.9635848 7.32259742 52.9635848 28.3225974 30.9635848 28.3225974 "></polygon>
                        <polygon id="Triangle-2" transform="translate(26.527764, 17.654016) rotate(-188.000000) translate(-26.527764, -17.654016) " points="26.5277644 7.15401638 37.5277644 28.1540164 15.5277644 28.1540164 "></polygon>
                        <polygon id="Triangle-2" transform="translate(26.527764, 17.654016) rotate(-188.000000) translate(-26.527764, -17.654016) " points="26.5277644 7.15401638 37.5277644 28.1540164 15.5277644 28.1540164 "></polygon>
                        <polygon id="Triangle-2" transform="translate(12.390768, 17.776841) rotate(-186.000000) translate(-12.390768, -17.776841) " points="12.3907683 7.2768409 23.3907683 28.2768409 1.39076832 28.2768409 "></polygon>
                    </g>
                    <g id="Upper-Teeth" transform="translate(106.000000, 97.000000)" stroke="#979797" fill="#FFFFFF">
                        <polygon id="Triangle-2" transform="translate(179.037290, 15.592293) rotate(-186.000000) translate(-179.037290, -15.592293) " points="179.03729 5.092293 190.03729 26.092293 168.03729 26.092293 "></polygon>
                        <polygon id="Triangle-2" transform="translate(160.037290, 14.592293) rotate(-189.000000) translate(-160.037290, -14.592293) " points="160.03729 4.092293 171.03729 25.092293 149.03729 25.092293 "></polygon>
                        <polygon id="Triangle-2" transform="translate(141.037290, 21.592293) rotate(-190.000000) translate(-141.037290, -21.592293) " points="141.03729 11.092293 152.03729 32.092293 130.03729 32.092293 "></polygon>
                        <polygon id="Triangle-2" transform="translate(122.037290, 21.592293) rotate(-189.000000) translate(-122.037290, -21.592293) " points="122.03729 11.092293 133.03729 32.092293 111.03729 32.092293 "></polygon>
                        <polygon id="Triangle-2" transform="translate(103.037290, 27.592293) rotate(-189.000000) translate(-103.037290, -27.592293) " points="103.03729 17.092293 114.03729 38.092293 92.0372897 38.092293 "></polygon>
                        <polygon id="Triangle-2" transform="translate(83.037290, 27.592293) rotate(-188.000000) translate(-83.037290, -27.592293) " points="83.0372897 17.092293 94.0372897 38.092293 72.0372897 38.092293 "></polygon>
                        <polygon id="Triangle-2" transform="translate(47.037290, 31.592293) rotate(-190.000000) translate(-47.037290, -31.592293) " points="47.0372897 21.092293 58.0372897 42.092293 36.0372897 42.092293 "></polygon>
                        <polygon id="Triangle-2" transform="translate(63.037290, 29.592293) rotate(-189.000000) translate(-63.037290, -29.592293) " points="63.0372897 19.092293 74.0372897 40.092293 52.0372897 40.092293 "></polygon>
                        <polygon id="Triangle-2" transform="translate(30.037290, 31.592293) rotate(-189.000000) translate(-30.037290, -31.592293) " points="30.0372897 21.092293 41.0372897 42.092293 19.0372897 42.092293 "></polygon>
                        <polygon id="Triangle-2" transform="translate(13.037290, 32.592293) rotate(-190.000000) translate(-13.037290, -32.592293) " points="13.0372897 22.092293 24.0372897 43.092293 2.03728971 43.092293 "></polygon>
                        <polygon id="Triangle-2" transform="translate(198.936272, 13.286298) rotate(-186.000000) translate(-198.936272, -13.286298) " points="198.936272 2.00212561 210.757786 24.5704708 187.114758 24.5704708 "></polygon>
                    </g>
                    <path d="M262.785172,177.850571 C231.23875,197.255067 190.228572,210 150,210 C67.1572875,210 -5.68434189e-14,165.452333 -5.68434189e-14,110.5 C-5.68434189e-14,55.5476674 67.1572875,11 150,11 C193.893839,11 265.553776,18.5741717 298,36 C326.185765,51.1376717 319.311351,74.1712067 319.009914,99.3737492 L100.297132,130.752512 L262.78518,177.850566 Z" id="Oval-1" fill="#8CB18E"></path>
                    <ellipse id="Oval-2" fill="#8CB18E" cx="101.5" cy="41" rx="54.5" ry="41"></ellipse>
                    <path d="M138.334414,35.3582562 C138.494467,36.4698789 138.576726,37.6004446 138.576726,38.7463805 C138.576726,54.9229074 122.184643,68.0365734 101.963985,68.0365734 C81.7433259,68.0365734 65.3512434,54.9229074 65.3512434,38.7463805 C65.3512434,31.3449037 68.7828724,24.5846268 74.44273,19.4282701 L138.334414,35.3582562 Z" id="Oval-3" fill="#ECECEC" transform="translate(101.963985, 43.732422) rotate(-351.000000) translate(-101.963985, -43.732422) "></path>
                    <path d="M133.411855,34.6575903 C133.521863,35.4216385 133.578402,36.1987068 133.578402,36.9863394 C133.578402,48.1049023 122.311682,57.1182785 108.413478,57.1182785 C94.5152742,57.1182785 83.248554,48.1049023 83.248554,36.9863394 C83.248554,31.8991049 85.6072052,27.2525843 89.4973779,23.7084815 L133.411855,34.6575903 Z" id="Oval-3" fill="#454545" transform="translate(108.413478, 40.413380) rotate(-351.000000) translate(-108.413478, -40.413380) "></path>
                    <ellipse id="Oval-5" fill="#4A4A4A" transform="translate(273.619638, 66.068495) rotate(-58.000000) translate(-273.619638, -66.068495) " cx="273.619638" cy="66.068495" rx="7.5" ry="16.5"></ellipse>
                </g>
                <path d="M303.169953,551.39379 C365.688946,523.946603 416.443029,417 416.443029,417 L466,604.64416 C466,604.64416 112.021637,635.072942 64.824521,624.930015 C17.6274049,614.787087 228.030693,584.381546 303.169953,551.39379 Z" id="Triangle-21" fill="#8CB18E" sketch:type="MSShapeGroup"></path>
                <path d="M709.34752,323.790591 C704.362829,325.092869 698.98652,325.802755 693.381013,325.802755 C667.42363,325.802755 646.381013,310.580436 646.381013,291.802755 C646.381013,273.025073 667.42363,257.802755 693.381013,257.802755 C698.98652,257.802755 704.362829,258.512641 709.34752,259.814919 C687.20649,264.543089 671.381013,277.080121 671.381013,291.802755 C671.381013,306.525389 687.20649,319.062421 709.34752,323.790591 Z" id="Oval-8" fill="#8CB18E" sketch:type="MSShapeGroup" transform="translate(677.864266, 291.802755) rotate(-12.000000) translate(-677.864266, -291.802755) "></path>
                <path d="M397.811975,632.058061 C404.664884,669.832605 423.304891,695.82346 441.811975,695.82346 C458.032669,695.82346 489.056503,698.21976 505.811975,670.093562 C518.722137,648.422208 519.811975,599.203611 519.811975,575.00481 C519.811975,519.399562 490.530782,454.18616 461.811975,454.18616 C433.093168,454.18616 397.811975,507.093959 397.811975,562.699207 C397.811975,582.471108 394.03072,611.21506 397.811975,632.058061 Z" id="Oval-12" fill="#8CB18E" sketch:type="MSShapeGroup" transform="translate(457.971696, 575.030206) rotate(-351.000000) translate(-457.971696, -575.030206) "></path>
                <path d="M425.277856,687.08108 C425.277856,687.08108 536.084112,685.413595 552.597273,701.878304 C569.110433,718.343013 492.176751,753.783687 492.176751,753.783687 C492.176751,753.783687 422.822983,769.756006 398.615701,753.783683 C374.408419,737.811361 425.277856,687.08108 425.277856,687.08108 Z" id="Rectangle-5" fill="#8CB18E" sketch:type="MSShapeGroup" transform="translate(473.502067, 723.958133) rotate(-339.000000) translate(-473.502067, -723.958133) "></path>
                <path d="M563.358352,659.125018 C563.358352,659.125018 641.903498,649.704052 651.303917,665.378566 C660.704337,681.053081 597.802822,716.558661 597.802822,716.558661 C597.802822,716.558661 556.793117,738.443047 532.764557,722.588648 C508.735996,706.734248 563.358352,659.125018 563.358352,659.125018 Z" id="Rectangle-5" fill="#8CB18E" sketch:type="MSShapeGroup" transform="translate(589.459161, 692.334790) rotate(-339.000000) translate(-589.459161, -692.334790) "></path>
                <path d="M517.562469,720.974618 C529.219823,718.273524 545.868177,721.485173 558.562469,725.974618 C573.20151,731.15184 577.562469,747.974618 577.562469,747.974618 C577.562469,747.974618 557.599056,735.474618 541.562469,735.474618 C530.265723,735.474618 524.576905,739.712506 517.562469,735.474618 C510.548033,731.236729 505.905115,723.675712 517.562469,720.974618 Z" id="Triangle-22" fill="#D8D8D8" sketch:type="MSShapeGroup" transform="translate(544.008957, 733.979723) rotate(-353.000000) translate(-544.008957, -733.979723) "></path>
                <path d="M584.677677,697.243148 C594.753024,694.908616 609.142047,697.684416 620.11361,701.564603 C632.766003,706.03923 636.53514,720.579006 636.53514,720.579006 C636.53514,720.579006 619.280941,709.775368 605.420662,709.775368 C595.656985,709.775368 590.740191,713.438137 584.677677,709.775368 C578.615163,706.112599 574.60233,699.577679 584.677677,697.243148 Z" id="Triangle-22" fill="#D8D8D8" sketch:type="MSShapeGroup" transform="translate(607.535140, 708.483344) rotate(-351.000000) translate(-607.535140, -708.483344) "></path>
                <path d="M478.395215,735.178999 C490.052569,732.477905 506.700923,735.689554 519.395215,740.178999 C534.034257,745.356221 538.395215,762.178999 538.395215,762.178999 C538.395215,762.178999 518.431802,749.678999 502.395215,749.678999 C491.098469,749.678999 485.409651,753.916887 478.395215,749.678999 C471.380779,745.44111 466.737861,737.880093 478.395215,735.178999 Z" id="Triangle-22" fill="#D8D8D8" sketch:type="MSShapeGroup" transform="translate(504.841704, 748.184104) rotate(-347.000000) translate(-504.841704, -748.184104) "></path>
                <path d="M618.142537,682.855466 C628.217884,680.520934 642.606907,683.296734 653.57847,687.176921 C666.230862,691.651548 670,706.191325 670,706.191325 C670,706.191325 652.745801,695.387686 638.885522,695.387686 C629.121845,695.387686 624.205051,699.050455 618.142537,695.387686 C612.080022,691.724917 608.06719,685.189998 618.142537,682.855466 Z" id="Triangle-22" fill="#D8D8D8" sketch:type="MSShapeGroup" transform="translate(641.000000, 694.095662) rotate(-352.000000) translate(-641.000000, -694.095662) "></path>
                <path d="M458,304 C461.648168,297.40259 468.111133,289.5882 471,285 C478.056799,273.792142 499,241 499,241 C499,241 530.101734,270.162073 553,279 C568.101734,284.82874 613,285 613,285 C613,285 617,324.686529 617,340 C617,361.12827 613,401 613,401 L441,340 C441,340 448.351199,321.449056 458,304 Z" id="Rectangle-173" fill="#4A4A4A" sketch:type="MSShapeGroup"></path>
                <path d="M510,301.772727 C510,301.772727 557.984538,297 583,297 C606.651205,297 656,301.772727 656,301.772727 L656,322.227273 C656,322.227273 606.885114,327 583,327 C558.218447,327 510,322.227273 510,322.227273 L510,301.772727 Z" id="Rectangle-3" fill="#8CB18E" sketch:type="MSShapeGroup" transform="translate(583.000000, 312.000000) rotate(-12.000000) translate(-583.000000, -312.000000) "></path>
                <g id="Rectangle-176-+-Oval-160" transform="translate(620.000000, 241.000000)" fill="#C83B37" sketch:type="MSShapeGroup">
                    <rect id="Rectangle-176" transform="translate(18.500000, 59.000000) rotate(-12.000000) translate(-18.500000, -59.000000) " x="3" y="44" width="31" height="30" rx="4"></rect>
                    <path d="M81.7000766,90.6527902 C113.163128,90.6527902 115.048647,71.2197669 115.048647,47.2479178 C115.048647,23.2760687 113.163128,3.8430454 81.7000766,3.8430454 C50.2370246,3.8430454 24.7311816,23.2760687 24.7311816,47.2479178 C24.7311816,71.2197669 50.2370246,90.6527902 81.7000766,90.6527902 Z" id="Oval-160" transform="translate(69.889914, 47.247918) rotate(-5.000000) translate(-69.889914, -47.247918) "></path>
                </g>
                <g id="Rectangle-176-+-Oval-160-Copy" transform="translate(61.319927, 626.531184) rotate(-178.000000) translate(-61.319927, -626.531184) translate(1.819927, 579.031184)" fill="#C83B37" sketch:type="MSShapeGroup">
                    <rect id="Rectangle-176" transform="translate(18.500000, 59.000000) rotate(-12.000000) translate(-18.500000, -59.000000) " x="3" y="44" width="31" height="30" rx="4"></rect>
                    <path d="M81.7000766,90.6527902 C113.163128,90.6527902 115.048647,71.2197669 115.048647,47.2479178 C115.048647,23.2760687 113.163128,3.8430454 81.7000766,3.8430454 C50.2370246,3.8430454 24.7311816,23.2760687 24.7311816,47.2479178 C24.7311816,71.2197669 50.2370246,90.6527902 81.7000766,90.6527902 Z" id="Oval-160" transform="translate(69.889914, 47.247918) rotate(-5.000000) translate(-69.889914, -47.247918) "></path>
                </g>
                <g id="Rectangle-176-+-Oval-160" transform="translate(684.500000, 370.500000) rotate(-334.000000) translate(-684.500000, -370.500000) translate(625.000000, 323.000000)" fill="#C83B37" sketch:type="MSShapeGroup">
                    <rect id="Rectangle-176" transform="translate(18.500000, 59.000000) rotate(-12.000000) translate(-18.500000, -59.000000) " x="3" y="44" width="31" height="30" rx="4"></rect>
                    <path d="M81.7000766,90.6527902 C113.163128,90.6527902 115.048647,71.2197669 115.048647,47.2479178 C115.048647,23.2760687 113.163128,3.8430454 81.7000766,3.8430454 C50.2370246,3.8430454 24.7311816,23.2760687 24.7311816,47.2479178 C24.7311816,71.2197669 50.2370246,90.6527902 81.7000766,90.6527902 Z" id="Oval-160" transform="translate(69.889914, 47.247918) rotate(-5.000000) translate(-69.889914, -47.247918) "></path>
                </g>
                <path d="M517.780198,591 C518.476392,593.39081 519.738041,595.254858 522,595 C541.465109,592.806836 581.000001,578 581.000001,578 C581.000001,578 581.576682,570.333731 579,560 C576.940408,551.740049 569.538119,542.085134 570,531 C570.286485,524.124348 575.882714,516.366998 579,508 C582.70457,498.056694 584,488 584,488 L414,424 C414,424 404.189286,439.12718 395,453 C388.6166,462.636849 375.184252,478.633647 374,488 C372.20835,502.170327 397.836032,525.35671 400,549 C403.203864,584.0051 391,610 391,610 C391,610 424.152293,611.873023 455.000001,610 C478.753799,608.557708 498.728814,603.798125 516,601 C517.6055,600.739891 517.831304,595.784343 517.668229,591 L517.780198,591 Z" id="Rectangle-174" fill="#4A4A4A" sketch:type="MSShapeGroup"></path>
            </g>
        </g>
    </g>
</svg>