<?xml version="1.0" encoding="UTF-8" standalone="no"?>
<svg width="2155px" height="908px" viewBox="0 0 2155 908" version="1.1" xmlns="http://www.w3.org/2000/svg" xmlns:xlink="http://www.w3.org/1999/xlink" xmlns:sketch="http://www.bohemiancoding.com/sketch/ns">
    <!-- Generator: Sketch 3.4.1 (15681) - http://www.bohemiancoding.com/sketch -->
    <title>Dance Off</title>
    <desc>Created with Sketch.</desc>
    <defs>
        <filter x="-50%" y="-50%" width="200%" height="200%" filterUnits="objectBoundingBox" id="filter-1">
            <feMorphology radius="5" in="SourceAlpha" operator="dilate" result="shadowSpreadInner1"></feMorphology>
            <feOffset dx="0" dy="1" in="shadowSpreadInner1" result="shadowOffsetInner1"></feOffset>
            <feGaussianBlur stdDeviation="1.5" in="shadowOffsetInner1" result="shadowBlurInner1"></feGaussianBlur>
            <feComposite in="shadowBlurInner1" in2="SourceAlpha" operator="arithmetic" k2="-1" k3="1" result="shadowInnerInner1"></feComposite>
            <feColorMatrix values="0 0 0 0 0   0 0 0 0 0   0 0 0 0 0  0 0 0 0.35 0" in="shadowInnerInner1" type="matrix" result="shadowMatrixInner1"></feColorMatrix>
            <feMerge>
                <feMergeNode in="SourceGraphic"></feMergeNode>
                <feMergeNode in="shadowMatrixInner1"></feMergeNode>
            </feMerge>
        </filter>
        <filter x="-50%" y="-50%" width="200%" height="200%" filterUnits="objectBoundingBox" id="filter-2">
            <feMorphology radius="5" in="SourceAlpha" operator="dilate" result="shadowSpreadInner1"></feMorphology>
            <feOffset dx="0" dy="1" in="shadowSpreadInner1" result="shadowOffsetInner1"></feOffset>
            <feGaussianBlur stdDeviation="1.5" in="shadowOffsetInner1" result="shadowBlurInner1"></feGaussianBlur>
            <feComposite in="shadowBlurInner1" in2="SourceAlpha" operator="arithmetic" k2="-1" k3="1" result="shadowInnerInner1"></feComposite>
            <feColorMatrix values="0 0 0 0 0   0 0 0 0 0   0 0 0 0 0  0 0 0 0.35 0" in="shadowInnerInner1" type="matrix" result="shadowMatrixInner1"></feColorMatrix>
            <feMerge>
                <feMergeNode in="SourceGraphic"></feMergeNode>
                <feMergeNode in="shadowMatrixInner1"></feMergeNode>
            </feMerge>
        </filter>
    </defs>
    <g id="Page-1" stroke="none" stroke-width="1" fill="none" fill-rule="evenodd" sketch:type="MSPage">
        <g id="Dance-Off" sketch:type="MSArtboardGroup">
            <g id="Robot-Dance-Off" sketch:type="MSLayerGroup" transform="translate(174.000000, 18.000000)">
                <rect id="Rectangle-20" fill="#4D4D4D" sketch:type="MSShapeGroup" transform="translate(104.090380, 238.039629) rotate(-297.000000) translate(-104.090380, -238.039629) " x="-22.4698776" y="223.539629" width="253.120514" height="29"></rect>
                <rect id="Rectangle-20" fill="#4D4D4D" sketch:type="MSShapeGroup" transform="translate(438.800641, 432.746556) rotate(-300.000000) translate(-438.800641, -432.746556) " x="312.240384" y="418.246556" width="253.120514" height="29"></rect>
                <rect id="Rectangle-15" fill="#4D4D4D" sketch:type="MSShapeGroup" transform="translate(214.000000, 726.000000) rotate(-338.000000) translate(-214.000000, -726.000000) " x="196" y="658" width="36" height="136"></rect>
                <rect id="Rectangle-15-Copy" fill="#4D4D4D" sketch:type="MSShapeGroup" transform="translate(316.211298, 725.892976) scale(-1, 1) rotate(-358.000000) translate(-316.211298, -725.892976) " x="298.211298" y="664.892976" width="36" height="122"></rect>
                <path d="M273.5,296 L136,296 L193,670 L273.5,670 L354,670 L411,296 L273.5,296 Z" id="Rectangle-11" fill="#868686" sketch:type="MSShapeGroup"></path>
                <path d="M273.5,352 L190,352 L224.614545,579 L273.5,579 L322.385455,579 L357,352 L273.5,352 Z" id="Rectangle-11" fill="#AEAEAE" sketch:type="MSShapeGroup"></path>
                <path d="M231.234807,816 C231.235132,815.938246 231.235294,815.876461 231.235294,815.814645 C231.235294,792.16877 207.453713,773 178.117647,773 C148.781581,773 125,792.16877 125,815.814645 C125,815.876461 125.000163,815.938246 125.000487,816 L231.234807,816 Z" id="Oval-18" fill="#ADADAD" sketch:type="MSShapeGroup"></path>
                <path d="M391.234807,814.785953 C391.235132,814.724199 391.235294,814.662414 391.235294,814.600598 C391.235294,790.954722 367.453713,771.785953 338.117647,771.785953 C308.781581,771.785953 285,790.954722 285,814.600598 C285,814.662414 285.000163,814.724199 285.000487,814.785953 L391.234807,814.785953 Z" id="Oval-18-Copy" fill="#ADADAD" sketch:type="MSShapeGroup" transform="translate(338.117647, 793.285953) scale(-1, 1) translate(-338.117647, -793.285953) "></path>
                <circle id="Oval-19" fill="#652BD4" sketch:type="MSShapeGroup" cx="251.5" cy="453.5" r="14.5"></circle>
                <path d="M251.5,506 C259.508129,506 266,499.508129 266,491.5 C266,483.491871 259.508129,477 251.5,477 C243.491871,477 237,483.491871 237,491.5 C237,499.508129 243.491871,506 251.5,506 Z" id="Oval-19-Copy" fill="#404DF1" sketch:type="MSShapeGroup"></path>
                <path d="M251.5,544 C259.508129,544 266,537.508129 266,529.5 C266,521.491871 259.508129,515 251.5,515 C243.491871,515 237,521.491871 237,529.5 C237,537.508129 243.491871,544 251.5,544 Z" id="Oval-19-Copy-2" fill="#3190BC" sketch:type="MSShapeGroup"></path>
                <rect id="Rectangle-17" fill="#2B2B2B" sketch:type="MSShapeGroup" x="230" y="374" width="88" height="49"></rect>
                <path d="M548.11784,598.784404 C543.133149,600.086681 537.75684,600.796567 532.151333,600.796567 C517.702668,600.796567 501.821177,601.205225 493.199554,593.784482 C486.332218,587.873676 485.151333,575.122023 485.151333,566.796567 C485.151333,557.108033 484.211103,544.19724 493.199554,538.004216 C501.631931,532.194326 519.586923,532.796567 532.151333,532.796567 C537.75684,532.796567 543.133149,533.506454 548.11784,534.808731 C525.97681,539.536901 510.151333,552.073933 510.151333,566.796567 C510.151333,581.519201 525.97681,594.056233 548.11784,598.784404 Z" id="Oval-8" fill="#4D4D4D" sketch:type="MSShapeGroup" transform="translate(516.620514, 566.789700) rotate(-300.000000) translate(-516.620514, -566.789700) "></path>
                <path d="M72.2315988,137.528614 C67.2469075,138.830892 61.8705985,139.540778 56.2650916,139.540778 C41.8164269,139.540778 25.9349361,139.949436 17.3133128,132.528693 C10.4459768,126.617887 9.2650916,113.866234 9.2650916,105.540778 C9.2650916,95.8522442 8.32486151,82.9414512 17.3133132,76.7484264 C25.7456894,70.9385366 43.7006818,71.5407782 56.2650916,71.5407782 C61.8705985,71.5407782 67.2469075,72.2506644 72.2315988,73.552942 C50.0905691,78.2811121 34.2650916,90.8181443 34.2650916,105.540778 C34.2650916,120.263412 50.0905691,132.800444 72.2315988,137.528614 Z" id="Oval-8" fill="#4D4D4D" sketch:type="MSShapeGroup" transform="translate(40.734273, 105.533910) scale(-1, 1) rotate(-77.000000) translate(-40.734273, -105.533910) "></path>
                <g id="Robot-Head" transform="translate(137.000000, 0.000000)" sketch:type="MSShapeGroup">
                    <rect id="Rectangle-7" fill="#9B9B9B" x="33" y="96" width="207" height="207"></rect>
                    <circle id="Oval-14" fill="#000000" cx="183" cy="178" r="37"></circle>
                    <circle id="Oval-14-Copy" fill="#000000" cx="90" cy="178" r="37"></circle>
                    <circle id="Oval-15" fill="#FF0000" filter="url(#filter-1)" cx="90.5" cy="178.5" r="10.5"></circle>
                    <circle id="Oval-15-Copy" fill="#FF0000" filter="url(#filter-2)" cx="183.5" cy="178.5" r="10.5"></circle>
                    <path d="M94.5,260.5 L178.5,260.5" id="Line" stroke="#000000" stroke-width="11" stroke-linecap="square"></path>
                    <rect id="Rectangle-8" fill="#4C4C4C" x="100" y="48" width="74" height="48"></rect>
                    <path d="M246.5,182.5 L273,0" id="Line" stroke="#2B2B2B" stroke-width="10" stroke-linecap="square"></path>
                    <path d="M0.5,188.5 L27,6" id="Line-Copy" stroke="#2B2B2B" stroke-width="10" stroke-linecap="square" transform="translate(13.500000, 97.500000) scale(-1, 1) translate(-13.500000, -97.500000) "></path>
                    <path d="M240,165.001048 C240,165.001048 245.72,164.602406 249.88,179.352144 C254.04,194.101882 254.04,193.304599 249.88,208.054337 C245.72,222.804075 240,224 240,224 L240,165.001048 Z" id="Rectangle-9" fill="#4D4D4D"></path>
                    <path d="M20,165.001048 C20,165.001048 25.72,164.602406 29.88,179.352144 C34.04,194.101882 34.04,193.304599 29.88,208.054337 C25.72,222.804075 20,224 20,224 L20,165.001048 Z" id="Rectangle-9-Copy" fill="#4D4D4D" transform="translate(26.500000, 194.500000) scale(-1, 1) translate(-26.500000, -194.500000) "></path>
                </g>
                <g id="Group" transform="translate(231.000000, 375.000000)" sketch:type="MSShapeGroup">
                    <rect id="Rectangle-263" fill="#0DF1FC" x="0" y="40" width="20" height="7" rx="31"></rect>
                    <rect id="Rectangle-263-Copy-11" fill="#3190BC" x="0" y="32" width="20" height="7" rx="31"></rect>
                    <rect id="Rectangle-263-Copy-12" fill="#404DF1" x="66" y="24" width="20" height="7" rx="31"></rect>
                    <rect id="Rectangle-263-Copy" fill="#0DF1FC" x="22" y="40" width="20" height="7" rx="31"></rect>
                    <rect id="Rectangle-263-Copy-9" fill="#3190BC" x="22" y="32" width="20" height="7" rx="31"></rect>
                    <rect id="Rectangle-263-Copy-10" fill="#404DF1" x="0" y="24" width="20" height="7" rx="31"></rect>
                    <rect id="Rectangle-263-Copy-13" fill="#652BD4" x="66" y="16" width="20" height="7" rx="31"></rect>
                    <rect id="Rectangle-263-Copy-2" fill="#0DF1FC" x="44" y="40" width="20" height="7" rx="31"></rect>
                    <rect id="Rectangle-263-Copy-4" fill="#3190BC" x="44" y="32" width="20" height="7" rx="31"></rect>
                    <rect id="Rectangle-263-Copy-5" fill="#404DF1" x="44" y="24" width="20" height="7" rx="31"></rect>
                    <rect id="Rectangle-263-Copy-6" fill="#652BD4" x="44" y="16" width="20" height="7" rx="31"></rect>
                    <rect id="Rectangle-263-Copy-7" fill="#AD42B6" x="44" y="8" width="20" height="7" rx="31"></rect>
                    <rect id="Rectangle-263-Copy-8" fill="#E43EFF" x="44" y="0" width="20" height="7" rx="31"></rect>
                    <rect id="Rectangle-263-Copy-3" fill="#0DF1FC" x="66" y="40" width="20" height="7" rx="31"></rect>
                    <rect id="Rectangle-263-Copy-14" fill="#3190BC" x="66" y="32" width="20" height="7" rx="31"></rect>
                </g>
                <g id="Sunglasses" transform="translate(178.000000, 138.000000)" fill="#1D1D1D" sketch:type="MSShapeGroup">
                    <g id="Oval-291-+-Rectangle-257" stroke="#3190BC" stroke-width="4">
                        <path d="M30.641512,1 C36.753474,0.376417707 43.6317017,1 50.5,1 C63.1602852,1 78.3879657,0.0618543414 86,8.99999961 C92.1685741,16.2432161 92,32.2404681 92,42.5 C92,65.4198171 73.4198171,84 50.5,84 C27.5801829,84 9,65.4198171 9,42.5 C9,38.7354175 9.20885317,33.4108124 9.80941767,28 L0,28 L0,1 L30.641512,1 Z" id="Oval-291"></path>
                    </g>
                    <g id="Oval-291-+-Rectangle-257" transform="translate(145.000000, 42.000000) scale(-1, 1) translate(-145.000000, -42.000000) translate(99.000000, 0.000000)" stroke="#3190BC" stroke-width="4">
                        <path d="M30.641512,1 C36.753474,0.376417707 43.6317017,1 50.5,1 C63.1602852,1 78.3879657,0.0618543414 86,8.99999961 C92.1685741,16.2432161 92,32.2404681 92,42.5 C92,65.4198171 73.4198171,84 50.5,84 C27.5801829,84 9,65.4198171 9,42.5 C9,38.7354175 9.20885317,33.4108124 9.80941767,28 L0,28 L0,1 L30.641512,1 Z" id="Oval-291"></path>
                    </g>
                    <rect id="Rectangle-259" x="83" y="14" width="27" height="23"></rect>
                </g>
            </g>
            <g id="T-Rex-Dance-Off" sketch:type="MSLayerGroup" transform="translate(1647.105909, 412.616380) scale(-1, -1) rotate(-24.000000) translate(-1647.105909, -412.616380) translate(1251.105909, 17.616380)">
                <path d="M483,315.636036 C483,315.636036 530.984538,310.863308 556,310.863308 C579.651205,310.863308 629,315.636036 629,315.636036 L629,336.090581 C629,336.090581 579.885114,340.863308 556,340.863308 C531.218447,340.863308 483,336.090581 483,336.090581 L483,315.636036 Z" id="Rectangle-3" fill="#8CB18E" sketch:type="MSShapeGroup"></path>
                <g id="Group" transform="translate(457.359999, 597.640645) rotate(-11.000000) translate(-457.359999, -597.640645) translate(350.359999, 467.140645)" fill="#8CB18E" sketch:type="MSShapeGroup">
                    <path d="M75.3644685,206.084624 C99.1493017,236.220321 127.809419,250.41793 144.150204,241.729381 C158.472226,234.114226 186.989641,221.665226 188.579395,188.96505 C189.804306,163.769425 167.659845,119.800336 156.299196,98.4340629 C130.194113,49.3375429 73.7245166,5.50421434 48.3673151,18.9868775 C23.0101136,32.4695407 16.6973759,95.7478708 42.8024587,144.844391 C52.0848038,162.301943 62.2406217,189.456538 75.3644685,206.084624 Z" id="Rectangle-3" transform="translate(107.330110, 130.384436) rotate(-346.000000) translate(-107.330110, -130.384436) "></path>
                </g>
                <path d="M674.672488,355.89485 C669.687797,357.197127 664.311488,357.907013 658.705981,357.907013 C632.748597,357.907013 611.705981,342.684695 611.705981,323.907013 C611.705981,305.129332 632.748597,289.907013 658.705981,289.907013 C664.311488,289.907013 669.687797,290.6169 674.672488,291.919177 C652.531458,296.647347 636.705981,309.184379 636.705981,323.907013 C636.705981,338.629647 652.531458,351.166679 674.672488,355.89485 Z" id="Oval-8" fill="#8CB18E" sketch:type="MSShapeGroup" transform="translate(643.189234, 323.907013) rotate(-3.000000) translate(-643.189234, -323.907013) "></path>
                <path d="M447.753398,597.04763 C531.206317,601.475975 544.368335,544.021269 544.368335,408.987648 C544.368335,340.702964 500.92657,306.431224 478.757663,262.071891 C457.087343,218.710215 486.163133,182.398155 441.390839,182.398155 C398.803117,182.398155 409.390748,209.159583 399.490005,247.871955 C388.334049,291.492268 359.581421,351.222652 359.581421,422.764213 C359.581421,557.797834 364.300479,592.619285 447.753398,597.04763 Z" id="Oval-6" fill="#8CB18E" sketch:type="MSShapeGroup" transform="translate(451.974878, 389.841370) rotate(-344.000000) translate(-451.974878, -389.841370) "></path>
                <path d="M486.24446,610.885558 C534.290573,615.313903 541.868305,557.859197 541.868305,422.825576 C541.868305,354.540893 516.8577,320.269153 504.094458,275.90982 C491.618266,232.548144 508.357988,196.236083 482.581362,196.236083 C458.062454,196.236083 464.15804,222.997512 458.457913,261.709884 C452.035126,305.330197 435.481457,365.060581 435.481457,436.602142 C435.481457,571.635763 438.198347,606.457214 486.24446,610.885558 Z" id="Oval-6" fill="#CAFBCC" sketch:type="MSShapeGroup" transform="translate(488.674881, 403.679298) rotate(-344.000000) translate(-488.674881, -403.679298) "></path>
                <g id="Head" transform="translate(609.831154, 143.663921) rotate(-345.000000) translate(-609.831154, -143.663921) translate(449.831154, 38.663921)" sketch:type="MSShapeGroup">
                    <g id="Lower-Teeth" transform="translate(190.126285, 152.855936) scale(1, -1) rotate(-9.000000) translate(-190.126285, -152.855936) translate(125.626285, 137.855936)" stroke="#979797" fill="#FFFFFF">
                        <polygon id="Triangle-2" transform="translate(116.037290, 11.592293) rotate(-186.000000) translate(-116.037290, -11.592293) " points="116.03729 1.092293 127.03729 22.092293 105.03729 22.092293 "></polygon>
                        <polygon id="Triangle-2" transform="translate(97.037290, 14.592293) rotate(-189.000000) translate(-97.037290, -14.592293) " points="97.0372897 4.092293 108.03729 25.092293 86.0372897 25.092293 "></polygon>
                        <polygon id="Triangle-2" transform="translate(78.037290, 16.592293) rotate(-190.000000) translate(-78.037290, -16.592293) " points="78.0372897 6.092293 89.0372897 27.092293 67.0372897 27.092293 "></polygon>
                        <polygon id="Triangle-2" transform="translate(59.506593, 17.629228) rotate(-189.000000) translate(-59.506593, -17.629228) " points="59.5065931 7.12922798 70.5065931 28.129228 48.5065931 28.129228 "></polygon>
                        <polygon id="Triangle-2" transform="translate(41.963585, 17.822597) rotate(-189.000000) translate(-41.963585, -17.822597) " points="41.9635848 7.32259742 52.9635848 28.3225974 30.9635848 28.3225974 "></polygon>
                        <polygon id="Triangle-2" transform="translate(26.527764, 17.654016) rotate(-188.000000) translate(-26.527764, -17.654016) " points="26.5277644 7.15401638 37.5277644 28.1540164 15.5277644 28.1540164 "></polygon>
                        <polygon id="Triangle-2" transform="translate(26.527764, 17.654016) rotate(-188.000000) translate(-26.527764, -17.654016) " points="26.5277644 7.15401638 37.5277644 28.1540164 15.5277644 28.1540164 "></polygon>
                        <polygon id="Triangle-2" transform="translate(12.390768, 17.776841) rotate(-186.000000) translate(-12.390768, -17.776841) " points="12.3907683 7.2768409 23.3907683 28.2768409 1.39076832 28.2768409 "></polygon>
                    </g>
                    <g id="Upper-Teeth" transform="translate(106.000000, 97.000000)" stroke="#979797" fill="#FFFFFF">
                        <polygon id="Triangle-2" transform="translate(179.037290, 15.592293) rotate(-186.000000) translate(-179.037290, -15.592293) " points="179.03729 5.092293 190.03729 26.092293 168.03729 26.092293 "></polygon>
                        <polygon id="Triangle-2" transform="translate(160.037290, 14.592293) rotate(-189.000000) translate(-160.037290, -14.592293) " points="160.03729 4.092293 171.03729 25.092293 149.03729 25.092293 "></polygon>
                        <polygon id="Triangle-2" transform="translate(141.037290, 21.592293) rotate(-190.000000) translate(-141.037290, -21.592293) " points="141.03729 11.092293 152.03729 32.092293 130.03729 32.092293 "></polygon>
                        <polygon id="Triangle-2" transform="translate(122.037290, 21.592293) rotate(-189.000000) translate(-122.037290, -21.592293) " points="122.03729 11.092293 133.03729 32.092293 111.03729 32.092293 "></polygon>
                        <polygon id="Triangle-2" transform="translate(103.037290, 27.592293) rotate(-189.000000) translate(-103.037290, -27.592293) " points="103.03729 17.092293 114.03729 38.092293 92.0372897 38.092293 "></polygon>
                        <polygon id="Triangle-2" transform="translate(83.037290, 27.592293) rotate(-188.000000) translate(-83.037290, -27.592293) " points="83.0372897 17.092293 94.0372897 38.092293 72.0372897 38.092293 "></polygon>
                        <polygon id="Triangle-2" transform="translate(47.037290, 31.592293) rotate(-190.000000) translate(-47.037290, -31.592293) " points="47.0372897 21.092293 58.0372897 42.092293 36.0372897 42.092293 "></polygon>
                        <polygon id="Triangle-2" transform="translate(63.037290, 29.592293) rotate(-189.000000) translate(-63.037290, -29.592293) " points="63.0372897 19.092293 74.0372897 40.092293 52.0372897 40.092293 "></polygon>
                        <polygon id="Triangle-2" transform="translate(30.037290, 31.592293) rotate(-189.000000) translate(-30.037290, -31.592293) " points="30.0372897 21.092293 41.0372897 42.092293 19.0372897 42.092293 "></polygon>
                        <polygon id="Triangle-2" transform="translate(13.037290, 32.592293) rotate(-190.000000) translate(-13.037290, -32.592293) " points="13.0372897 22.092293 24.0372897 43.092293 2.03728971 43.092293 "></polygon>
                        <polygon id="Triangle-2" transform="translate(198.936272, 13.286298) rotate(-186.000000) translate(-198.936272, -13.286298) " points="198.936272 2.00212561 210.757786 24.5704708 187.114758 24.5704708 "></polygon>
                    </g>
                    <path d="M262.785172,177.850571 C231.23875,197.255067 190.228572,210 150,210 C67.1572875,210 -5.68434189e-14,165.452333 -5.68434189e-14,110.5 C-5.68434189e-14,55.5476674 67.1572875,11 150,11 C193.893839,11 265.553776,18.5741717 298,36 C326.185765,51.1376717 319.311351,74.1712067 319.009914,99.3737492 L100.297132,130.752512 L262.78518,177.850566 Z" id="Oval-1" fill="#8CB18E"></path>
                    <ellipse id="Oval-2" fill="#8CB18E" cx="101.5" cy="41" rx="54.5" ry="41"></ellipse>
                    <path d="M138.334414,35.3582562 C138.494467,36.4698789 138.576726,37.6004446 138.576726,38.7463805 C138.576726,54.9229074 122.184643,68.0365734 101.963985,68.0365734 C81.7433259,68.0365734 65.3512434,54.9229074 65.3512434,38.7463805 C65.3512434,31.3449037 68.7828724,24.5846268 74.44273,19.4282701 L138.334414,35.3582562 Z" id="Oval-3" fill="#ECECEC" transform="translate(101.963985, 43.732422) rotate(-351.000000) translate(-101.963985, -43.732422) "></path>
                    <path d="M133.411855,34.6575903 C133.521863,35.4216385 133.578402,36.1987068 133.578402,36.9863394 C133.578402,48.1049023 122.311682,57.1182785 108.413478,57.1182785 C94.5152742,57.1182785 83.248554,48.1049023 83.248554,36.9863394 C83.248554,31.8991049 85.6072052,27.2525843 89.4973779,23.7084815 L133.411855,34.6575903 Z" id="Oval-3" fill="#454545" transform="translate(108.413478, 40.413380) rotate(-351.000000) translate(-108.413478, -40.413380) "></path>
                    <ellipse id="Oval-5" fill="#4A4A4A" transform="translate(273.619638, 66.068495) rotate(-58.000000) translate(-273.619638, -66.068495) " cx="273.619638" cy="66.068495" rx="7.5" ry="16.5"></ellipse>
                </g>
                <path d="M262.77253,420.715355 C325.291523,393.268168 376.045606,286.321565 376.045606,286.321565 L425.602577,473.965724 C425.602577,473.965724 71.6242141,504.394507 24.427098,494.251579 C-22.7700181,484.108652 187.63327,453.703111 262.77253,420.715355 Z" id="Triangle-21" fill="#8CB18E" sketch:type="MSShapeGroup" transform="translate(221.602577, 391.321565) rotate(-317.000000) translate(-221.602577, -391.321565) "></path>
                <g id="Rectangle-3-+-Oval-8" transform="translate(394.891830, 228.431654) rotate(-103.000000) translate(-394.891830, -228.431654) translate(289.891830, 183.431654)" fill="#8CB18E" sketch:type="MSShapeGroup">
                    <path d="M2.01923077,49.7727273 C2.01923077,49.7727273 50.4651585,45 75.7211538,45 C99.5997739,45 149.423077,49.7727273 149.423077,49.7727273 L149.423077,70.2272727 C149.423077,70.2272727 99.835932,75 75.7211538,75 C50.7013166,75 2.01923077,70.2272727 2.01923077,70.2272727 L2.01923077,49.7727273 Z" id="Rectangle-3" transform="translate(75.721154, 60.000000) rotate(-12.000000) translate(-75.721154, -60.000000) "></path>
                    <path d="M203.283554,71.7905911 C198.250933,73.0928686 192.822929,73.8027549 187.163523,73.8027549 C160.956549,73.8027549 139.7116,58.5804364 139.7116,39.8027549 C139.7116,21.0250734 160.956549,5.80275491 187.163523,5.80275491 C192.822929,5.80275491 198.250933,6.51264118 203.283554,7.81491869 C180.92963,12.5430889 164.951984,25.080121 164.951984,39.8027549 C164.951984,54.5253888 180.92963,67.062421 203.283554,71.7905911 Z" id="Oval-8" transform="translate(171.497577, 39.802755) rotate(-12.000000) translate(-171.497577, -39.802755) "></path>
                </g>
                <g id="Group" transform="translate(341.016079, 603.175764) rotate(-308.000000) translate(-341.016079, -603.175764) translate(240.016079, 444.175764)" sketch:type="MSShapeGroup">
                    <path d="M20.8119748,186.058061 C27.6648837,223.832605 46.304891,249.82346 64.8119748,249.82346 C81.0326685,249.82346 112.056503,252.21976 128.811975,224.093562 C141.722137,202.422208 142.811975,153.203611 142.811975,129.00481 C142.811975,73.3995619 113.530782,8.18616022 84.8119748,8.18616022 C56.0931679,8.18616022 20.8119748,61.0939586 20.8119748,116.699207 C20.8119748,136.471108 17.0307196,165.21506 20.8119748,186.058061 Z" id="Oval-12" fill="#8CB18E" transform="translate(80.971696, 129.030206) rotate(-351.000000) translate(-80.971696, -129.030206) "></path>
                    <g id="Rectangle-5-+-Rectangle-5-+-Group" transform="translate(4.180633, 229.713699)">
                        <path d="M66.0902361,17.0687102 C84.7770002,16.5605932 100.763982,8.30757399 100.763982,8.30757399 C100.763982,8.30757399 186.639001,48.4059062 194.098794,67.3053512 C205.336504,95.7761804 99.9564996,84.7526507 93.1029666,83.7209392 C69.4485558,80.1600712 17.8194153,82.7700986 2.36753241,58.3126936 C-9.48248603,39.556358 28.3799025,7.96786457 28.3799025,7.96786457 C28.3799025,7.96786457 47.4034721,17.5768272 66.0902361,17.0687102 Z" id="Rectangle-5" fill="#91082B"></path>
                        <path d="M20.9323454,59.3935115 C26.5506592,63.9157626 38.3075412,67.1325639 44.544847,68.4568908 C69.2059603,73.6930263 92.1634089,72.122002 109.75686,73.6930263 C123.463411,74.916966 159.064182,77.6028871 159.064182,77.6028871 C159.064182,77.6028871 166.004265,41.008255 167.727807,42.7799201 C169.121736,44.2127693 183.970663,49.5958568 189.768801,54.9064934 C193.617954,58.432014 195.309524,67.6634558 195.6227,68.45689 C206.948787,97.151622 105.186031,85.6091844 98.2786001,84.5693593 C74.4381643,80.9804875 17.9570096,84.0432566 2.38360874,59.3935116 C-0.061023563,55.5241215 -0.40646574,51.112872 0.590347222,46.5437038 C1.50404202,42.3555308 6.81222836,48.0280525 20.9323454,59.3935115 Z" id="Rectangle-5" fill="#EDEDED"></path>
                        <g id="Group" transform="translate(122.137459, 38.082501) scale(-1, -1) rotate(-19.000000) translate(-122.137459, -38.082501) translate(91.637459, 8.582501)" stroke="#EDEDED" stroke-width="3" stroke-linecap="square">
                            <path d="M12.2854634,0.556098907 L0.419164753,16.2338018" id="Line"></path>
                            <path d="M23.7431239,8.23400843 L8.80265469,27.9732923" id="Line-Copy-2"></path>
                            <path d="M35.2007844,15.911918 L18.7232299,37.6819923" id="Line-Copy-3"></path>
                            <path d="M47.8278875,23.4037037 L29.0447052,48.2199637" id="Line-Copy-4"></path>
                            <path d="M60.2906363,29.57115 L38.4332834,58.4489909" id="Line-Copy-5"></path>
                        </g>
                    </g>
                </g>
                <g id="Rectangle-5-+-Rectangle-5-+-Group" transform="translate(547.180708, 704.178427) rotate(-33.000000) translate(-547.180708, -704.178427) translate(454.486626, 662.771934)" sketch:type="MSShapeGroup">
                    <path d="M62.1946575,16.0626236 C79.7799614,15.5844567 94.8246169,7.81789791 94.8246169,7.81789791 C94.8246169,7.81789791 175.637877,45.5527009 182.657965,63.3381496 C193.233287,90.1308134 94.0647306,79.7570472 87.6151676,78.7861482 C65.3550267,75.4351696 16.7690796,77.8913533 2.22798217,54.8755492 C-8.92355673,37.2247745 26.7070966,7.4982121 26.7070966,7.4982121 C26.7070966,7.4982121 44.6093536,16.5407905 62.1946575,16.0626236 Z" id="Rectangle-5" fill="#91082B"></path>
                    <path d="M19.6985232,55.8926602 C24.9856749,60.1483547 36.0495672,63.175547 41.9192253,64.4218137 C65.1267305,69.3493139 86.7309907,67.870891 103.287425,69.3493139 C116.186066,70.5011105 149.688409,73.0287145 149.688409,73.0287145 C149.688409,73.0287145 156.219421,38.5910918 157.841371,40.2583292 C159.153137,41.6067214 173.126819,46.6725118 178.583196,51.6701218 C182.205467,54.9878365 183.79733,63.6751463 184.092046,64.421813 C194.750536,91.4251819 98.9860162,80.563094 92.4857321,79.5845596 C70.050531,76.2072279 16.8985637,79.0894672 2.2431109,55.8926602 C-0.057426631,52.2513449 -0.382507296,48.1001091 0.55555019,43.8002629 C1.41538878,39.8589547 6.41069293,45.1971191 19.6985232,55.8926602 Z" id="Rectangle-5" fill="#EDEDED"></path>
                    <g id="Group" transform="translate(114.780425, 35.969974) scale(-1, -1) rotate(-19.000000) translate(-114.780425, -35.969974) translate(85.885918, 8.282394)" stroke="#EDEDED" stroke-width="3" stroke-linecap="square">
                        <path d="M11.5613173,0.523320585 L0.394457786,15.2769275" id="Line"></path>
                        <path d="M22.3436251,7.74866855 L8.28379691,26.3244533" id="Line-Copy-2"></path>
                        <path d="M33.1259329,14.9740165 L17.6196204,35.4608902" id="Line-Copy-3"></path>
                        <path d="M45.0087526,22.0242115 L27.3327135,45.3777185" id="Line-Copy-4"></path>
                        <path d="M56.7369054,27.8281279 L36.1678977,55.0038128" id="Line-Copy-5"></path>
                    </g>
                </g>
            </g>
        </g>
    </g>
</svg>