<?xml version="1.0" encoding="UTF-8" standalone="no"?>
<svg width="250px" height="405px" viewBox="0 0 250 405" version="1.1" xmlns="http://www.w3.org/2000/svg" xmlns:xlink="http://www.w3.org/1999/xlink" xmlns:sketch="http://www.bohemiancoding.com/sketch/ns">
    <!-- Generator: Sketch 3.4.1 (15681) - http://www.bohemiancoding.com/sketch -->
    <title>Imported Layers</title>
    <desc>Created with Sketch.</desc>
    <defs>
        <path id="path-1" d="M0,0 L250,0 L250,404.618474 L0,404.618474"></path>
    </defs>
    <g id="Page-1" stroke="none" stroke-width="1" fill="none" fill-rule="evenodd" sketch:type="MSPage">
        <g id="Imported-Layers" sketch:type="MSLayerGroup">
            <mask id="mask-2" sketch:name="Clip 2" fill="white">
                <use xlink:href="#path-1"></use>
            </mask>
            <g id="Clip-2"></g>
            <path d="M205.725201,344.542269 C183.148896,376.809337 154.480221,394.578414 125.000301,394.578414 C95.5193775,394.578414 66.8507028,376.809337 44.2743976,344.542269 C22.5183735,313.447892 10.0404618,273.864558 10.0404618,235.941867 C10.0404618,226.895683 10.7693775,217.894679 12.2131526,209.090462 L61.3788153,242.909739 L78.2332329,218.388655 L109.418976,235.145683 L132.580622,211.632631 L161.009337,227.938855 L191.261345,195.73504 L221.908936,212.026205 L233.977209,191.841466 C237.951104,205.989056 239.960141,220.776205 239.960141,235.941867 C239.960141,273.864558 227.482229,313.447892 205.725201,344.542269 M240.100703,178.026205 L236.518373,168.023193 L218.191064,198.678815 L189.198092,183.267169 L159.122791,215.283233 L140.56255,204.636647 L140.56255,126.695884 C163.974197,118.254116 182.256325,105.103514 190.613755,86.3324297 L239.349699,59.2561245 L212.397892,60.0914659 L238.956124,39.1567269 L192.259337,42.7490964 C183.109739,17.0924699 156.368775,0.000100401606 128.514357,0.000100401606 C94.1348394,0.000100401606 66.2653614,29.2179719 66.2653614,65.2611446 C66.2653614,90.2370482 77.5464859,117.071386 97.3707831,127.636647 L104.421988,221.063353 L75.0565261,205.283233 L58.7934739,228.945884 L5.36074297,192.190863 L3.79648594,199.540261 C1.27740964,211.375602 0.000301204819,223.62259 0.000301204819,235.941867 C0.000301204819,275.874598 13.1388554,317.556325 36.04749,350.298293 C60.5575301,385.32741 92.1478916,404.618574 125.000301,404.618574 C157.851707,404.618574 189.442068,385.32741 213.951104,350.298293 C236.860743,317.556325 250.000301,275.874598 250.000301,235.941867 C250.000301,215.848494 246.668976,196.36255 240.100703,178.026205" id="Fill-1" fill="#868686" sketch:type="MSShapeGroup" mask="url(#mask-2)"></path>
        </g>
    </g>
</svg>