<?xml version="1.0" encoding="UTF-8" standalone="no"?>
<svg width="1084px" height="935px" viewBox="0 0 1084 935" version="1.1" xmlns="http://www.w3.org/2000/svg" xmlns:xlink="http://www.w3.org/1999/xlink" xmlns:sketch="http://www.bohemiancoding.com/sketch/ns">
    <!-- Generator: Sketch 3.4.1 (15681) - http://www.bohemiancoding.com/sketch -->
    <title>T-Rex 2000</title>
    <desc>Created with Sketch.</desc>
    <defs></defs>
    <g id="Page-1" stroke="none" stroke-width="1" fill="none" fill-rule="evenodd" sketch:type="MSPage">
        <g id="T-Rex-2000" sketch:type="MSArtboardGroup">
            <g sketch:type="MSLayerGroup" transform="translate(4.000000, 139.000000)">
                <path d="M391.518201,331.626074 C391.518201,331.626074 439.502739,326.853347 464.518201,326.853347 C488.169405,326.853347 537.518201,331.626074 537.518201,331.626074 L537.518201,352.080619 C537.518201,352.080619 488.403314,356.853347 464.518201,356.853347 C439.736648,356.853347 391.518201,352.080619 391.518201,352.080619 L391.518201,331.626074 Z M417.776164,652.895165 C441.560998,683.030862 470.221115,697.228471 486.5619,688.539922 C500.883922,680.924767 529.401337,668.475767 530.991091,635.775591 C532.216002,610.579966 510.071541,566.610877 498.710892,545.244604 C472.605809,496.148084 416.136213,452.314755 390.779011,465.797419 C365.42181,479.280082 359.109072,542.558412 385.214155,591.654932 C394.4965,609.112484 404.652318,636.267079 417.776164,652.895165 Z" id="Rectangle-3" fill="#8CB18E" sketch:type="MSShapeGroup" transform="translate(452.980968, 508.958438) rotate(-346.000000) translate(-452.980968, -508.958438) "></path>
                <path d="M631.256664,406.594379 C626.271973,407.896657 620.895664,408.606543 615.290157,408.606543 C589.332774,408.606543 568.290157,393.384225 568.290157,374.606543 C568.290157,355.828862 589.332774,340.606543 615.290157,340.606543 C620.895664,340.606543 626.271973,341.316429 631.256664,342.618707 C609.115635,347.346877 593.290157,359.883909 593.290157,374.606543 C593.290157,389.329177 609.115635,401.866209 631.256664,406.594379 Z" id="Oval-8" fill="#8CB18E" sketch:type="MSShapeGroup" transform="translate(599.773411, 374.606543) rotate(-346.000000) translate(-599.773411, -374.606543) "></path>
                <path d="M431.753398,579.04763 C515.206317,583.475975 528.368335,526.021269 528.368335,390.987648 C528.368335,322.702964 484.92657,288.431224 462.757663,244.071891 C441.087343,200.710215 470.163133,164.398155 425.390839,164.398155 C382.803117,164.398155 393.390748,191.159583 383.490005,229.871955 C372.334049,273.492268 343.581421,333.222652 343.581421,404.764213 C343.581421,539.797834 348.300479,574.619285 431.753398,579.04763 Z" id="Oval-6" fill="#8CB18E" sketch:type="MSShapeGroup" transform="translate(435.974878, 371.841370) rotate(-344.000000) translate(-435.974878, -371.841370) "></path>
                <path d="M470.24446,592.885558 C518.290573,597.313903 525.868305,539.859197 525.868305,404.825576 C525.868305,336.540893 500.8577,302.269153 488.094458,257.90982 C475.618266,214.548144 492.357988,178.236083 466.581362,178.236083 C442.062454,178.236083 448.15804,204.997512 442.457913,243.709884 C436.035126,287.330197 419.481457,347.060581 419.481457,418.602142 C419.481457,553.635763 422.198347,588.457214 470.24446,592.885558 Z" id="Oval-6" fill="#CAFBCC" sketch:type="MSShapeGroup" transform="translate(472.674881, 385.679298) rotate(-344.000000) translate(-472.674881, -385.679298) "></path>
                <g id="Head" transform="translate(428.000000, 0.000000)" sketch:type="MSShapeGroup">
                    <g id="Lower-Teeth" transform="translate(190.126285, 152.855936) scale(1, -1) rotate(-9.000000) translate(-190.126285, -152.855936) translate(125.626285, 137.855936)" stroke="#979797" fill="#FFFFFF">
                        <polygon id="Triangle-2" transform="translate(116.037290, 11.592293) rotate(-186.000000) translate(-116.037290, -11.592293) " points="116.03729 1.092293 127.03729 22.092293 105.03729 22.092293 "></polygon>
                        <polygon id="Triangle-2" transform="translate(97.037290, 14.592293) rotate(-189.000000) translate(-97.037290, -14.592293) " points="97.0372897 4.092293 108.03729 25.092293 86.0372897 25.092293 "></polygon>
                        <polygon id="Triangle-2" transform="translate(78.037290, 16.592293) rotate(-190.000000) translate(-78.037290, -16.592293) " points="78.0372897 6.092293 89.0372897 27.092293 67.0372897 27.092293 "></polygon>
                        <polygon id="Triangle-2" transform="translate(59.506593, 17.629228) rotate(-189.000000) translate(-59.506593, -17.629228) " points="59.5065931 7.12922798 70.5065931 28.129228 48.5065931 28.129228 "></polygon>
                        <polygon id="Triangle-2" transform="translate(41.963585, 17.822597) rotate(-189.000000) translate(-41.963585, -17.822597) " points="41.9635848 7.32259742 52.9635848 28.3225974 30.9635848 28.3225974 "></polygon>
                        <polygon id="Triangle-2" transform="translate(26.527764, 17.654016) rotate(-188.000000) translate(-26.527764, -17.654016) " points="26.5277644 7.15401638 37.5277644 28.1540164 15.5277644 28.1540164 "></polygon>
                        <polygon id="Triangle-2" transform="translate(26.527764, 17.654016) rotate(-188.000000) translate(-26.527764, -17.654016) " points="26.5277644 7.15401638 37.5277644 28.1540164 15.5277644 28.1540164 "></polygon>
                        <polygon id="Triangle-2" transform="translate(12.390768, 17.776841) rotate(-186.000000) translate(-12.390768, -17.776841) " points="12.3907683 7.2768409 23.3907683 28.2768409 1.39076832 28.2768409 "></polygon>
                    </g>
                    <g id="Upper-Teeth" transform="translate(106.000000, 97.000000)" stroke="#979797" fill="#FFFFFF">
                        <polygon id="Triangle-2" transform="translate(179.037290, 15.592293) rotate(-186.000000) translate(-179.037290, -15.592293) " points="179.03729 5.092293 190.03729 26.092293 168.03729 26.092293 "></polygon>
                        <polygon id="Triangle-2" transform="translate(160.037290, 14.592293) rotate(-189.000000) translate(-160.037290, -14.592293) " points="160.03729 4.092293 171.03729 25.092293 149.03729 25.092293 "></polygon>
                        <polygon id="Triangle-2" transform="translate(141.037290, 21.592293) rotate(-190.000000) translate(-141.037290, -21.592293) " points="141.03729 11.092293 152.03729 32.092293 130.03729 32.092293 "></polygon>
                        <polygon id="Triangle-2" transform="translate(122.037290, 21.592293) rotate(-189.000000) translate(-122.037290, -21.592293) " points="122.03729 11.092293 133.03729 32.092293 111.03729 32.092293 "></polygon>
                        <polygon id="Triangle-2" transform="translate(103.037290, 27.592293) rotate(-189.000000) translate(-103.037290, -27.592293) " points="103.03729 17.092293 114.03729 38.092293 92.0372897 38.092293 "></polygon>
                        <polygon id="Triangle-2" transform="translate(83.037290, 27.592293) rotate(-188.000000) translate(-83.037290, -27.592293) " points="83.0372897 17.092293 94.0372897 38.092293 72.0372897 38.092293 "></polygon>
                        <polygon id="Triangle-2" transform="translate(47.037290, 31.592293) rotate(-190.000000) translate(-47.037290, -31.592293) " points="47.0372897 21.092293 58.0372897 42.092293 36.0372897 42.092293 "></polygon>
                        <polygon id="Triangle-2" transform="translate(63.037290, 29.592293) rotate(-189.000000) translate(-63.037290, -29.592293) " points="63.0372897 19.092293 74.0372897 40.092293 52.0372897 40.092293 "></polygon>
                        <polygon id="Triangle-2" transform="translate(30.037290, 31.592293) rotate(-189.000000) translate(-30.037290, -31.592293) " points="30.0372897 21.092293 41.0372897 42.092293 19.0372897 42.092293 "></polygon>
                        <polygon id="Triangle-2" transform="translate(13.037290, 32.592293) rotate(-190.000000) translate(-13.037290, -32.592293) " points="13.0372897 22.092293 24.0372897 43.092293 2.03728971 43.092293 "></polygon>
                        <polygon id="Triangle-2" transform="translate(198.936272, 13.286298) rotate(-186.000000) translate(-198.936272, -13.286298) " points="198.936272 2.00212561 210.757786 24.5704708 187.114758 24.5704708 "></polygon>
                    </g>
                    <path d="M262.785172,177.850571 C231.23875,197.255067 190.228572,210 150,210 C67.1572875,210 -5.68434189e-14,165.452333 -5.68434189e-14,110.5 C-5.68434189e-14,55.5476674 67.1572875,11 150,11 C193.893839,11 265.553776,18.5741717 298,36 C326.185765,51.1376717 319.311351,74.1712067 319.009914,99.3737492 L100.297132,130.752512 L262.78518,177.850566 Z" id="Oval-1" fill="#8CB18E"></path>
                    <ellipse id="Oval-2" fill="#8CB18E" cx="101.5" cy="41" rx="54.5" ry="41"></ellipse>
                    <path d="M138.334414,35.3582562 C138.494467,36.4698789 138.576726,37.6004446 138.576726,38.7463805 C138.576726,54.9229074 122.184643,68.0365734 101.963985,68.0365734 C81.7433259,68.0365734 65.3512434,54.9229074 65.3512434,38.7463805 C65.3512434,31.3449037 68.7828724,24.5846268 74.44273,19.4282701 L138.334414,35.3582562 Z" id="Oval-3" fill="#CACFCD" transform="translate(101.963985, 43.732422) rotate(-351.000000) translate(-101.963985, -43.732422) "></path>
                    <path d="M133.411855,34.6575903 C133.521863,35.4216385 133.578402,36.1987068 133.578402,36.9863394 C133.578402,48.1049023 122.311682,57.1182785 108.413478,57.1182785 C94.5152742,57.1182785 83.248554,48.1049023 83.248554,36.9863394 C83.248554,31.8991049 85.6072052,27.2525843 89.4973779,23.7084815 L133.411855,34.6575903 Z" id="Oval-3" fill="#E90000" transform="translate(108.413478, 40.413380) rotate(-351.000000) translate(-108.413478, -40.413380) "></path>
                    <ellipse id="Oval-5" fill="#4A4A4A" transform="translate(273.619638, 66.068495) rotate(-58.000000) translate(-273.619638, -66.068495) " cx="273.619638" cy="66.068495" rx="7.5" ry="16.5"></ellipse>
                </g>
                <path d="M131.509038,612.116193 C71.6431082,614.583734 21.0572703,616.46661 6.08699345,616.46661 C-22.5079465,616.46661 54.7409904,602.735002 131.509039,586 L131.509038,612.116193 Z" id="Triangle-21" fill="#868686" sketch:type="MSShapeGroup"></path>
                <path d="M104.551477,584.051122 C104.551477,584.051122 189.106483,562.836216 215.169953,551.39379 C277.688946,523.946603 328.443029,417 328.443029,417 L378,604.64416 L113.060123,623.593811 L127,610 L113.060122,604.644165 L121.999999,591 L104.551477,584.051122 Z" id="Triangle-21" fill="#8CB18E" sketch:type="MSShapeGroup"></path>
                <rect id="Rectangle-20-Copy" fill="#868686" sketch:type="MSShapeGroup" transform="translate(566.880526, 296.287758) rotate(-12.000000) translate(-566.880526, -296.287758) " x="544.21642" y="288.604088" width="45.3282122" height="15.3673414"></rect>
                <path d="M422,301.772727 C422,301.772727 469.984538,297 495,297 C518.651205,297 557.28476,301.772727 557.28476,301.772727 L551.916794,308.762929 L562.468506,312 L557.28476,315.671373 L568,322.227273 C568,322.227273 518.885114,327 495,327 C470.218447,327 422,322.227273 422,322.227273 L422,301.772727 Z" id="Rectangle-3" fill="#8CB18E" sketch:type="MSShapeGroup" transform="translate(495.000000, 312.000000) rotate(-12.000000) translate(-495.000000, -312.000000) "></path>
                <path d="M309.811975,632.058061 C316.664884,669.832605 335.304891,695.82346 353.811975,695.82346 C370.032669,695.82346 401.056503,698.21976 417.811975,670.093562 C430.722137,648.422208 431.811975,599.203611 431.811975,575.00481 C431.811975,519.399562 402.530782,454.18616 373.811975,454.18616 C345.093168,454.18616 309.811975,507.093959 309.811975,562.699207 C309.811975,582.471108 306.03072,611.21506 309.811975,632.058061 Z" id="Oval-12" fill="#8CB18E" sketch:type="MSShapeGroup" transform="translate(369.971696, 575.030206) rotate(-351.000000) translate(-369.971696, -575.030206) "></path>
                <path d="M337.277856,687.08108 C337.277856,687.08108 448.084112,685.413595 464.597273,701.878304 C481.110433,718.343013 404.176751,753.783687 404.176751,753.783687 C404.176751,753.783687 334.822983,769.756006 310.615701,753.783683 C286.408419,737.811361 337.277856,687.08108 337.277856,687.08108 Z" id="Rectangle-5" fill="#8CB18E" sketch:type="MSShapeGroup" transform="translate(385.502067, 723.958133) rotate(-339.000000) translate(-385.502067, -723.958133) "></path>
                <path d="M475.358352,659.125018 C475.358352,659.125018 553.903498,649.704052 563.303917,665.378566 C572.704337,681.053081 509.802822,716.558661 509.802822,716.558661 C509.802822,716.558661 468.793117,738.443047 444.764557,722.588648 C420.735996,706.734248 475.358352,659.125018 475.358352,659.125018 Z" id="Rectangle-5" fill="#8CB18E" sketch:type="MSShapeGroup" transform="translate(501.459161, 692.334790) rotate(-339.000000) translate(-501.459161, -692.334790) "></path>
                <path d="M429.562469,720.974618 C441.219823,718.273524 457.868177,721.485173 470.562469,725.974618 C485.20151,731.15184 489.562469,747.974618 489.562469,747.974618 C489.562469,747.974618 469.599056,735.474618 453.562469,735.474618 C442.265723,735.474618 436.576905,739.712506 429.562469,735.474618 C422.548033,731.236729 417.905115,723.675712 429.562469,720.974618 Z" id="Triangle-22" fill="#D8D8D8" sketch:type="MSShapeGroup" transform="translate(456.008957, 733.979723) rotate(-353.000000) translate(-456.008957, -733.979723) "></path>
                <path d="M496.677677,697.243148 C506.753024,694.908616 521.142047,697.684416 532.11361,701.564603 C544.766003,706.03923 548.53514,720.579006 548.53514,720.579006 C548.53514,720.579006 531.280941,709.775368 517.420662,709.775368 C507.656985,709.775368 502.740191,713.438137 496.677677,709.775368 C490.615163,706.112599 486.60233,699.577679 496.677677,697.243148 Z" id="Triangle-22" fill="#D8D8D8" sketch:type="MSShapeGroup" transform="translate(519.535140, 708.483344) rotate(-351.000000) translate(-519.535140, -708.483344) "></path>
                <path d="M390.395215,735.178999 C402.052569,732.477905 418.700923,735.689554 431.395215,740.178999 C446.034257,745.356221 450.395215,762.178999 450.395215,762.178999 C450.395215,762.178999 430.431802,749.678999 414.395215,749.678999 C403.098469,749.678999 397.409651,753.916887 390.395215,749.678999 C383.380779,745.44111 378.737861,737.880093 390.395215,735.178999 Z" id="Triangle-22" fill="#D8D8D8" sketch:type="MSShapeGroup" transform="translate(416.841704, 748.184104) rotate(-347.000000) translate(-416.841704, -748.184104) "></path>
                <path d="M530.142537,682.855466 C540.217884,680.520934 554.606907,683.296734 565.57847,687.176921 C578.230862,691.651548 582,706.191325 582,706.191325 C582,706.191325 564.745801,695.387686 550.885522,695.387686 C541.121845,695.387686 536.205051,699.050455 530.142537,695.387686 C524.080022,691.724917 520.06719,685.189998 530.142537,682.855466 Z" id="Triangle-22" fill="#D8D8D8" sketch:type="MSShapeGroup" transform="translate(553.000000, 694.095662) rotate(-352.000000) translate(-553.000000, -694.095662) "></path>
                <path d="M644.377621,317.811037 C639.39293,319.113314 634.016621,319.823201 628.411114,319.823201 C613.962449,319.823201 598.080958,320.231858 589.459335,312.811115 C582.591999,306.90031 581.411114,294.148657 581.411114,285.823201 C581.411114,276.134667 580.470884,263.223874 589.459335,257.030849 C597.891712,251.220959 615.846704,251.823201 628.411114,251.823201 C634.016621,251.823201 639.39293,252.533087 644.377621,253.835364 C622.236591,258.563535 606.411114,271.100567 606.411114,285.823201 C606.411114,300.545835 622.236591,313.082867 644.377621,317.811037 Z" id="Oval-8-Copy" fill="#868686" sketch:type="MSShapeGroup" transform="translate(612.880295, 285.816333) scale(-1, 1) rotate(-168.000000) translate(-612.880295, -285.816333) "></path>
                <path d="M641.999999,31 C619.309459,28.6826228 601.91515,32.7287875 595,31 C585.556096,28.6390241 570.365037,24 604,24 C637.634963,24 662.967787,27.4919469 677,31 C691.032213,34.5080531 698.521066,41 672,41 C664.898568,41 650.297545,31.8474256 641.999999,31 Z" id="Rectangle-83" fill="#CACFCD" sketch:type="MSShapeGroup"></path>
                <path d="M585.705351,28.2657317 C580.568732,26.148755 580.844283,24 603.735616,24 C637.370579,24 662.703404,27.4919469 676.735616,31 C687.745861,33.7525612 694.727615,38.3421894 684.412533,40.191365 C693.172243,38.5863182 686.476471,34.9636754 676.096478,32.7647059 C662.459345,29.875721 637.839769,27 605.151802,27 C593.135944,27 587.531917,27.5162256 585.705351,28.2657317 Z M681.733511,40.5658134 C679.152478,40.8434422 675.854133,41 671.735616,41 C671.706577,41 671.677413,40.999847 671.648124,40.9995421 C675.881434,40.9900525 679.202141,40.8334643 681.733511,40.5658134 Z" id="Rectangle-83-Copy" fill="#747776" sketch:type="MSShapeGroup"></path>
                <path d="M480.286994,143.593137 C474.351637,139.79912 463.443173,148.208438 460.665522,143.593137 C454.307879,133.029378 460.665522,122.175459 460.665522,117.996608 C460.665522,115.439141 468.845123,110.932758 469.822209,106.182826 C471.072726,100.103657 465.553523,93.5565347 469.822209,89.4466305 C474.460506,84.9808638 485.069772,88.5265313 488.135583,84.5242207 C492.211712,79.2029757 480.923355,74.3064626 488.135583,71.7259554 C496.622335,68.6894287 494.920572,75.9298012 503.832761,79.6018115 C509.34682,81.8737204 517.045928,77.9773523 523.454233,79.6018118 C532.96421,82.0125227 540.459509,89.4466308 540.459509,89.4466308 C540.459509,89.4466308 521.992438,100.112237 514.297546,112.089718 C509.590708,119.416144 513.94395,127.92048 514.297546,132.763837 C514.64716,137.552639 510.564733,144.708548 514.297546,150.48451 C518.59584,157.135467 527.490964,159.205279 533.919018,164.267258 C541.84371,170.507812 547,179.034489 547,179.034489 C547,179.034489 535.698517,183.957607 523.454231,179.034487 C519.797635,177.564262 518.456714,165.387599 514.297544,164.267258 C506.312086,162.116242 493.889114,168.334966 488.135583,164.26726 C485.956896,162.726943 485.578643,146.97568 480.286994,143.593137 Z" id="Rectangle-79" fill="#CACFCD" sketch:type="MSShapeGroup"></path>
                <path d="M479,106 C480.101585,95.204469 490.791747,92.2965821 498,102 C500.79127,105.757479 496.990193,112.20536 498,119.000001 C499.597946,129.752029 505,141 505,141 C505,141 500.479672,157.414944 492,146 C483.520328,134.585056 477.898415,116.795531 479,106 Z" id="Rectangle-82" fill="#9F9F9F" sketch:type="MSShapeGroup"></path>
                <path d="M538.60251,90.6735695 C539.867065,89.8812589 540.619606,89.4466308 540.619606,89.4466308 C540.619606,89.4466308 533.124307,82.0125227 523.61433,79.6018118 C517.206025,77.9773523 509.506917,81.8737204 503.992858,79.6018115 C495.080669,75.9298012 496.782432,68.6894287 488.29568,71.7259554 C481.083452,74.3064626 492.371809,79.2029757 488.29568,84.5242207 C485.229869,88.5265313 474.620603,84.9808638 469.982306,89.4466305 C465.71362,93.5565347 471.232823,100.103657 469.982306,106.182826 C469.00522,110.932758 460.825619,115.439141 460.825619,117.996608 C460.825619,122.175459 454.467976,133.029378 460.825619,143.593137 C463.60327,148.208438 474.511734,139.79912 480.447091,143.593137 C485.73874,146.97568 486.116993,162.726943 488.29568,164.26726 C494.049211,168.334966 506.472183,162.116242 514.457641,164.267258 C518.616811,165.387599 519.957732,177.564262 523.614328,179.034487 C535.858614,183.957607 547.160097,179.034489 547.160097,179.034489 C547.160097,179.034489 546.230239,177.496834 544.553389,175.249573 C541.931886,176.187196 532.934742,178.823249 523.314825,174.955323 C519.897834,173.581437 518.64478,162.202673 514.758147,161.155744 C507.295951,159.145678 495.687018,164.956908 490.310498,161.155746 C488.274574,159.716362 487.921107,144.99723 482.976203,141.836334 C477.429771,138.290927 467.236105,146.149208 464.640465,141.836334 C458.699419,131.964785 464.640465,121.82209 464.640465,117.917066 C464.640465,115.527182 472.284082,111.316089 473.197143,106.877404 C474.365718,101.196584 469.20817,95.0784751 473.197143,91.2378801 C477.531506,87.0647412 487.44558,90.3780721 490.310498,86.6380205 C494.119531,81.6654602 483.570865,77.0898004 490.310498,74.6783858 C498.24114,71.8408333 496.650888,78.6067666 504.979089,82.0381615 C510.131828,84.1611992 517.326438,80.5201481 523.314827,82.0381618 C530.663018,83.9008755 536.724025,88.9730545 538.60251,90.6735695 Z" id="Rectangle-79" fill="#747776" sketch:type="MSShapeGroup"></path>
            </g>
        </g>
    </g>
</svg>