<?xml version="1.0" encoding="UTF-8" standalone="no"?>
<svg width="2279px" height="915px" viewBox="0 0 2279 915" version="1.1" xmlns="http://www.w3.org/2000/svg" xmlns:xlink="http://www.w3.org/1999/xlink" xmlns:sketch="http://www.bohemiancoding.com/sketch/ns">
    <!-- Generator: Sketch 3.4.1 (15681) - http://www.bohemiancoding.com/sketch -->
    <title>Western</title>
    <desc>Created with Sketch.</desc>
    <defs></defs>
    <g id="Page-1" stroke="none" stroke-width="1" fill="none" fill-rule="evenodd" sketch:type="MSPage">
        <g id="Western" sketch:type="MSArtboardGroup">
            <g id="Western-T-Rex" sketch:type="MSLayerGroup" transform="translate(53.000000, 12.000000)">
                <path d="M421.518201,426.626074 C421.518201,426.626074 469.502739,421.853347 494.518201,421.853347 C518.169405,421.853347 567.518201,426.626074 567.518201,426.626074 L567.518201,447.080619 C567.518201,447.080619 518.403314,451.853347 494.518201,451.853347 C469.736648,451.853347 421.518201,447.080619 421.518201,447.080619 L421.518201,426.626074 Z M447.776164,747.895165 C471.560998,778.030862 500.221115,792.228471 516.5619,783.539922 C530.883922,775.924767 559.401337,763.475767 560.991091,730.775591 C562.216002,705.579966 540.071541,661.610877 528.710892,640.244604 C502.605809,591.148084 446.136213,547.314755 420.779011,560.797419 C395.42181,574.280082 389.109072,637.558412 415.214155,686.654932 C424.4965,704.112484 434.652318,731.267079 447.776164,747.895165 Z" id="Rectangle-3" fill="#8CB18E" sketch:type="MSShapeGroup" transform="translate(482.980968, 603.958438) rotate(-346.000000) translate(-482.980968, -603.958438) "></path>
                <path d="M661.256664,501.594379 C656.271973,502.896657 650.895664,503.606543 645.290157,503.606543 C619.332774,503.606543 598.290157,488.384225 598.290157,469.606543 C598.290157,450.828862 619.332774,435.606543 645.290157,435.606543 C650.895664,435.606543 656.271973,436.316429 661.256664,437.618707 C639.115635,442.346877 623.290157,454.883909 623.290157,469.606543 C623.290157,484.329177 639.115635,496.866209 661.256664,501.594379 Z" id="Oval-8" fill="#8CB18E" sketch:type="MSShapeGroup" transform="translate(629.773411, 469.606543) rotate(-346.000000) translate(-629.773411, -469.606543) "></path>
                <path d="M461.753398,674.04763 C545.206317,678.475975 558.368335,621.021269 558.368335,485.987648 C558.368335,417.702964 514.92657,383.431224 492.757663,339.071891 C471.087343,295.710215 500.163133,259.398155 455.390839,259.398155 C412.803117,259.398155 423.390748,286.159583 413.490005,324.871955 C402.334049,368.492268 373.581421,428.222652 373.581421,499.764213 C373.581421,634.797834 378.300479,669.619285 461.753398,674.04763 Z" id="Oval-6" fill="#8CB18E" sketch:type="MSShapeGroup" transform="translate(465.974878, 466.841370) rotate(-344.000000) translate(-465.974878, -466.841370) "></path>
                <path d="M500.24446,687.885558 C548.290573,692.313903 555.868305,634.859197 555.868305,499.825576 C555.868305,431.540893 530.8577,397.269153 518.094458,352.90982 C505.618266,309.548144 522.357988,273.236083 496.581362,273.236083 C472.062454,273.236083 478.15804,299.997512 472.457913,338.709884 C466.035126,382.330197 449.481457,442.060581 449.481457,513.602142 C449.481457,648.635763 452.198347,683.457214 500.24446,687.885558 Z" id="Oval-6" fill="#CAFBCC" sketch:type="MSShapeGroup" transform="translate(502.674881, 480.679298) rotate(-344.000000) translate(-502.674881, -480.679298) "></path>
                <g id="Head" transform="translate(458.000000, 95.000000)" sketch:type="MSShapeGroup">
                    <g id="Lower-Teeth" transform="translate(190.126285, 152.855936) scale(1, -1) rotate(-9.000000) translate(-190.126285, -152.855936) translate(125.626285, 137.855936)" stroke="#979797" fill="#FFFFFF">
                        <polygon id="Triangle-2" transform="translate(116.037290, 11.592293) rotate(-186.000000) translate(-116.037290, -11.592293) " points="116.03729 1.092293 127.03729 22.092293 105.03729 22.092293 "></polygon>
                        <polygon id="Triangle-2" transform="translate(97.037290, 14.592293) rotate(-189.000000) translate(-97.037290, -14.592293) " points="97.0372897 4.092293 108.03729 25.092293 86.0372897 25.092293 "></polygon>
                        <polygon id="Triangle-2" transform="translate(78.037290, 16.592293) rotate(-190.000000) translate(-78.037290, -16.592293) " points="78.0372897 6.092293 89.0372897 27.092293 67.0372897 27.092293 "></polygon>
                        <polygon id="Triangle-2" transform="translate(59.506593, 17.629228) rotate(-189.000000) translate(-59.506593, -17.629228) " points="59.5065931 7.12922798 70.5065931 28.129228 48.5065931 28.129228 "></polygon>
                        <polygon id="Triangle-2" transform="translate(41.963585, 17.822597) rotate(-189.000000) translate(-41.963585, -17.822597) " points="41.9635848 7.32259742 52.9635848 28.3225974 30.9635848 28.3225974 "></polygon>
                        <polygon id="Triangle-2" transform="translate(26.527764, 17.654016) rotate(-188.000000) translate(-26.527764, -17.654016) " points="26.5277644 7.15401638 37.5277644 28.1540164 15.5277644 28.1540164 "></polygon>
                        <polygon id="Triangle-2" transform="translate(26.527764, 17.654016) rotate(-188.000000) translate(-26.527764, -17.654016) " points="26.5277644 7.15401638 37.5277644 28.1540164 15.5277644 28.1540164 "></polygon>
                        <polygon id="Triangle-2" transform="translate(12.390768, 17.776841) rotate(-186.000000) translate(-12.390768, -17.776841) " points="12.3907683 7.2768409 23.3907683 28.2768409 1.39076832 28.2768409 "></polygon>
                    </g>
                    <g id="Upper-Teeth" transform="translate(106.000000, 97.000000)" stroke="#979797" fill="#FFFFFF">
                        <polygon id="Triangle-2" transform="translate(179.037290, 15.592293) rotate(-186.000000) translate(-179.037290, -15.592293) " points="179.03729 5.092293 190.03729 26.092293 168.03729 26.092293 "></polygon>
                        <polygon id="Triangle-2" transform="translate(160.037290, 14.592293) rotate(-189.000000) translate(-160.037290, -14.592293) " points="160.03729 4.092293 171.03729 25.092293 149.03729 25.092293 "></polygon>
                        <polygon id="Triangle-2" transform="translate(141.037290, 21.592293) rotate(-190.000000) translate(-141.037290, -21.592293) " points="141.03729 11.092293 152.03729 32.092293 130.03729 32.092293 "></polygon>
                        <polygon id="Triangle-2" transform="translate(122.037290, 21.592293) rotate(-189.000000) translate(-122.037290, -21.592293) " points="122.03729 11.092293 133.03729 32.092293 111.03729 32.092293 "></polygon>
                        <polygon id="Triangle-2" transform="translate(103.037290, 27.592293) rotate(-189.000000) translate(-103.037290, -27.592293) " points="103.03729 17.092293 114.03729 38.092293 92.0372897 38.092293 "></polygon>
                        <polygon id="Triangle-2" transform="translate(83.037290, 27.592293) rotate(-188.000000) translate(-83.037290, -27.592293) " points="83.0372897 17.092293 94.0372897 38.092293 72.0372897 38.092293 "></polygon>
                        <polygon id="Triangle-2" transform="translate(47.037290, 31.592293) rotate(-190.000000) translate(-47.037290, -31.592293) " points="47.0372897 21.092293 58.0372897 42.092293 36.0372897 42.092293 "></polygon>
                        <polygon id="Triangle-2" transform="translate(63.037290, 29.592293) rotate(-189.000000) translate(-63.037290, -29.592293) " points="63.0372897 19.092293 74.0372897 40.092293 52.0372897 40.092293 "></polygon>
                        <polygon id="Triangle-2" transform="translate(30.037290, 31.592293) rotate(-189.000000) translate(-30.037290, -31.592293) " points="30.0372897 21.092293 41.0372897 42.092293 19.0372897 42.092293 "></polygon>
                        <polygon id="Triangle-2" transform="translate(13.037290, 32.592293) rotate(-190.000000) translate(-13.037290, -32.592293) " points="13.0372897 22.092293 24.0372897 43.092293 2.03728971 43.092293 "></polygon>
                        <polygon id="Triangle-2" transform="translate(198.936272, 13.286298) rotate(-186.000000) translate(-198.936272, -13.286298) " points="198.936272 2.00212561 210.757786 24.5704708 187.114758 24.5704708 "></polygon>
                    </g>
                    <path d="M262.785172,177.850571 C231.23875,197.255067 190.228572,210 150,210 C67.1572875,210 -5.68434189e-14,165.452333 -5.68434189e-14,110.5 C-5.68434189e-14,55.5476674 67.1572875,11 150,11 C193.893839,11 265.553776,18.5741717 298,36 C326.185765,51.1376717 319.311351,74.1712067 319.009914,99.3737492 L100.297132,130.752512 L262.78518,177.850566 Z" id="Oval-1" fill="#8CB18E"></path>
                    <ellipse id="Oval-2" fill="#8CB18E" cx="101.5" cy="41" rx="54.5" ry="41"></ellipse>
                    <path d="M138.334414,35.3582562 C138.494467,36.4698789 138.576726,37.6004446 138.576726,38.7463805 C138.576726,54.9229074 122.184643,68.0365734 101.963985,68.0365734 C81.7433259,68.0365734 65.3512434,54.9229074 65.3512434,38.7463805 C65.3512434,31.3449037 68.7828724,24.5846268 74.44273,19.4282701 L138.334414,35.3582562 Z" id="Oval-3" fill="#ECECEC" transform="translate(101.963985, 43.732422) rotate(-351.000000) translate(-101.963985, -43.732422) "></path>
                    <path d="M133.411855,34.6575903 C133.521863,35.4216385 133.578402,36.1987068 133.578402,36.9863394 C133.578402,48.1049023 122.311682,57.1182785 108.413478,57.1182785 C94.5152742,57.1182785 83.248554,48.1049023 83.248554,36.9863394 C83.248554,31.8991049 85.6072052,27.2525843 89.4973779,23.7084815 L133.411855,34.6575903 Z" id="Oval-3" fill="#454545" transform="translate(108.413478, 40.413380) rotate(-351.000000) translate(-108.413478, -40.413380) "></path>
                    <ellipse id="Oval-5" fill="#4A4A4A" transform="translate(273.619638, 66.068495) rotate(-58.000000) translate(-273.619638, -66.068495) " cx="273.619638" cy="66.068495" rx="7.5" ry="16.5"></ellipse>
                </g>
                <path d="M245.169953,646.39379 C307.688946,618.946603 358.443029,512 358.443029,512 L408,699.64416 C408,699.64416 54.0216371,730.072942 6.82452101,719.930015 C-40.3725951,709.787087 170.030693,679.381546 245.169953,646.39379 Z" id="Triangle-21" fill="#8CB18E" sketch:type="MSShapeGroup"></path>
                <g id="Revolver" transform="translate(727.500000, 432.000000) scale(-1, 1) translate(-727.500000, -432.000000) translate(604.000000, 376.000000)" sketch:type="MSShapeGroup">
                    <rect id="Rectangle-125" fill="#CACFCD" x="0" y="22" width="106" height="23" rx="1"></rect>
                    <rect id="Rectangle-125" fill="#CACFCD" x="92" y="11" width="76" height="56" rx="8"></rect>
                    <path d="M148,15 C148,15 167.126305,19.4302508 171,15 C173.246921,12.4302508 179,-1.97215226e-31 179,-1.97215226e-31 C179,-1.97215226e-31 182.685839,14.7371134 179,21 C175.314161,27.2628866 150.471787,21 150.471787,21 L148,15 Z" id="Rectangle-126" fill="#CACFCD"></path>
                    <path d="M130,68 C130,68 149.126305,72.4302508 153,68 C155.246921,65.4302508 161,53 161,53 C161,53 164.685839,67.7371134 161,74 C157.314161,80.2628866 132.471787,74 132.471787,74 L130,68 Z" id="Rectangle-126" fill="#CACFCD" transform="translate(146.319075, 64.891753) rotate(-63.000000) translate(-146.319075, -64.891753) "></path>
                    <path d="M161.244456,54 C164.829651,58.1253606 167,63.5131364 167,69.4078243 C167,82.3865159 156.478692,92.9078243 143.5,92.9078243 C130.521308,92.9078243 120,82.3865159 120,69.4078243 C120,63.5131364 122.170349,58.1253606 125.755544,54 C123.677636,57.2604776 122.473684,61.1321485 122.473684,65.2850173 C122.473684,76.8975309 131.887486,86.3113331 143.5,86.3113331 C155.112514,86.3113331 164.526316,76.8975309 164.526316,65.2850173 C164.526316,61.1321485 163.322364,57.2604776 161.244456,54 Z" id="Oval-129" fill="#CACFCD"></path>
                    <path d="M168,41.0000001 C168,41.0000001 210.308769,39.6016474 228.878897,54.9039847 C247.449024,70.2063219 246.73448,97.1983295 246,104.000001 C245.26552,110.801674 231.679183,113.548898 223.120082,108.233628 C218.146446,105.14496 220.263444,95.9480931 219,86.0000015 C218.367923,81.0231584 220.834729,77.1182579 213.247829,71.1740451 C190.495657,53.3480887 168,61.2312303 168,61.2312303 L168,41.0000001 Z" id="Rectangle-128" fill="#6B2C08"></path>
                </g>
                <g id="Rectangle-3-+-Oval-8" transform="translate(572.730496, 415.830451) rotate(-327.000000) translate(-572.730496, -415.830451) translate(468.730496, 370.830451)" fill="#8CB18E" sketch:type="MSShapeGroup">
                    <path d="M2,49.7727273 C2,49.7727273 49.984538,45 75,45 C98.6512046,45 148,49.7727273 148,49.7727273 L148,70.2272727 C148,70.2272727 98.8851136,75 75,75 C50.2184469,75 2,70.2272727 2,70.2272727 L2,49.7727273 Z" id="Rectangle-3" transform="translate(75.000000, 60.000000) rotate(-12.000000) translate(-75.000000, -60.000000) "></path>
                    <path d="M201.34752,71.7905911 C196.362829,73.0928686 190.98652,73.8027549 185.381013,73.8027549 C159.42363,73.8027549 138.381013,58.5804364 138.381013,39.8027549 C138.381013,21.0250734 159.42363,5.80275491 185.381013,5.80275491 C190.98652,5.80275491 196.362829,6.51264118 201.34752,7.81491869 C179.20649,12.5430889 163.381013,25.080121 163.381013,39.8027549 C163.381013,54.5253888 179.20649,67.062421 201.34752,71.7905911 Z" id="Oval-8" transform="translate(169.864266, 39.802755) rotate(-12.000000) translate(-169.864266, -39.802755) "></path>
                </g>
                <path d="M339.811975,727.058061 C346.664884,764.832605 365.304891,790.82346 383.811975,790.82346 C400.032669,790.82346 431.056503,793.21976 447.811975,765.093562 C460.722137,743.422208 461.811975,694.203611 461.811975,670.00481 C461.811975,614.399562 432.530782,549.18616 403.811975,549.18616 C375.093168,549.18616 339.811975,602.093959 339.811975,657.699207 C339.811975,677.471108 336.03072,706.21506 339.811975,727.058061 Z" id="Oval-12" fill="#8CB18E" sketch:type="MSShapeGroup" transform="translate(399.971696, 670.030206) rotate(-351.000000) translate(-399.971696, -670.030206) "></path>
                <path d="M506.397261,752.07773 C506.397261,752.07773 522.175725,756.546806 540.841729,756.641312 C549.170522,756.683481 556.39419,755.821624 564.850708,756.641312 C573.337536,757.463939 593.636259,746.423345 600.034592,752.07773 C606.432925,757.732116 589.956892,772.931407 589.956892,772.931407 C589.956892,772.931407 577.423996,787.60031 570.28331,792.918546 C561.052275,799.793632 540.841731,809.511373 540.841731,809.511373 C540.841731,809.511373 480.216451,825.365774 456.187891,809.511375 C432.15933,793.656975 506.397261,752.07773 506.397261,752.07773 Z" id="Rectangle-5" fill="#5D2607" sketch:type="MSShapeGroup" transform="translate(526.455528, 783.508419) rotate(-339.000000) translate(-526.455528, -783.508419) "></path>
                <polygon id="Star-1" fill="#FFBA13" sketch:type="MSShapeGroup" points="306.5 806.75 299.034087 818.926564 299.336509 804.646609 286.472636 810.853809 294.447376 799.004249 280.269732 797.271343 293.384866 791.614328 282.394752 782.491502 296.486318 784.823095 292.173018 771.206781 302.767044 780.786718 306.5 767 310.232956 780.786718 320.826982 771.206781 316.513682 784.823095 330.605248 782.491502 319.615134 791.614328 332.730268 797.271343 318.552624 799.004249 326.527364 810.853809 313.663491 804.646609 313.965913 818.926564 "></polygon>
                <rect id="Rectangle-135" fill="#393333" sketch:type="MSShapeGroup" x="303" y="786" width="61" height="13" rx="5"></rect>
                <path d="M430,780.347069 C430.714483,772.210305 433.241161,756.998521 433,752.347069 C431.436588,722.192412 419,699.500019 419,699.500019 C419,699.500019 442.000267,706.828869 459,699.500019 C470.410409,694.580813 518.414982,668.273115 527,699.500018 C534.010551,725 534.010551,741 534.010551,741 C534.010551,741 537.862539,752.885358 534.010551,764.347069 C528.633362,780.347069 541.343044,782.058834 534.010551,789.347069 C520.839889,802.438235 480.521122,784.852774 454,786.999998 C448.91938,787.411339 451.86049,782.33785 449,784.999998 C446.828805,787.020646 433.292908,786.44226 430,784.999998 C422.378789,781.66198 428.844552,793.505681 430,780.347069 Z" id="Rectangle-133" fill="#5D2607" sketch:type="MSShapeGroup"></path>
                <path d="M435,782.217553 C435,780.004418 436.736384,778.623742 438.900724,779.139061 L452.099276,782.281573 C454.253587,782.794504 456,785.002785 456,787.209547 L456,799.211087 C456,801.419801 454.334612,802.575883 452.269819,801.789296 L438.730181,796.631338 C436.670059,795.84653 435,793.42315 435,791.203081 L435,782.217553 Z" id="Rectangle-138" fill="#393333" sketch:type="MSShapeGroup"></path>
                <path d="M457,700 L462,700 L462,791 L457,788 L457,700 Z" id="Rectangle-134" fill="#7D3309" sketch:type="MSShapeGroup"></path>
                <path d="M337,790.999996 C337.714483,782.863233 340.241161,767.651448 340,762.999996 C338.436588,732.845339 326,710.152946 326,710.152946 C326,710.152946 343.000267,717.481796 360,710.152946 C371.410409,705.233741 394.151764,700.739048 402,701 C409.815137,701.259852 421.530224,685.65857 431,690.62251 C447.455113,699.248079 454.523481,702.516995 460,715.122529 C465.476519,727.728064 458.772435,735.325354 455.126672,746.155887 C451.624886,756.558703 444.862539,763.538285 441.010552,774.999996 C435.633362,790.999996 467.332493,806.711768 460,814.000002 C456.763171,817.217295 416.999557,789.250708 411,790.999996 C392.587354,796.368563 380.003276,812.380483 360,814.000004 C354.91938,814.411345 355.86049,815.337856 353,818.000004 C350.828805,820.020652 346.292908,815.442266 343,814.000004 C335.378789,810.661986 335.844553,804.158608 337,790.999996 Z" id="Rectangle-133" fill="#E2E2E2" sketch:type="MSShapeGroup"></path>
                <path d="M367.136191,783.994696 C367.136191,783.994696 427.141469,786.543218 473.939096,796.28805 C485.353392,798.664888 500.648991,793.094299 504.596612,796.28805 C512.550158,802.722719 500.260916,818.201463 498.118631,820.192995 C480.961258,836.142999 434.035086,850.697302 434.035086,850.697302 C434.035086,850.697302 422.497243,859.262946 397.150419,855.756521 C391.934407,855.03495 372.038434,842.665543 367.13619,842.526633 C354.896732,842.179815 347.706862,855.469625 340.474036,850.697299 C316.266754,834.724977 367.136191,783.994696 367.136191,783.994696 Z" id="Rectangle-5" fill="#5D2607" sketch:type="MSShapeGroup" transform="translate(420.593708, 820.297119) rotate(-339.000000) translate(-420.593708, -820.297119) "></path>
                <path d="M334,791.999996 C334.714483,783.863233 337.241161,768.651448 337,763.999996 C335.436588,733.845339 323,711.152946 323,711.152946 C323,711.152946 336.214904,698.95136 353.214637,691.62251 C364.625046,686.703305 390.43642,686.461554 398.284656,686.722507 C406.099793,686.982358 423.163585,686.65857 432.63336,691.62251 C449.088473,700.248079 452.348825,702.872063 457,716.122529 C461.651175,729.372996 455.772435,736.325354 452.126672,747.155887 C448.624886,757.558703 441.862539,764.538285 438.010552,775.999996 C432.633362,791.999996 445.343044,793.711761 438.010552,800.999996 C424.839889,814.091162 383.521122,812.85278 357,815.000004 C351.91938,815.411345 352.86049,816.337856 350,819.000004 C347.828805,821.020652 343.292908,816.442266 340,815.000004 C332.378789,811.661986 332.844553,805.158608 334,791.999996 Z" id="Rectangle-133" fill="#5D2607" sketch:type="MSShapeGroup"></path>
                <path d="M332,815.007236 C332,812.794101 333.731624,811.461766 335.860559,812.029483 L358.139441,817.970518 C360.271569,818.539085 362,820.800352 362,823.009558 L362,836.990441 C362,839.204859 360.365765,840.291831 358.321411,839.405944 L335.678589,829.594055 C333.64696,828.713683 332,826.212833 332,823.992764 L332,815.007236 Z" id="Rectangle-138" fill="#393333" sketch:type="MSShapeGroup"></path>
                <path d="M355,691 L362,691 L362,826 L355,817 L355,691 Z" id="Rectangle-134" fill="#7D3309" sketch:type="MSShapeGroup"></path>
                <g id="Group" transform="translate(445.000000, 295.000000)" fill="#FFBA13" sketch:type="MSShapeGroup">
                    <polygon id="Star-2" transform="translate(54.500000, 54.500000) rotate(-20.000000) translate(-54.500000, -54.500000) " points="54.5 75.75 29.5191268 88.8832223 34.290049 61.0666111 14.0800981 41.3667777 42.0095634 37.3083889 54.5 12 66.9904366 37.3083889 94.9199019 41.3667777 74.709951 61.0666111 79.4808732 88.8832223 "></polygon>
                    <circle id="Oval-131" cx="40.5" cy="16.5" r="4.5"></circle>
                    <circle id="Oval-131" cx="86.5" cy="29.5" r="4.5"></circle>
                    <circle id="Oval-131" cx="12.5" cy="55.5" r="4.5"></circle>
                    <circle id="Oval-131" cx="42.5" cy="94.5" r="4.5"></circle>
                    <circle id="Oval-131" cx="88.5" cy="77.5" r="4.5"></circle>
                </g>
                <g id="Hat-Copy" transform="translate(518.005245, 86.738540) rotate(-32.000000) translate(-518.005245, -86.738540) translate(415.550493, 48.856111)" sketch:type="MSShapeGroup">
                    <path d="M12.337483,51.5845851 C6.798178,45.8278673 6.79398772,45.0341278 6.79398772,45.0341278 C-0.513255961,35.2974485 2.06813478,32.4186909 12.6751895,38.3922474 C12.6751895,38.3922474 28.287795,48.5250151 45.0586342,53.4644115 C63.7248307,58.9620341 85.5277552,57.4953181 105.136813,57.4953181 C126.3916,57.4953181 150.47553,57.1413265 164.142168,53.4644115 C172.295242,51.2708827 191.918862,37.4679817 191.918862,37.4679817 C202.055921,30.722912 205.821543,34.0625713 199.356369,44.3799987 C199.356369,44.3799987 193.011025,65.7834578 164.142168,71.4661435 C126.472193,78.8812837 75.7467194,75.2248837 45.0586342,71.4661435 C34.7437163,70.202751 20.8408132,60.4216636 12.337483,51.5845851 Z" id="Rectangle-119" fill="#5D2607"></path>
                    <path d="M61.6874159,29.2733486 C67.0796413,19.0533146 74.9905283,10.2358132 77.7797854,5.91073371 C84.2968393,-4.19474422 86.4692207,5.91073363 99.7726901,5.91073363 C105.054398,5.91073363 116.281594,-6.23182564 123.374831,5.91073371 C127.490219,12.9556615 133.245899,19.9460765 138.930789,29.2733486 C147.197114,42.836014 151.804684,58.0326566 151.804684,58.0326566 L49.886345,58.0326566 C49.886345,58.0326566 54.4807943,42.9322578 61.6874159,29.2733486 Z" id="Rectangle-120" fill="#5D2507"></path>
                    <path d="M53.828335,46.815111 C55.8223935,41.6405271 145.600752,41.748401 147.749898,46.9659133 C150.399842,53.3992198 151.268272,55.3459602 151.268272,55.3459602 C151.268272,55.3459602 116.278066,60.182015 98.6998655,60.182015 C82.8416986,60.182015 50.9591697,55.3459602 50.9591697,55.3459602 C50.9591697,55.3459602 51.3149035,53.3374686 53.828335,46.815111 Z" id="Rectangle-120" fill="#291103"></path>
                </g>
                <rect id="Rectangle-151" fill="#5D2607" sketch:type="MSShapeGroup" transform="translate(373.399917, 604.056867) rotate(-351.000000) translate(-373.399917, -604.056867) " x="354.086548" y="560.484833" width="38.626739" height="87.1440683" rx="7"></rect>
                <path d="M342,539 C342,539 396.549311,553 427,553 C443.318148,553 469.567814,553.191624 492,550 C518.436642,546.238627 540,539 540,539 L534,559 C534,559 515.357575,565.740115 492,569 C468.129054,572.331534 439.338838,572.182476 421,572 C390.283279,571.694361 333,557 333,557 L342,539 Z" id="Rectangle-150" fill="#5D2607" sketch:type="MSShapeGroup"></path>
            </g>
            <g id="Western-Robot" sketch:type="MSLayerGroup" transform="translate(1462.000000, 14.000000)">
                <path d="M237.196082,419.09164 C234.726582,414.570064 232.737136,409.525192 231.381041,404.086192 C227.885592,390.066715 223.646993,374.755835 228.761549,364.595071 C230.747972,360.648771 234.639598,357.620819 239.042684,355.320397 L195.543971,108.626933 L224.103395,103.591135 L267.061165,347.216756 C272.800368,346.577627 278.447704,347.184109 282.884903,351.100603 C290.562191,357.876963 294.321544,375.44431 297.36115,387.635503 C298.717245,393.074503 299.329092,398.46285 299.271404,403.614524 C289.327281,383.275025 273.334123,370.952614 259.048814,374.514342 C244.763505,378.076069 236.427406,396.464445 237.196082,419.09164 Z" id="Rectangle-20" fill="#4D4D4D" sketch:type="MSShapeGroup" transform="translate(247.409548, 261.341388) scale(-1, -1) rotate(-13.000000) translate(-247.409548, -261.341388) "></path>
                <rect id="Rectangle-15" fill="#4D4D4D" sketch:type="MSShapeGroup" transform="translate(385.000000, 761.000000) rotate(-356.000000) translate(-385.000000, -761.000000) " x="367" y="700" width="36" height="122"></rect>
                <rect id="Rectangle-15-Copy" fill="#4D4D4D" sketch:type="MSShapeGroup" transform="translate(474.211298, 759.892976) scale(-1, 1) rotate(-356.000000) translate(-474.211298, -759.892976) " x="456.211298" y="698.892976" width="36" height="122"></rect>
                <g id="Rectangle-20-+-Oval-8" transform="translate(607.503220, 253.216190) scale(1, -1) rotate(-12.000000) translate(-607.503220, -253.216190) translate(554.003220, 94.716190)" fill="#4D4D4D" sketch:type="MSShapeGroup">
                    <rect id="Rectangle-20" transform="translate(36.800641, 127.746556) rotate(-280.000000) translate(-36.800641, -127.746556) " x="-89.7596161" y="113.246556" width="253.120514" height="29"></rect>
                    <path d="M97.1178399,309.784404 C92.1331486,311.086681 86.7568397,311.796567 81.1513327,311.796567 C66.702668,311.796567 50.8211772,312.205225 42.1995539,304.784482 C35.3322179,298.873676 34.1513327,286.122023 34.1513327,277.796567 C34.1513327,268.108033 33.2111026,255.19724 42.1995543,249.004216 C50.6319305,243.194326 68.5869229,243.796567 81.1513327,243.796567 C86.7568397,243.796567 92.1331486,244.506454 97.1178399,245.808731 C74.9768102,250.536901 59.1513327,263.073933 59.1513327,277.796567 C59.1513327,292.519201 74.9768102,305.056233 97.1178399,309.784404 Z" id="Oval-8" transform="translate(65.620514, 277.789700) rotate(-284.000000) translate(-65.620514, -277.789700) "></path>
                </g>
                <path d="M426.5,330 L289,330 L346,704 L426.5,704 L507,704 L564,330 L426.5,330 Z" id="Rectangle-11" fill="#868686" sketch:type="MSShapeGroup"></path>
                <path d="M426.5,386 L343,386 L377.614545,613 L426.5,613 L475.385455,613 L510,386 L426.5,386 Z" id="Rectangle-11" fill="#AEAEAE" sketch:type="MSShapeGroup"></path>
                <rect id="Rectangle-17" fill="#2B2B2B" sketch:type="MSShapeGroup" x="383" y="400" width="88" height="192"></rect>
                <g id="Robot-Head" transform="translate(290.000000, 34.000000)" sketch:type="MSShapeGroup">
                    <rect id="Rectangle-7" fill="#9B9B9B" x="33" y="96" width="207" height="207"></rect>
                    <circle id="Oval-14" fill="#000000" cx="183" cy="178" r="37"></circle>
                    <circle id="Oval-14-Copy" fill="#000000" cx="90" cy="178" r="37"></circle>
                    <path d="M94.5,260.5 L178.5,260.5" id="Line" stroke="#000000" stroke-width="11" stroke-linecap="square"></path>
                    <rect id="Rectangle-8" fill="#4C4C4C" x="100" y="48" width="74" height="48"></rect>
                    <path d="M246.5,182.5 L273,0" id="Line" stroke="#2B2B2B" stroke-width="10" stroke-linecap="square"></path>
                    <path d="M0.5,188.5 L27,6" id="Line-Copy" stroke="#2B2B2B" stroke-width="10" stroke-linecap="square" transform="translate(13.500000, 97.500000) scale(-1, 1) translate(-13.500000, -97.500000) "></path>
                    <path d="M240,165.001048 C240,165.001048 245.72,164.602406 249.88,179.352144 C254.04,194.101882 254.04,193.304599 249.88,208.054337 C245.72,222.804075 240,224 240,224 L240,165.001048 Z" id="Rectangle-9" fill="#4D4D4D"></path>
                    <path d="M20,165.001048 C20,165.001048 25.72,164.602406 29.88,179.352144 C34.04,194.101882 34.04,193.304599 29.88,208.054337 C25.72,222.804075 20,224 20,224 L20,165.001048 Z" id="Rectangle-9-Copy" fill="#4D4D4D" transform="translate(26.500000, 194.500000) scale(-1, 1) translate(-26.500000, -194.500000) "></path>
                    <g id="Group" transform="translate(80.000000, 168.000000)">
                        <path d="M103.5,21 C109.29899,21 114,16.2989899 114,10.5 C114,4.70101013 109.29899,0 103.5,0 C97.7010101,0 93,4.70101013 93,10.5 C93,16.2989899 97.7010101,21 103.5,21 Z" id="Oval-15-Copy" fill="#7F0000"></path>
                        <circle id="Oval-293" fill="#FD0000" cx="103.5" cy="10.5" r="5.5"></circle>
                        <path d="M10.5,21 C16.2989899,21 21,16.2989899 21,10.5 C21,4.70101013 16.2989899,0 10.5,0 C4.70101013,0 0,4.70101013 0,10.5 C0,16.2989899 4.70101013,21 10.5,21 Z" id="Oval-15-Copy" fill="#7F0000"></path>
                        <circle id="Oval-293" fill="#FD0000" cx="10.5" cy="10.5" r="5.5"></circle>
                    </g>
                </g>
                <rect id="Rectangle-122" fill="#868686" sketch:type="MSShapeGroup" x="383" y="400" width="88" height="32"></rect>
                <path d="M204,495 L430.120514,495 L430.120514,524 L217,524 L204,495 Z" id="Rectangle-20" fill="#4D4D4D" sketch:type="MSShapeGroup"></path>
                <g id="Revolver" transform="translate(0.000000, 448.000000)" sketch:type="MSShapeGroup">
                    <rect id="Rectangle-125" fill="#CACFCD" x="0" y="22" width="106" height="23" rx="1"></rect>
                    <rect id="Rectangle-125" fill="#CACFCD" x="92" y="11" width="76" height="56" rx="8"></rect>
                    <path d="M148,15 C148,15 167.126305,19.4302508 171,15 C173.246921,12.4302508 179,-1.97215226e-31 179,-1.97215226e-31 C179,-1.97215226e-31 182.685839,14.7371134 179,21 C175.314161,27.2628866 150.471787,21 150.471787,21 L148,15 Z" id="Rectangle-126" fill="#CACFCD"></path>
                    <path d="M130,68 C130,68 149.126305,72.4302508 153,68 C155.246921,65.4302508 161,53 161,53 C161,53 164.685839,67.7371134 161,74 C157.314161,80.2628866 132.471787,74 132.471787,74 L130,68 Z" id="Rectangle-126" fill="#CACFCD" transform="translate(146.319075, 64.891753) rotate(-63.000000) translate(-146.319075, -64.891753) "></path>
                    <path d="M161.244456,54 C164.829651,58.1253606 167,63.5131364 167,69.4078243 C167,82.3865159 156.478692,92.9078243 143.5,92.9078243 C130.521308,92.9078243 120,82.3865159 120,69.4078243 C120,63.5131364 122.170349,58.1253606 125.755544,54 C123.677636,57.2604776 122.473684,61.1321485 122.473684,65.2850173 C122.473684,76.8975309 131.887486,86.3113331 143.5,86.3113331 C155.112514,86.3113331 164.526316,76.8975309 164.526316,65.2850173 C164.526316,61.1321485 163.322364,57.2604776 161.244456,54 Z" id="Oval-129" fill="#CACFCD"></path>
                    <path d="M168,41.0000001 C168,41.0000001 210.308769,39.6016474 228.878897,54.9039847 C247.449024,70.2063219 246.73448,97.1983295 246,104.000001 C245.26552,110.801674 231.679183,113.548898 223.120082,108.233628 C218.146446,105.14496 220.263444,95.9480931 219,86.0000015 C218.367923,81.0231584 220.834729,77.1182579 213.247829,71.1740451 C190.495657,53.3480887 168,61.2312303 168,61.2312303 L168,41.0000001 Z" id="Rectangle-128" fill="#6B2C08"></path>
                </g>
                <rect id="Rectangle-129" fill="#4D4D4D" sketch:type="MSShapeGroup" x="183" y="486" width="71.4095482" height="47" rx="10"></rect>
                <g id="Hat" transform="translate(239.000000, 0.000000)" sketch:type="MSShapeGroup">
                    <path d="M22.9999996,96.0000012 C12.673419,85.2866279 5.88177601,75.0913683 5.88177601,75.0913683 C-3.9940558,61.7860729 -0.438181362,57.8441197 13.9348713,66.0698068 C13.9348713,66.0698068 52.735171,90.3060769 84,99.4983978 C118.798225,109.729589 159.444057,107 196,107 C235.623972,107 280.522141,106.341214 306,99.4983978 C321.199268,95.4161945 367.071373,63.6695183 367.071373,63.6695183 C380.839078,54.4631975 386.074076,59.0564869 377.758751,73.3857033 C377.758751,73.3857033 359.81841,122.424403 306,133.000001 C235.774217,146.799733 141.209882,139.995096 84,133.000001 C64.7705421,130.648801 38.8522275,112.445991 22.9999996,96.0000012 Z" id="Rectangle-119" fill="#923C0C"></path>
                    <path d="M115,54.4783194 C125.052389,35.4586204 139.800162,19.0490644 145,11.0000001 C157.149337,-7.8065075 161.199172,11 186,11 C195.846359,11 216.776519,-11.597559 229.999998,11.0000001 C237.672059,24.1107594 248.402014,37.1200692 259,54.4783194 C274.410394,79.7187259 283,107.999998 283,107.999998 L92.9999999,107.999998 C92.9999999,107.999998 101.565145,79.8978375 115,54.4783194 Z" id="Rectangle-120" fill="#923C0C"></path>
                    <path d="M100.348806,87.1239093 C104.066205,77.4938994 271.434396,77.6946552 275.440915,87.4045555 C280.38104,99.3770747 282,103 282,103 C282,103 216.769942,112 184,112 C154.436609,112 95,103 95,103 C95,103 95.6631724,99.2621544 100.348806,87.1239093 Z" id="Rectangle-120" fill="#512106"></path>
                </g>
                <g id="Rectangle-146-+-Rectangle-146-+-Rectangle-147" transform="translate(279.000000, 724.000000)" sketch:type="MSShapeGroup">
                    <path d="M2.99999994,99.0000032 C11.2618783,90.967577 38.9423526,107.732739 59.0000004,83 C66.9972423,73.1387393 76.8837647,61.2875919 78.9999967,48.9999989 C82.1914241,30.4694406 75.4046452,12.0757902 78.9999967,6.99999988 C84.9794218,-1.44154145 132.077859,-1.5020904 135.999997,18.9999997 C139.922134,39.5020898 122.267634,64.7777182 120.999997,83.0000032 C119.821475,99.94124 120.999997,115.999997 120.999997,115.999997 L108.999997,117.999997 L105.999997,118.999997 C105.999997,118.999997 104.665845,113.000003 100.999997,113.000003 C95.6418271,113.000003 84.7646411,117.400301 74.9999965,120.000003 C53.8966966,125.618467 22.0000005,126.000005 22.0000005,126.000005 C22.0000005,126.000005 -6.79723851,108.525149 2.99999994,99.0000032 Z" id="Rectangle-146" fill="#923C0C"></path>
                    <path d="M95,2 C95,2 102.352645,0.668422231 106,1 C109.685978,1.3350889 117,4 117,4 L100,88 C100,88 96.8945177,88.9472588 95,88 C93.5611843,87.2805922 90,83 90,83 L95,2 Z" id="Rectangle-146" fill="#512106"></path>
                    <path d="M100,112 L121,112 C121,112 121.37624,116.366321 121,119.000003 C120.709573,121.032989 117,126.000005 117,126.000005 L99,126.000005 L100,112 Z" id="Rectangle-147" fill="#393333"></path>
                </g>
                <g id="Rectangle-146-+-Rectangle-146-+-Rectangle-147" transform="translate(510.500000, 787.000000) scale(-1, 1) translate(-510.500000, -787.000000) translate(442.000000, 724.000000)" sketch:type="MSShapeGroup">
                    <path d="M2.99999994,99.0000032 C11.2618783,90.967577 38.9423526,107.732739 59.0000004,83 C66.9972423,73.1387393 76.8837647,61.2875919 78.9999967,48.9999989 C82.1914241,30.4694406 75.4046452,12.0757902 78.9999967,6.99999988 C84.9794218,-1.44154145 132.077859,-1.5020904 135.999997,18.9999997 C139.922134,39.5020898 122.267634,64.7777182 120.999997,83.0000032 C119.821475,99.94124 120.999997,115.999997 120.999997,115.999997 L108.999997,117.999997 L105.999997,118.999997 C105.999997,118.999997 104.665845,113.000003 100.999997,113.000003 C95.6418271,113.000003 84.7646411,117.400301 74.9999965,120.000003 C53.8966966,125.618467 22.0000005,126.000005 22.0000005,126.000005 C22.0000005,126.000005 -6.79723851,108.525149 2.99999994,99.0000032 Z" id="Rectangle-146" fill="#923C0C"></path>
                    <path d="M95,2 C95,2 102.352645,0.668422231 106,1 C109.685978,1.3350889 117,4 117,4 L100,88 C100,88 96.8945177,88.9472588 95,88 C93.5611843,87.2805922 90,83 90,83 L95,2 Z" id="Rectangle-146" fill="#512106"></path>
                    <path d="M100,112 L121,112 C121,112 121.37624,116.366321 121,119.000003 C120.709573,121.032989 117,126.000005 117,126.000005 L99,126.000005 L100,112 Z" id="Rectangle-147" fill="#393333"></path>
                </g>
                <g id="Stubble" transform="translate(333.000000, 261.000000)" fill="#4A4A4A" sketch:type="MSShapeGroup">
                    <circle id="Oval-164" cx="28.5" cy="22.5" r="3.5"></circle>
                    <circle id="Oval-164-Copy-23" cx="14.5" cy="55.5" r="3.5"></circle>
                    <circle id="Oval-164-Copy-24" cx="48.5" cy="12.5" r="3.5"></circle>
                    <circle id="Oval-164-Copy-25" cx="18.5" cy="29.5" r="3.5"></circle>
                    <circle id="Oval-164-Copy-26" cx="3.5" cy="3.5" r="3.5"></circle>
                    <circle id="Oval-164-Copy-27" cx="40.5" cy="45.5" r="3.5"></circle>
                    <circle id="Oval-164-Copy-28" cx="144.5" cy="16.5" r="3.5"></circle>
                    <circle id="Oval-164-Copy-29" cx="162.5" cy="47.5" r="3.5"></circle>
                    <circle id="Oval-164-Copy" cx="165.5" cy="20.5" r="3.5"></circle>
                    <circle id="Oval-164-Copy-2" cx="10.5" cy="19.5" r="3.5"></circle>
                    <circle id="Oval-164-Copy-3" cx="3.5" cy="40.5" r="3.5"></circle>
                    <circle id="Oval-164-Copy-4" cx="25.5" cy="47.5" r="3.5"></circle>
                    <circle id="Oval-164-Copy-5" cx="63.5" cy="54.5" r="3.5"></circle>
                    <circle id="Oval-164-Copy-6" cx="63.5" cy="15.5" r="3.5"></circle>
                    <circle id="Oval-164-Copy-7" cx="100.5" cy="15.5" r="3.5"></circle>
                    <circle id="Oval-164-Copy-8" cx="128.5" cy="12.5" r="3.5"></circle>
                    <circle id="Oval-164-Copy-9" cx="78.5" cy="13.5" r="3.5"></circle>
                    <circle id="Oval-164-Copy-10" cx="97.5" cy="54.5" r="3.5"></circle>
                    <circle id="Oval-164-Copy-11" cx="178.5" cy="29.5" r="3.5"></circle>
                    <circle id="Oval-164-Copy-13" cx="175.5" cy="51.5" r="3.5"></circle>
                    <circle id="Oval-164-Copy-14" cx="156.5" cy="59.5" r="3.5"></circle>
                    <circle id="Oval-164-Copy-15" cx="35.5" cy="58.5" r="3.5"></circle>
                    <circle id="Oval-164-Copy-16" cx="140.5" cy="50.5" r="3.5"></circle>
                    <circle id="Oval-164-Copy-17" cx="51.5" cy="62.5" r="3.5"></circle>
                    <circle id="Oval-164-Copy-18" cx="82.5" cy="61.5" r="3.5"></circle>
                    <circle id="Oval-164-Copy-19" cx="117.5" cy="51.5" r="3.5"></circle>
                    <circle id="Oval-164-Copy-20" cx="110.5" cy="66.5" r="3.5"></circle>
                    <circle id="Oval-164-Copy-21" cx="128.5" cy="63.5" r="3.5"></circle>
                    <circle id="Oval-164-Copy-22" cx="155.5" cy="33.5" r="3.5"></circle>
                    <circle id="Oval-164-Copy-12" cx="181.5" cy="6.5" r="3.5"></circle>
                </g>
            </g>
        </g>
    </g>
</svg>