<?xml version="1.0" encoding="UTF-8" standalone="no"?>
<svg width="193px" height="192px" viewBox="0 0 193 192" version="1.1" xmlns="http://www.w3.org/2000/svg" xmlns:xlink="http://www.w3.org/1999/xlink" xmlns:sketch="http://www.bohemiancoding.com/sketch/ns">
    <!-- Generator: Sketch 3.4.2 (15857) - http://www.bohemiancoding.com/sketch -->
    <title>Rectangle 307</title>
    <desc>Created with Sketch.</desc>
    <defs></defs>
    <g id="Page-1" stroke="none" stroke-width="1" fill="none" fill-rule="evenodd" sketch:type="MSPage">
        <path d="M107.356602,95.75 L189.842867,13.2637343 C192.764137,10.3424645 192.767027,5.59083707 189.838095,2.66190488 C186.915123,-0.261067517 182.162562,-0.269163915 179.236266,2.65713263 L96.75,85.1433983 L13.9051303,2.29852861 C10.9788338,-0.62776794 6.22627326,-0.619671541 3.30330086,2.30330086 C0.374368671,5.23223305 0.377258754,9.98386047 3.29852861,12.9051303 L86.1433983,95.75 L3.15713263,178.736266 C0.235862778,181.657536 0.232972695,186.409163 3.16190488,189.338095 C6.08487728,192.261068 10.8374378,192.269164 13.7637343,189.342867 L96.75,106.356602 L179.377662,188.984263 C182.303958,191.91056 187.056519,191.902463 189.979491,188.979491 C192.908423,186.050559 192.905533,181.298931 189.984263,178.377662 L107.356602,95.75 Z" id="Rectangle-307" fill="#000198" sketch:type="MSShapeGroup"></path>
    </g>
</svg>